<?xml version="1.0" encoding="iso-8859-1"?>
<!-- Generator: Adobe Illustrator 19.0.0, SVG Export Plug-In . SVG Version: 6.00 Build 0)  -->
<svg version="1.1" id="Capa_1" xmlns="http://www.w3.org/2000/svg" xmlns:xlink="http://www.w3.org/1999/xlink" x="0px" y="0px"
	 viewBox="0 0 403.067 403.067" style="enable-background:new 0 0 403.067 403.067;" xml:space="preserve">
<path style="fill:#ED1B24;" d="M367.467,118.49c-0.039-8.406,2.111-16.678,6.24-24c-26.798-1.058-47.664-23.64-46.606-50.438
	c0.314-7.962,2.583-15.724,6.606-22.602c-10.656-3.785-21.821-5.942-33.12-6.4c-72.88-2.64-95.52,67.6-95.52,67.6
	s-22.64-70.08-95.52-67.44S-13.493,87.93,3.227,152.17c17.76,68.16,83.76,112.48,138,168c36.24,37.36,64,67.92,64,67.92
	s27.6-30.56,64-67.92c50.64-52.24,112-94.32,133.84-155.28C382.189,159.081,367.672,140.16,367.467,118.49L367.467,118.49z
	 M115.787,56.57c-39.393,0.044-71.316,31.967-71.36,71.36c0,4.418-3.582,8-8,8s-8-3.582-8-8c0.044-48.229,39.131-87.316,87.36-87.36
	c4.418,0,8,3.582,8,8S120.205,56.57,115.787,56.57z"/>
<g>
</g>
<g>
</g>
<g>
</g>
<g>
</g>
<g>
</g>
<g>
</g>
<g>
</g>
<g>
</g>
<g>
</g>
<g>
</g>
<g>
</g>
<g>
</g>
<g>
</g>
<g>
</g>
<g>
</g>
</svg>
