<svg id="Layer_1" height="512" viewBox="0 0 512 512" width="512" xmlns="http://www.w3.org/2000/svg" data-name="Layer 1"><path d="m356.61 59.03a211.035 211.035 0 0 0 -344.2 143.34q-.9 9.72-.91 19.69c0 116.57 94.49 211.06 211.06 211.06a210.714 210.714 0 0 0 70.36-12.01l132.76-141.53a211.354 211.354 0 0 0 -69.07-220.55z" fill="#a5e2fb"/><path d="m356.61 59.03-8.4 11.72a267.661 267.661 0 0 0 -33.86 45.84l-7.79 13.31a10.371 10.371 0 0 0 1.26 11.9 18.347 18.347 0 0 0 11.58 6.13l3.75.47a37.362 37.362 0 0 1 31.16 26.21 36.65 36.65 0 0 1 -10.79 38l-36.965 32.85a16.883 16.883 0 0 0 -5.555 12.79v8.16a89.5 89.5 0 0 1 44.9-11.86 91.063 91.063 0 0 1 64.122 26.29l-.013-.04c1.01-.13 2.013-.22 3.053-.27l12.626-.95a211.379 211.379 0 0 0 -69.078-220.55z" fill="#5fcda4"/><path d="m431.563 421.123-10.94 10.93-15.763-15.753-.08-.09a89.558 89.558 0 0 0 10.93-10.93l.09.08z" fill="#6d7486"/><path d="m419.63 280.19 6.05-.61q-2.055 7.335-4.64 14.44a91.7 91.7 0 0 0 -11.12-13.18l.04-.04c1.01-.13 2.04-.22 3.08-.27l5.11-.23c.49-.02.98-.06 1.48-.11z" fill="#a5e2fb"/><path d="m494.6 466.61a20.145 20.145 0 0 1 -28.49 28.49l-41.5-41.5 28.49-28.5z" fill="#e87187"/><path d="m438.46 410.46-28.5 28.49 14.65 14.65 28.49-28.5z" fill="#ad5e73"/><path d="m387.97 292.45a68.378 68.378 0 1 0 -68.22 117.01 211.96 211.96 0 0 0 89.42-88.71 68.556 68.556 0 0 0 -21.2-28.3z" fill="#86bdce"/><path d="m387.97 292.45a35.967 35.967 0 0 0 -5.98 9.38l-1.31 2.98a27.973 27.973 0 0 1 -25.62 16.73h-21.77a10.08 10.08 0 0 1 -10.06-9.1l-.87-8.7a35.318 35.318 0 0 0 -7.53-18.58 68.408 68.408 0 0 1 73.14 7.29z" fill="#4ca987"/><path d="m421.04 294.02a91.617 91.617 0 0 1 -5.33 111.26 89.558 89.558 0 0 1 -10.93 10.93 91.528 91.528 0 1 1 16.26-122.19zm-6.98 52.17a68.394 68.394 0 1 0 -68.37 68.37 68.059 68.059 0 0 0 68.37-68.37z" fill="#5fa8ed"/><path d="m41.5 222.06q0-9.96.91-19.69a210.867 210.867 0 0 1 195.233-190.831q-7.473-.528-15.083-.539a210.933 210.933 0 0 0 -210.15 191.37q-.9 9.72-.91 19.69c0 116.57 94.49 211.06 211.06 211.06q7.576 0 15.019-.536c-109.579-7.684-196.079-98.992-196.079-210.524z" fill="#8cc2d3"/><path d="m232.54 281.86a7.3 7.3 0 0 1 1.66 5.96 7.643 7.643 0 0 1 -2.98 4.82l-21.59 16.57a35.084 35.084 0 0 0 -12.16 17.5l-7.26 23.54a14.625 14.625 0 0 1 -2.76 5.1l-7.06 8.5a40.334 40.334 0 0 0 -9.33 22.05 11.2 11.2 0 0 1 -6.83 9.33 5.638 5.638 0 0 1 -5.72-.81 5.825 5.825 0 0 1 -2.06-3.64l-6.62-39.74a30.914 30.914 0 0 0 -5.89-13.62l-24.37-31.95a28.39 28.39 0 0 1 -4.79-9.64l-8.04-29.02a30.544 30.544 0 0 0 -21.3-21.21l-1.75-.47a22.674 22.674 0 0 1 -9.5-5.32l-15-14.13a33.562 33.562 0 0 1 -6.06-7.62 33.412 33.412 0 0 0 -35.31-16.02l-2.87.57-2.54-.24a211.147 211.147 0 0 1 112.21-167.32l15.29 11.51 12.07 9.06a65.346 65.346 0 0 0 6.32 4.2 66.224 66.224 0 0 1 20.97 19.42l14.32 20.65a22.437 22.437 0 0 1 -.67 26.57l-6.64 8.62a15.351 15.351 0 0 1 -14.04 5.83l-7.53-.96a27.193 27.193 0 0 0 -27 13.33 15.516 15.516 0 0 1 -15.4 7.38l-17.24-2.19a28.118 28.118 0 0 0 -26.97 12.19 24.953 24.953 0 0 0 -.42 27.38l11.49 18.15a23.245 23.245 0 0 0 30.62 8.05l11.83-6.34a21.856 21.856 0 0 1 21.46.53l22.45 13.47a5.477 5.477 0 0 0 2.98.78c10.43-.27 20.15 5.34 26.23 13.82l10.98 15.31c.77 1.08 1.59 2.13 2.45 3.14z" fill="#5fcda4"/><path d="m42.41 202.37a210.982 210.982 0 0 1 95.336-157.439l-13.126-9.881a211.147 211.147 0 0 0 -112.21 167.32l2.54.24 2.87-.57a33.229 33.229 0 0 1 24.247 4.56c.103-1.412.213-2.824.343-4.23z" fill="#51a884"/><g fill="#284268"><path d="m46.544 161.7a5.994 5.994 0 0 0 7.705-3.554 180.313 180.313 0 0 1 52.556-75.019 6 6 0 1 0 -7.758-9.154 192.342 192.342 0 0 0 -56.058 80.022 6 6 0 0 0 3.555 7.705z"/><path d="m118.925 72.408a5.971 5.971 0 0 0 3.358-1.033c1.709-1.157 3.46-2.3 5.2-3.4a6 6 0 1 0 -6.383-10.161c-1.861 1.169-3.728 2.387-5.55 3.621a6 6 0 0 0 3.37 10.969z"/><path d="m442.7 406.217a6 6 0 0 0 -8.484 0l-4.534 4.535-5.953-5.953a97.44 97.44 0 0 0 3.946-111.581 216.888 216.888 0 1 0 -135.6 134.522 97.43 97.43 0 0 0 112.225-3.519l5.954 5.953-4.534 4.534a6 6 0 0 0 0 8.485l56.149 56.15a25.969 25.969 0 0 0 18.488 7.657 26.146 26.146 0 0 0 18.487-44.634zm-85.072-338.311a205.132 205.132 0 0 1 63.344 206.121l-8.909.623a97.48 97.48 0 0 0 -104.928-18.159 10.531 10.531 0 0 1 3.392-6.539l37.073-32.844a42.636 42.636 0 0 0 12.5-44.236 43.391 43.391 0 0 0 -36.194-30.43l-3.765-.463a12.356 12.356 0 0 1 -7.8-4.127 4.366 4.366 0 0 1 -.6-4.923l7.787-13.314a261.448 261.448 0 0 1 33.094-44.8zm-233.478-25.706 24.226 18.217a72.141 72.141 0 0 0 6.892 4.583 60.641 60.641 0 0 1 19.073 17.663l14.319 20.649a16.455 16.455 0 0 1 -.491 19.49l-6.642 8.616a9.306 9.306 0 0 1 -8.527 3.541l-7.533-.959a33.2 33.2 0 0 0 -32.946 16.265 9.566 9.566 0 0 1 -9.456 4.444l-17.235-2.189a34.1 34.1 0 0 0 -32.7 14.779 30.982 30.982 0 0 0 -.525 33.96l11.495 18.141a29.362 29.362 0 0 0 38.523 10.132l11.83-6.339a15.823 15.823 0 0 1 15.538.378l22.454 13.472a11.48 11.48 0 0 0 6.223 1.638c8.05-.213 15.961 4.02 21.195 11.317l10.986 15.314c.862 1.2 1.788 2.386 2.752 3.521l14.372 16.907a1.326 1.326 0 0 1 .308 1.129 1.789 1.789 0 0 1 -.715 1.008l-21.587 16.577a40.871 40.871 0 0 0 -14.243 20.489l-7.256 23.541a8.739 8.739 0 0 1 -1.643 3.034l-7.064 8.494a46.155 46.155 0 0 0 -10.684 25.34 5.208 5.208 0 0 1 -2.766 4.146l-6.574-39.449a36.938 36.938 0 0 0 -7.037-16.264l-24.374-31.956a22.32 22.32 0 0 1 -3.774-7.6l-8.043-29.023a36.566 36.566 0 0 0 -25.5-25.394l-1.754-.479a16.541 16.541 0 0 1 -6.962-3.9l-15.005-14.119a27.963 27.963 0 0 1 -4.992-6.276 39.481 39.481 0 0 0 -39.129-19.291 205.517 205.517 0 0 1 104.971-153.547zm98.407 384.923c-113.072.001-205.057-91.99-205.057-205.061 0-4.686.173-9.331.484-13.939l1.006-.2a27.446 27.446 0 0 1 28.959 13.164 39.978 39.978 0 0 0 7.132 8.965l15.005 14.123a28.585 28.585 0 0 0 12.027 6.738l1.753.478a24.507 24.507 0 0 1 17.094 17.023l8.04 29.024a34.253 34.253 0 0 0 5.8 11.667l24.374 31.957a24.885 24.885 0 0 1 4.742 10.959l6.625 39.749a11.631 11.631 0 0 0 11.524 9.894 11.582 11.582 0 0 0 4.489-.9 17.187 17.187 0 0 0 10.49-14.319 34.2 34.2 0 0 1 7.956-18.761l7.062-8.494a20.657 20.657 0 0 0 3.884-7.172l7.257-23.541a28.941 28.941 0 0 1 10.083-14.506l21.587-16.571a13.624 13.624 0 0 0 5.257-8.632 13.389 13.389 0 0 0 -3.015-10.8l-14.371-16.906c-.752-.885-1.474-1.81-2.147-2.748l-10.985-15.314c-7.526-10.491-19.149-16.581-31.115-16.322l-22.334-13.4a27.882 27.882 0 0 0 -27.379-.664l-11.829 6.338a17.312 17.312 0 0 1 -22.718-5.975l-11.492-18.144a18.981 18.981 0 0 1 .321-20.809 22.157 22.157 0 0 1 21.249-9.606l17.239 2.19a21.422 21.422 0 0 0 21.346-10.315 21.217 21.217 0 0 1 21.048-10.393l7.537.964a21.369 21.369 0 0 0 19.546-8.119l6.642-8.617a28.409 28.409 0 0 0 .848-33.652l-14.321-20.651a72.7 72.7 0 0 0 -22.875-21.182 60.532 60.532 0 0 1 -5.746-3.82l-19.5-14.667a204.693 204.693 0 0 1 212.281 24.082l-4.819 6.724a273.433 273.433 0 0 0 -34.368 46.594l-7.82 13.37a16.327 16.327 0 0 0 1.954 18.827 24.328 24.328 0 0 0 15.355 8.137l3.754.462a31.341 31.341 0 0 1 26.148 22 30.627 30.627 0 0 1 -9.015 31.761l-36.967 32.844a22.883 22.883 0 0 0 -7.582 17.289v4.521a97.543 97.543 0 0 0 -14.492 156.044 204.969 204.969 0 0 1 -57.951 8.313zm123.132 4.7a85.637 85.637 0 1 1 85.637-85.636 85.733 85.733 0 0 1 -85.637 85.635zm70.218-17.869 5.285 5.285-2.451 2.451-5.285-5.285q1.244-1.205 2.451-2.452zm2.543 25 20-20.006 6.159 6.159-20.006 20zm71.911 51.9a14.162 14.162 0 0 1 -20.006 0l-37.261-37.262 20.006-20 37.261 37.262a14.146 14.146 0 0 1 0 20z"/><path d="m345.689 271.813a74.373 74.373 0 1 0 74.373 74.373 74.458 74.458 0 0 0 -74.373-74.373zm0 12a61.983 61.983 0 0 1 33.806 10 41.968 41.968 0 0 0 -3 5.62l-1.309 3.2a22.193 22.193 0 0 1 -20.129 13.367h-21.766a4.3 4.3 0 0 1 -4.09-3.931l-.87-8.814a41.79 41.79 0 0 0 -4.668-15.412 62.032 62.032 0 0 1 22.026-4.03zm-62.372 62.373a62.381 62.381 0 0 1 29.605-53.041 29.441 29.441 0 0 1 3.468 11.2l.87 8.921a16.254 16.254 0 0 0 16.031 14.734h21.766a34.2 34.2 0 0 0 31.118-20.55l1.309-3.095a31.9 31.9 0 0 1 1.524-2.981 62.618 62.618 0 0 1 13.487 19.1 204.679 204.679 0 0 1 -82.967 82.306 62.444 62.444 0 0 1 -36.211-56.594zm62.372 62.372a62.535 62.535 0 0 1 -10.507-.9 216.34 216.34 0 0 0 72.063-71.494 62.338 62.338 0 0 1 -61.556 72.4z"/></g></svg>