<?xml version="1.0" encoding="iso-8859-1"?>
<!-- Generator: Adobe Illustrator 21.0.0, SVG Export Plug-In . SVG Version: 6.00 Build 0)  -->
<svg version="1.1" id="Capa_1" xmlns="http://www.w3.org/2000/svg" xmlns:xlink="http://www.w3.org/1999/xlink" x="0px" y="0px"
	 viewBox="0 0 602.692 602.692" style="enable-background:new 0 0 602.692 602.692;" xml:space="preserve">
<g>
	<g>
		<g>
			<g id="filled_outline_9_">
				<path style="fill:#4398D1;" d="M301.346,100.445c-27.733,0-50.223-22.49-50.223-50.223S273.613,0,301.346,0
					s50.223,22.49,50.223,50.223C351.538,77.946,329.069,100.415,301.346,100.445z M301.346,20.089
					c-16.644,0-30.134,13.49-30.134,30.134s13.49,30.134,30.134,30.134s30.134-13.49,30.134-30.134S317.99,20.089,301.346,20.089z"
					/>
				<circle style="fill:#4398D1;" cx="301.346" cy="341.514" r="251.113"/>
				<path style="fill:#3E8CC7;" d="M478.481,163.545L123.377,518.649c96.93,99.19,255.914,101.018,355.104,4.088
					s101.018-255.914,4.088-355.104C481.223,166.257,479.857,164.891,478.481,163.545z"/>
				<circle style="fill:#71C4D1;" cx="301.346" cy="341.514" r="200.891"/>
				<circle style="fill:#87CED9;" cx="301.346" cy="341.514" r="170.757"/>
				<polygon style="fill:#DE4C3C;" points="271.212,311.38 190.856,452.004 331.479,371.647 411.836,231.024 				"/>
				<polygon style="fill:#C94536;" points="190.856,452.004 331.479,371.647 271.212,311.38 				"/>
				<rect x="291.301" y="331.469" style="fill:#7A4930;" width="20.089" height="20.089"/>
				<path d="M40.188,341.514c-0.01,144.229,116.898,261.168,261.138,261.178c144.239,0.01,261.168-116.898,261.178-261.128
					c0.01-129.705-95.162-239.753-223.511-258.456c8.066-9.06,12.536-20.762,12.576-32.886C351.568,22.49,329.079,0,301.346,0
					c-27.733,0-50.223,22.49-50.223,50.223c0.04,12.124,4.52,23.826,12.576,32.886C135.45,101.952,40.359,211.889,40.188,341.514z
					 M271.212,50.223c0-16.644,13.49-30.134,30.134-30.134s30.134,13.49,30.134,30.134s-13.49,30.134-30.134,30.134
					S271.212,66.866,271.212,50.223z M301.346,100.445c133.14,0,241.069,107.928,241.069,241.069S434.486,582.583,301.346,582.583
					S60.277,474.654,60.277,341.514C60.438,208.444,168.276,100.596,301.346,100.445z"/>
				<path d="M301.346,552.449c116.496,0,210.935-94.439,210.935-210.935s-94.439-210.935-210.935-210.935
					S90.411,225.017,90.411,341.514C90.541,457.95,184.91,552.318,301.346,552.449z M301.346,150.668
					c105.397,0,190.846,85.449,190.846,190.846S406.743,532.36,301.346,532.36S110.5,446.911,110.5,341.514
					C110.62,236.157,195.999,150.788,301.346,150.668z"/>
				<path d="M236.689,351.558l-54.552,95.423c-2.802,4.791-1.185,10.938,3.606,13.741c3.134,1.828,7.011,1.828,10.135,0
					l95.423-54.552v106.1h20.089V394.69l18.412-10.517l85.188,85.188l14.203-14.213l-85.188-85.178l10.517-18.412h107.537v-20.089
					h-96.056l54.552-95.423c2.802-4.791,1.185-10.938-3.606-13.741c-3.134-1.828-7.011-1.828-10.135,0l-95.423,54.552v-106.1
					h-20.089v117.581l-18.412,10.517l-85.188-85.188l-14.203,14.213l85.188,85.178l-10.517,18.412H140.633v20.089H236.689z
					 M384.836,258.024l-60.719,106.261l-106.261,60.719l60.719-106.261L384.836,258.024z"/>
				<rect x="291.301" y="331.469" width="20.089" height="20.089"/>
			</g>
		</g>
	</g>
</g>
<g>
</g>
<g>
</g>
<g>
</g>
<g>
</g>
<g>
</g>
<g>
</g>
<g>
</g>
<g>
</g>
<g>
</g>
<g>
</g>
<g>
</g>
<g>
</g>
<g>
</g>
<g>
</g>
<g>
</g>
</svg>
