<svg id="Capa_1" enable-background="new 0 0 512 512" height="512" viewBox="0 0 512 512" width="512" xmlns="http://www.w3.org/2000/svg"><g><path d="m413.5 82.5-30 60 60-30v-30z" fill="#ff3a2f"/><path d="m256 82.5h157.5v60h-157.5z" fill="#ff5a35"/><path d="m256 112.5h157.5v173.5h-157.5z" fill="#ff3a2f"/><path d="m398.5 148.713v137.287h30v-137.287c0-13.583 5.396-26.609 15-36.213h-30c-9.604 9.604-15 22.631-15 36.213z" fill="#e8201a"/><path d="m211 211-30 75h90l-30-105c-16.569 0-30 13.431-30 30z" fill="#b25237"/><path d="m173.5 7.5h-30l-15 131.346 45-30z" fill="#9e3e2f"/><path d="m143.5 7.5h-30v101.346l30 30z" fill="#b25237"/><path d="m173.5 108.85v60h-60l30-60z" fill="#21ad71"/><path d="m113.5 108.85h30v60h-30z" fill="#5cc563"/><path d="m211 211h-135c0-17.55 6.15-34.54 17.38-48.01l20.12-24.14h60l20.12 24.14c11.23 13.47 17.38 30.46 17.38 48.01z" fill="#21ad71"/><path d="m181 211-75 75h105v-75z" fill="#ffe8c2"/><path d="m76 211h105v75h-105z" fill="#fff5e5"/><path d="m76 241c-16.569 0-30 13.431-30 30l30 30 30-30c0-16.569-13.432-30-30-30z" fill="#ff3a2f"/><path d="m136 241c-16.569 0-30 13.431-30 30l30 30 30-30c0-16.569-13.432-30-30-30z" fill="#e8201a"/><path d="m383.5 188.5v142.5l82.5-60c0-45.563-36.936-82.5-82.5-82.5z" fill="#ff64ad"/><path d="m383.5 188.5c-45.563 0-82.5 36.937-82.5 82.5l82.5 60 52.5-60c0-45.563-23.505-82.5-52.5-82.5z" fill="#ff85b2"/><path d="m256 301 110.318 203.5h30c28.145 0 52.508-19.564 58.585-47.045l24.646-111.455z" fill="#f2bc79"/><path d="m424.903 457.455 24.646-111.455-193.549-45-223.549 45 24.646 111.455c6.077 27.481 30.439 47.045 58.585 47.045h250.637c28.145 0 52.507-19.564 58.584-47.045z" fill="#ffd78c"/><path d="m479.549 346 9.951-45v-15h-39.951v60z" fill="#d98550"/><path d="m459.5 301v-15h-437v15l9.951 45h417.098z" fill="#de985f"/><path d="m489.5 271h-30v30h30c8.284 0 15-6.716 15-15s-6.716-15-15-15z" fill="#de985f"/><path d="m474.5 286c0-8.284-6.716-15-15-15h-437c-8.284 0-15 6.716-15 15s6.716 15 15 15h437c8.284 0 15-6.716 15-15z" fill="#f2bc79"/><path d="m241 301v-278.5c0-8.284 6.716-15 15-15s15 6.716 15 15v278.5c0 8.284-6.716 15-15 15s-15-6.716-15-15z" fill="#ffd78c"/><path d="m512 286c0-12.407-10.093-22.5-22.5-22.5h-16.315c-2.235-26.955-16.398-50.575-37.185-65.556v-49.231c0-11.676 4.547-22.654 12.803-30.91 1.407-1.406 2.197-3.314 2.197-5.303v-30c0-4.142-3.358-7.5-7.5-7.5h-165v-52.5c0-12.407-10.093-22.5-22.5-22.5s-22.5 10.093-22.5 22.5v151.763c-7.48 1.525-14.154 5.281-19.299 10.544-3.234-9.652-8.227-18.706-14.823-26.621l-18.378-22.055v-128.631c0-4.142-3.358-7.5-7.5-7.5h-60c-4.142 0-7.5 3.358-7.5 7.5v128.631l-18.378 22.054c-12.331 14.797-19.122 33.554-19.122 52.815v23.255c-14.672 2.99-26.255 14.573-29.245 29.245h-16.755c-12.407 0-22.5 10.093-22.5 22.5 0 10.251 6.891 18.923 16.284 21.627l33.489 151.447c3.307 14.953 11.704 28.468 23.644 38.057s26.951 14.869 42.265 14.869h280.637c15.314 0 30.324-5.281 42.264-14.869s20.337-23.104 23.644-38.057l33.491-151.455c9.391-2.705 16.282-11.369 16.282-21.619zm-53.876-22.5h-149.248c3.775-37.846 35.8-67.5 74.624-67.5s70.849 29.654 74.624 67.5zm-74.624-82.5c-47.1 0-85.861 36.37-89.685 82.5h-15.315v-143.5h149.98c-4.878 8.672-7.48 18.491-7.48 28.713v40.481c-11.422-5.256-24.124-8.194-37.5-8.194zm52.5-91v15h-157.5v-15zm-187.5-67.5c0-4.136 3.364-7.5 7.5-7.5s7.5 3.364 7.5 7.5v278.5c0 4.136-3.364 7.5-7.5 7.5s-7.5-3.364-7.5-7.5zm-15 167.29v73.71h-15v-52.5c0-9.778 6.271-18.114 15-21.21zm-60.755 73.71c-3.484-17.096-18.635-30-36.745-30-12.254 0-23.153 5.909-30 15.026-5.412-7.207-13.356-12.408-22.5-14.271v-15.755h120v45zm-15.535 0h-42.42c3.096-8.729 11.432-15 21.21-15s18.114 6.271 21.21 15zm8.79-132.154h-45v-15h45zm0-116.346v86.346h-45v-86.346zm-66.855 152.788 17.868-21.441h52.974l17.868 21.441c8.479 10.175 13.74 22.64 15.209 35.712h-119.128c1.469-13.073 6.73-25.538 15.209-35.712zm-23.145 80.712c9.778 0 18.114 6.271 21.21 15h-42.42c3.096-8.729 11.432-15 21.21-15zm-53.5 45c-4.136 0-7.5-3.364-7.5-7.5s3.364-7.5 7.5-7.5h211v15h-181c-4.142 0-7.5 3.358-7.5 7.5s3.358 7.5 7.5 7.5h182.29c3.096 8.729 11.432 15 21.21 15s18.114-6.271 21.21-15h202.95l-6.634 30h-435.052l-8.65-39.119c-.761-3.436-3.806-5.881-7.324-5.881zm425.08 162.335c-5.359 24.238-26.439 41.165-51.262 41.165h-280.636c-24.823 0-45.902-16.927-51.262-41.164l-22.629-102.336h428.419zm41.92-162.335h-211v-15h211c4.136 0 7.5 3.364 7.5 7.5s-3.364 7.5-7.5 7.5z"/></g></svg>