<?xml version="1.0" encoding="UTF-8" standalone="no"?>
<!-- Created with Inkscape (http://www.inkscape.org/) -->

<svg
   xmlns:dc="http://purl.org/dc/elements/1.1/"
   xmlns:cc="http://creativecommons.org/ns#"
   xmlns:rdf="http://www.w3.org/1999/02/22-rdf-syntax-ns#"
   xmlns:svg="http://www.w3.org/2000/svg"
   xmlns="http://www.w3.org/2000/svg"
   xmlns:sodipodi="http://sodipodi.sourceforge.net/DTD/sodipodi-0.dtd"
   xmlns:inkscape="http://www.inkscape.org/namespaces/inkscape"
   width="800"
   height="800"
   viewBox="0 0 211.66667 211.66667"
   version="1.1"
   id="svg8"
   inkscape:version="0.92.5 (2060ec1f9f, 2020-04-08)"
   sodipodi:docname="desenhando.svg">
  <defs
     id="defs2" />
  <sodipodi:namedview
     id="base"
     pagecolor="#ffffff"
     bordercolor="#666666"
     borderopacity="1.0"
     inkscape:pageopacity="0.0"
     inkscape:pageshadow="2"
     inkscape:zoom="0.49497475"
     inkscape:cx="438.88639"
     inkscape:cy="549.84934"
     inkscape:document-units="px"
     inkscape:current-layer="g3488"
     showgrid="false"
     units="px"
     inkscape:window-width="1920"
     inkscape:window-height="1031"
     inkscape:window-x="1360"
     inkscape:window-y="22"
     inkscape:window-maximized="1" />
  <metadata
     id="metadata5">
    <rdf:RDF>
      <cc:Work
         rdf:about="">
        <dc:format>image/svg+xml</dc:format>
        <dc:type
           rdf:resource="http://purl.org/dc/dcmitype/StillImage" />
        <dc:title></dc:title>
      </cc:Work>
    </rdf:RDF>
  </metadata>
  <g
     inkscape:label="Camada 1"
     inkscape:groupmode="layer"
     id="layer1"
     transform="translate(0,-85.333352)">
    <g
       id="g3488"
       transform="translate(-128.69028,5.8799296)">
      <g
         id="g3820"
         transform="translate(11.759857,-21.381563)">
        <g
           id="g4016"
           transform="matrix(1.8103942,0,0,1.8103942,-174.47274,-137.88685)">
          <path
             sodipodi:nodetypes="csccccssccccsssccccscsccccscccccsssccsscscccccccscccccssccccccscsssscscccccccccsccccscssscccscccccccsscccccssscccccsscccscsssccccccccsccscsccsccccccccccsssccccscscccsscscccsccsccc"
             inkscape:connector-curvature="0"
             id="path3834"
             d="m 209.79479,242.37262 c 0.3638,-0.245 1.13771,-0.81912 1.71979,-1.27582 0.58208,-0.45669 1.95906,-1.26095 3.05994,-1.78724 2.20912,-1.05609 4.34294,-3.05624 4.6243,-4.33463 0.0908,-0.41276 0.20429,-0.88178 0.25212,-1.04228 0.0478,-0.16049 0.90108,-0.37504 1.89613,-0.47676 6.9227,-0.70772 15.12875,-3.84775 20.97926,-8.02767 4.36357,-3.11757 8.823,-7.70414 11.77025,-12.10584 1.68222,-2.51239 4.10656,-7.43383 5.05615,-10.26405 0.66414,-1.97945 0.87928,-2.34754 1.44206,-2.46726 8.58404,-1.82611 11.94143,-4.48487 12.33618,-9.76918 0.49391,-6.61184 -3.36448,-19.74348 -8.82039,-30.0193 -3.38902,-6.38296 -8.1825,-13.3256 -11.761,-17.03404 -2.13282,-2.21028 -2.5078,-2.3451 -4.16747,-1.4984 -1.77571,0.90591 -3.19774,3.03888 -3.19774,4.79645 0,0.77401 -0.0516,0.82093 -0.7276,0.66163 -2.3608,-0.55633 -2.82306,-0.51051 -3.76958,0.37368 l -0.9087,0.84884 -2.78716,-1.39106 c -3.2053,-1.59975 -6.0248,-2.67413 -9.36909,-3.57012 -1.39157,-0.37283 -3.0627,-1.0596 -4.10105,-1.68537 -3.96998,-2.39257 -6.98721,-3.30726 -10.3514,-3.13809 -2.43037,0.1222 -3.46424,0.54347 -9.03208,3.68029 l -2.28521,1.28744 -2.60959,0.002 c -8.14752,0.007 -18.98822,1.86134 -23.75332,4.06296 -2.06877,0.95583 -2.53647,1.47343 -2.53647,2.80709 0,1.78321 2.01205,4.20177 5.82083,6.99685 0.94589,0.69414 1.75365,1.29461 1.79502,1.33436 0.0414,0.0398 -0.8426,1.42749 -1.96438,3.08386 -9.25909,13.67143 -10.5233,30.75039 -3.37974,45.6591 l 1.41831,2.96002 -0.70646,1.53789 c -1.52577,3.32145 -1.0383,5.69163 1.75838,8.54976 3.94253,4.02916 11.27664,7.17028 19.79095,8.47625 1.65644,0.25407 2.03985,0.42194 2.878,1.26009 0.93894,0.93894 0.95459,0.98633 0.5398,1.63439 -0.23495,0.36707 -0.73917,1.30136 -1.12049,2.07618 -0.68283,1.38747 -0.68662,1.42629 -0.25084,2.56736 0.45908,1.20208 1.84253,2.62504 2.96828,3.05305 0.35711,0.13577 1.20258,0.24686 1.87882,0.24686 1.07721,0 1.3624,0.13039 2.302,1.05254 1.25216,1.22891 2.3572,1.52171 3.31319,0.87791 z m 8.52722,-12.62865 c -1.00733,-3.76629 -3.5498,-8.21823 -6.63008,-11.60948 -1.48572,-1.6357 -2.00022,-2.4648 -3.0181,-4.86347 -0.67488,-1.59039 -1.2643,-3.06288 -1.30982,-3.27221 -0.0681,-0.31299 0.65827,-0.41095 4.08877,-0.55144 4.86201,-0.19912 5.37282,-0.29475 5.56834,-1.0424 0.30772,-1.17675 0.15002,-1.2173 -5.32186,-1.36827 -2.86647,-0.0791 -5.40922,-0.22376 -5.65056,-0.3215 -0.24134,-0.0977 -0.58895,-0.54023 -0.77248,-0.9833 -0.18353,-0.44308 -0.75998,-1.22448 -1.281,-1.73646 -0.98477,-0.96768 -3.76675,-2.44645 -4.60316,-2.44681 -0.59266,-2.5e-4 -0.50798,0.32984 0.89133,3.47437 0.94603,2.12592 2.20803,6.29824 1.97539,6.53087 -0.0564,0.0565 -0.69958,-0.0956 -1.42918,-0.33797 -1.65471,-0.54961 -3.29827,-0.46091 -3.42058,0.18461 -0.067,0.3534 0.56786,0.76598 2.75157,1.78825 1.56123,0.73087 2.7783,1.38918 2.70458,1.46289 -0.0737,0.0737 -0.83667,0.31443 -1.69544,0.53492 -2.15748,0.55392 -4.04642,1.51527 -5.51176,2.80511 -1.15122,1.01334 -1.28741,1.0667 -1.89393,0.74211 -0.35943,-0.19236 -1.65545,-1.3316 -2.88004,-2.53163 -2.0614,-2.02006 -3.31421,-3.78988 -3.31421,-4.68191 0,-0.7127 1.38078,-2.9522 3.06577,-4.9724 3.2325,-3.87556 11.98967,-11.87859 12.99793,-11.87859 0.26666,0 1.43461,0.36581 2.59546,0.81292 5.02605,1.93582 10.30746,3.08004 15.40346,3.33718 l 3.23867,0.16342 0.49717,0.84264 c 0.27345,0.46346 0.69778,1.1488 0.94295,1.52299 l 0.44578,0.68034 -2.39759,1.64215 c -1.31868,0.90318 -2.69439,1.99486 -3.05714,2.42596 -1.27946,1.52055 -0.74286,3.90349 2.3614,10.48667 0.95786,2.03131 1.73894,3.91447 1.73574,4.18482 -0.003,0.27034 -0.24132,1.01055 -0.52916,1.6449 -0.71045,1.56569 -0.68358,2.15392 0.0984,2.15392 1.33888,0 4.43453,-2.9459 4.91541,-4.67762 0.40563,-1.46076 0.35064,-4.2517 -0.15616,-7.92645 -0.42999,-3.11775 -0.42776,-3.25653 0.0764,-4.76055 l 0.51928,-1.54919 1.42545,-0.20514 c 0.784,-0.11283 1.5171,-0.11349 1.62912,-0.002 0.11201,0.11202 0.81463,1.69173 1.56138,3.51049 2.87154,6.99381 3.51801,7.77201 7.24914,8.72627 3.96504,1.01409 4.73455,0.5448 2.60256,-1.58719 l -1.31339,-1.31339 -0.17462,-3.24381 c -0.19217,-3.56963 -0.53377,-6.03484 -0.98895,-7.13691 -0.35946,-0.87029 -2.09574,-2.01933 -4.88245,-3.2311 -2.14302,-0.93186 -2.30362,-1.11132 -2.58103,-2.88408 l -0.15844,-1.01245 2.69864,0.18152 c 1.48424,0.0998 2.84034,0.31731 3.01354,0.48328 0.35864,0.34366 2.17049,5.56809 4.8761,14.06009 l 1.85455,5.82084 -2.2462,2.15267 c -4.56692,4.37676 -10.84902,7.8445 -17.44816,9.63145 -2.83578,0.76789 -5.59104,1.25002 -7.33851,1.28413 l -1.46648,0.0286 -0.31378,-1.1732 z m -21.22381,-8.33999 -0.65805,-0.5056 0.65265,-0.69472 c 1.51039,-1.60773 5.6592,-3.01963 8.93167,-3.03958 1.56706,-0.01 0.89058,0.44454 -0.91318,0.61298 -2.27853,0.21277 -4.35072,1.21949 -5.89984,2.86629 -0.65484,0.69613 -1.25015,1.26582 -1.32291,1.26596 -0.0728,1.4e-4 -0.42842,-0.22726 -0.79034,-0.50533 z m 46.80052,-27.66077 c -1.16854,-2.76489 -2.1901,-5.23544 -2.27013,-5.4901 -0.12717,-0.40464 0.0502,-0.46347 1.40669,-0.46662 3.79644,-0.009 11.90604,-0.5534 13.64754,-0.91652 1.24594,-0.25978 2.11748,-0.60649 2.50362,-0.99597 0.74671,-0.75317 1.31599,-2.93508 1.70744,-6.54429 0.29113,-2.68419 0.34158,-2.83874 1.06161,-3.25198 0.4193,-0.24064 0.75596,-0.66058 0.75596,-0.94294 0,-0.27999 0.14883,-0.62688 0.33073,-0.77086 0.29022,-0.22973 3.21399,-1.39051 3.50241,-1.39051 0.06,0 0.53699,1.32355 1.05995,2.94123 2.7127,8.39124 3.47097,15.16138 1.97009,17.58986 -2.03205,3.28792 -10.19878,5.40566 -20.43276,5.29846 l -3.11854,-0.0327 z m -5.86921,1.56081 c -0.98751,-0.0994 -1.76142,-0.26474 -1.71979,-0.36754 0.0416,-0.1028 0.86114,-1.04353 1.82113,-2.0905 l 1.74543,-1.9036 0.79936,1.79729 c 0.43964,0.98851 0.88813,2.08257 0.99663,2.43123 0.18972,0.60967 0.15813,0.62781 -0.825,0.47385 -0.56225,-0.088 -1.83024,-0.24138 -2.81776,-0.34073 z m -16.06389,-6.32093 c 1.23693,-0.34117 2.82438,-0.86822 3.52767,-1.17124 1.41512,-0.6097 1.764,-0.67014 1.764,-0.30558 0,0.13495 -0.92274,0.59885 -2.05052,1.03091 -2.53515,0.97121 -2.81902,1.04086 -4.29948,1.05492 -1.09648,0.0104 -1.01279,-0.0377 1.05833,-0.60901 z m 41.01042,-18.25325 c 0,-0.49959 0.25368,-0.7855 1.06355,-1.19866 1.00523,-0.51284 1.07276,-0.51676 1.23142,-0.0715 0.0923,0.25908 0.21736,0.56245 0.27786,0.67415 0.0995,0.18379 -1.89816,1.23236 -2.3744,1.24631 -0.10914,0.003 -0.19843,-0.28943 -0.19843,-0.65027 z m -58.07529,-10.98322 c -0.23742,-0.74803 -0.0281,-0.97251 1.73878,-1.86441 3.66419,-1.84968 6.57958,-2.55587 8.82198,-2.13695 1.09821,0.20517 2.53536,1.12572 2.53536,1.624 0,0.0982 -1.22039,0.25205 -2.71198,0.34183 -2.80097,0.16858 -6.52681,1.03175 -8.6651,2.00744 -1.47588,0.67343 -1.51402,0.67405 -1.71904,0.0281 z m -2.1033,-5.26599 c -0.91484,-1.81663 -0.9162,-1.82469 -0.33406,-1.98077 0.77111,-0.20674 7.26334,-0.15144 9.44806,0.0805 1.89204,0.20085 1.76784,0.32623 -0.79375,0.80129 -1.72142,0.31924 -5.24697,1.69735 -6.38945,2.49757 -0.3341,0.23401 -0.69853,0.42548 -0.80984,0.42548 -0.11131,0 -0.61575,-0.82082 -1.12096,-1.82405 z m 18.56716,-3.84685 c -9.29303,-1.85191 -9.50047,-1.87134 -19.77191,-1.8525 -6.16263,0.0113 -11.56383,0.17554 -15.70609,0.47758 -3.47237,0.25319 -6.36735,0.4064 -6.43329,0.34046 -0.16185,-0.16185 2.01133,-0.83884 4.28001,-1.33332 5.18491,-1.13008 14.84676,-1.74644 27.42221,-1.74934 5.42735,-0.001 6.81195,-0.0725 6.92083,-0.35629 0.0749,-0.1951 0.0541,-0.4875 -0.0462,-0.64978 -0.30946,-0.50072 -3.18397,-1.10849 -6.64785,-1.4056 -1.81901,-0.15602 -3.34911,-0.32462 -3.40021,-0.37467 -0.18646,-0.1826 3.13316,-1.71035 4.26993,-1.96511 3.38994,-0.7597 9.92027,2.08845 13.88971,6.0579 1.77886,1.77886 2.49105,3.09146 1.88539,3.47487 -0.63984,0.40504 -1.9548,0.27395 -6.6625,-0.6642 z"
             style="fill: #a8b9ca;
  stroke-width: 0.26458332;" />
          <path
             sodipodi:nodetypes="scccsssccscsscscccccssscsscccccscccccssccccscscssccsscscccsscssccsscsscccccccscscccsccccsccccsccsccccccssccccccsscsccccscsccscccscssccsccsccccscscccccssccscccccccscccsscccccccsscsssccsscccccccsccscsscss"
             inkscape:connector-curvature="0"
             id="path3832"
             d="m 210.19639,241.86047 c 0.57948,-0.38411 1.35126,-0.97084 1.71506,-1.30384 0.36381,-0.33301 1.31631,-0.86173 2.11667,-1.17494 2.58154,-1.01024 4.95538,-3.29315 5.08778,-4.89289 0.0745,-0.89997 0.44549,-1.0776 2.71743,-1.30106 5.65584,-0.55626 12.97972,-3.16776 18.37598,-6.55237 4.60399,-2.88768 9.7615,-7.79183 13.038,-12.39749 2.06175,-2.89813 4.57212,-7.80293 5.76225,-11.25836 l 0.82846,-2.40536 2.82578,-0.69637 c 5.48474,-1.35164 8.81692,-3.62367 9.70617,-6.61811 1.63087,-5.49174 -1.66739,-18.88619 -7.53074,-30.58284 -4.88672,-9.7484 -12.93134,-20.65966 -15.23188,-20.65966 -2.00646,0 -4.33424,2.65994 -4.43003,5.06216 -0.0398,0.99736 -0.0839,1.05304 -0.71299,0.89987 -0.36882,-0.0898 -1.21685,-0.23113 -1.8845,-0.31407 -1.08427,-0.1347 -1.31198,-0.0647 -2.13215,0.65542 l -0.91824,0.80623 -3.08486,-1.54578 c -3.02855,-1.51756 -6.32046,-2.73477 -9.70343,-3.58792 -0.93873,-0.23674 -2.54607,-0.93422 -3.57188,-1.54997 -3.18164,-1.90979 -5.90527,-2.9098 -8.75692,-3.21519 -2.3268,-0.24917 -4.4044,0.43407 -8.79178,2.89133 l -3.51275,1.9674 -3.49871,0.17172 c -5.45756,0.26787 -11.1285,0.89 -14.74349,1.61745 -3.6161,0.72766 -8.34533,2.20968 -9.67639,3.03232 -1.16461,0.71977 -1.58032,1.79226 -1.17303,3.02635 0.41307,1.25161 2.6921,3.68659 5.23581,5.59406 1.12295,0.84208 2.14943,1.62016 2.28105,1.72905 0.13179,0.10903 -0.23383,0.82751 -0.81374,1.59909 -5.82391,7.74874 -9.08287,17.53853 -9.08287,27.28461 0,6.977 1.43158,13.23077 4.50858,19.69547 l 1.54482,3.24565 -0.8147,1.74099 c -1.37567,2.93973 -1.11717,4.79399 1.03947,7.45623 3.37816,4.17016 12.26473,8.08278 20.89929,9.20164 1.12706,0.14604 1.57649,0.37093 2.4474,1.22463 0.58675,0.57516 1.06681,1.09794 1.06681,1.16174 0,0.0638 -0.40988,0.73924 -0.91085,1.50098 -1.12889,1.71655 -1.34185,2.55235 -0.95163,3.73474 0.61648,1.86796 3.45039,3.6144 5.1662,3.18376 0.55804,-0.14006 0.90819,0.0455 1.98295,1.05081 1.51486,1.41697 2.10279,1.50274 3.5816,0.52252 z m 7.65263,-12.86153 c -1.92413,-5.82954 -6.07319,-11.56923 -10.52002,-14.55308 l -1.87446,-1.25778 -0.83695,-2.84327 c -1.46419,-4.97411 -3.01288,-7.73805 -4.33578,-7.73805 -0.7269,0 -0.68446,0.40458 0.26124,2.49027 0.79257,1.74799 2.19934,6.5024 1.98685,6.71489 -0.0603,0.0603 -0.87841,-0.14618 -1.81802,-0.45887 -1.7428,-0.57996 -3.08793,-0.53316 -3.08793,0.10746 0,0.18134 1.25016,0.93754 2.77813,1.68043 1.52797,0.74289 2.77812,1.45075 2.77812,1.57303 0,0.12228 -0.68461,0.36451 -1.52135,0.53829 -2.17139,0.45096 -4.42592,1.62084 -6.4531,3.34854 -1.8104,1.54296 -3.02295,3.39808 -3.68357,5.63564 -0.18827,0.63772 -0.49429,1.12448 -0.70692,1.12448 -0.83581,0 -5.90332,-2.19186 -7.88019,-3.40843 -2.34408,-1.44256 -5.02875,-4.06676 -5.31101,-5.19138 -0.44368,-1.76775 1.63986,-5.60315 5.08367,-9.35806 3.24197,-3.53483 8.19232,-7.86644 14.82221,-12.96958 l 2.15495,-1.6587 0.82999,0.4292 c 0.45649,0.23606 2.2252,0.9132 3.93047,1.50476 8.03337,2.78678 13.20665,3.92928 17.79199,3.92928 h 2.60038 l 0.9452,1.55596 c 0.51986,0.85578 0.9452,1.67236 0.9452,1.81462 0,0.14227 -0.68461,0.70816 -1.52135,1.25754 -4.01031,2.63305 -4.7636,3.64176 -4.30758,5.76812 0.37743,1.7599 1.85888,5.46659 3.48315,8.71509 0.70809,1.41619 1.28462,2.72588 1.28117,2.91042 -0.003,0.18455 -0.28478,1.01267 -0.62517,1.84027 -0.73383,1.7842 -0.51986,2.26563 0.7216,1.62365 1.40502,-0.72656 3.58857,-2.99447 3.87463,-4.0243 0.39681,-1.42852 0.32334,-5.73363 -0.14328,-8.39599 -0.42418,-2.4202 -0.36097,-3.44994 0.31557,-5.14077 0.35954,-0.89858 0.51368,-1.00309 1.88599,-1.27869 1.17218,-0.23541 1.56294,-0.22835 1.81203,0.0327 0.17466,0.18306 0.85787,1.66179 1.51823,3.28607 1.72028,4.23137 3.24693,7.15567 3.98976,7.64239 1.15843,0.75903 3.37074,1.46703 5.08396,1.62702 2.10154,0.19624 2.1453,-0.0392 0.35837,-1.92864 l -1.32291,-1.39879 -0.002,-2.33094 c -0.002,-2.89903 -0.57639,-6.83531 -1.16201,-7.96778 -0.35974,-0.69566 -1.04894,-1.14971 -3.7061,-2.44159 -3.18706,-1.54952 -3.26804,-1.61036 -3.42752,-2.57512 -0.36982,-2.23723 -0.40165,-2.20018 1.74907,-2.03607 1.05502,0.0805 2.41816,0.20678 3.0292,0.28061 l 1.11097,0.13425 3.03279,9.18009 c 1.66803,5.04905 3.11815,9.63743 3.22248,10.19641 0.18243,0.97741 0.13013,1.07683 -1.36563,2.59613 -3.26009,3.31137 -8.57169,6.72494 -13.46158,8.65126 -3.94654,1.55469 -9.38944,2.82714 -12.47984,2.91756 l -1.10275,0.0323 -0.72047,-2.18281 z m -4.91958,-19.78228 c 3.34619,-0.20292 4.26754,-0.52769 3.93745,-1.38791 -0.11384,-0.29664 -1.19805,-0.41313 -5.17382,-0.55587 -2.76639,-0.0993 -5.4058,-0.31165 -5.86534,-0.47185 -1.16875,-0.40742 -1.47197,-0.0393 -1.16585,1.41547 l 0.23927,1.13713 2.38067,0.0306 c 1.30937,0.0168 3.8508,-0.0586 5.64762,-0.16754 z m -18.55769,17.02437 c -0.55126,-0.15004 -0.46891,-0.58148 0.49621,-2.5999 2.23249,-4.66894 4.51582,-6.15946 9.8336,-6.41919 3.28021,-0.16022 3.6432,0.25194 0.60081,0.68219 -2.68954,0.38035 -4.45944,1.27619 -6.26627,3.1717 -1.34429,1.41027 -2.47048,3.58931 -2.47048,4.78009 0,0.851 -0.29317,0.90246 -2.19387,0.38511 z m 51.12735,-28.19834 c -0.18877,-0.47294 -1.1699,-2.82442 -2.18028,-5.22552 -2.20076,-5.2299 -2.65506,-6.61062 -2.21608,-6.73517 0.17036,-0.0483 1.97663,-0.46969 4.01392,-0.93633 6.34558,-1.45345 8.98315,-2.54486 10.16658,-4.20683 0.94367,-1.32526 1.81332,-3.49142 2.23745,-5.57314 0.40408,-1.98331 0.86885,-2.66294 2.10185,-3.07352 0.64529,-0.21488 0.7671,-0.0446 0.55957,0.78231 -0.12364,0.49261 -0.34728,0.69268 -0.77423,0.69268 -0.87028,0 -1.14161,0.46047 -1.8959,3.21747 -0.37184,1.35909 -0.73576,2.67403 -0.80872,2.9221 -0.0947,0.32208 0.0699,0.50187 0.57603,0.62889 1.23697,0.31046 1.8575,-0.21434 2.57899,-2.18112 0.54204,-1.4776 0.82164,-1.88591 1.52547,-2.22768 0.47398,-0.23016 1.00915,-0.76895 1.18926,-1.19731 0.25796,-0.61351 0.71218,-0.93147 2.13982,-1.49789 0.99679,-0.39548 1.89568,-0.6306 1.99753,-0.52249 0.10184,0.10812 0.67751,1.74439 1.27927,3.63616 2.38354,7.49326 3.16074,14.2907 1.91168,16.71957 -1.24021,2.41166 -5.41746,4.31287 -11.15861,5.07869 -1.23692,0.165 -2.54661,0.34206 -2.91041,0.39348 -0.36381,0.0514 -2.76038,0.1097 -5.32572,0.12952 l -4.66425,0.036 z m -7.39346,-2.59882 c -1.23669,-0.15877 -2.27222,-0.31237 -2.30118,-0.34133 -0.029,-0.029 0.88535,-1.0332 2.03182,-2.23163 1.14647,-1.19843 2.1511,-2.07119 2.23251,-1.93946 0.30638,0.49574 2.00516,4.58906 2.00516,4.83158 0,0.13921 -0.38695,0.18931 -0.85989,0.11131 -0.47294,-0.078 -1.87173,-0.2717 -3.10842,-0.43047 z m -19.1695,-5.75959 c 0.13825,-0.12237 1.3132,-0.49604 2.61102,-0.8304 1.29782,-0.33435 3.05163,-0.88908 3.89735,-1.23273 1.7762,-0.72173 2.07736,-0.76001 2.07736,-0.26407 0,0.42003 -2.44146,1.57084 -4.51525,2.12832 -1.55825,0.41889 -4.48034,0.56166 -4.07048,0.19888 z m 43.89113,-19.30478 c 0.16656,-0.52478 1.4667,-1.37483 2.10278,-1.37483 0.47663,0 0.88017,1.24041 0.52053,1.60004 -0.1311,0.13111 -0.71174,0.40422 -1.29031,0.60693 -0.89684,0.31422 -1.08358,0.31444 -1.26651,0.002 -0.11802,-0.20188 -0.14794,-0.57702 -0.0665,-0.83364 z m -62.02832,-8.11981 c 0,-0.36877 2.61284,-2.50241 5.1094,-4.17234 0.60096,-0.40197 2.04868,-1.11383 3.21715,-1.5819 1.90742,-0.76409 2.40381,-0.85162 4.85818,-0.85664 l 2.73368,-0.006 0.77205,0.86407 c 0.42462,0.47524 0.77204,0.98125 0.77204,1.12448 0,0.14888 -0.89655,0.26041 -2.09339,0.26041 -2.50989,0 -5.31097,0.50425 -7.82848,1.4093 -1.01865,0.3662 -2.2688,0.8128 -2.77813,0.99244 -1.29708,0.4575 -3.49728,1.5686 -3.9593,1.99946 -0.50496,0.4709 -0.8032,0.45839 -0.8032,-0.0337 z m -13.71822,-2.26218 c -5.13252,-2.43423 -11.80034,-7.60847 -11.3408,-8.80048 0.23366,-0.6061 3.59879,-2.0393 6.31574,-2.68987 6.24477,-1.49529 10.92486,-1.88839 25.6992,-2.15861 5.49924,-0.10058 10.05207,-0.26936 10.11739,-0.37506 0.43723,-0.70746 -2.87827,-1.49524 -7.34987,-1.74637 -1.70987,-0.096 -3.10885,-0.25562 -3.10885,-0.35465 0,-0.099 1.0437,-0.67604 2.31934,-1.28225 3.52021,-1.67289 5.52105,-1.52449 10.24837,0.76012 4.73845,2.29 9.18946,6.544 8.31947,7.95124 -0.34196,0.55314 -2.69299,0.41761 -9.11322,-0.52535 -9.21941,-1.35409 -13.9355,-1.35752 -22.03135,-0.0161 -3.44968,0.5716 -4.65076,1.12092 -4.77529,2.184 -0.078,0.66614 -0.0152,0.71473 0.92604,0.71565 0.95197,10e-4 1.04005,0.0724 1.53893,1.24795 0.29104,0.68582 0.56064,1.31557 0.5991,1.39944 0.11012,0.24009 -2.14037,2.78121 -3.5226,3.97753 -1.47098,1.27312 -1.56313,1.26765 -4.8416,-0.28724 z m 11.33858,-3.19054 c -0.64975,-1.17895 -1.45829,-2.44235 -1.79676,-2.80757 -0.33847,-0.36522 -0.57903,-0.7004 -0.53458,-0.74485 0.0444,-0.0444 1.15237,-0.21007 2.46205,-0.36804 1.30967,-0.15797 3.39326,-0.41562 4.63018,-0.57256 3.10498,-0.39394 11.1125,0.0278 11.1125,0.58523 0,0.12677 -0.30392,0.23049 -0.67537,0.23049 -2.47482,0 -9.14454,2.60741 -12.2892,4.80424 -0.80036,0.55913 -1.51646,1.0166 -1.59133,1.0166 -0.0749,0 -0.66774,-0.96459 -1.31749,-2.14354 z"
             style="fill: #9ea0a2;
  stroke-width: 0.26458332;" />
          <path
             sodipodi:nodetypes="ccsccsccsccscscscccscccccsscsccsccscccsscccccccccccccsscccsssccsccsscscsccccccsccccscsccccccsscccccscccccccsscscccccscsccscccsscccsscccccccccsccccccscccscccscsccsccccccscccccccscccsssccccccscc"
             inkscape:connector-curvature="0"
             id="path3830"
             d="m 209.48165,242.10694 c 0.44042,-0.21331 1.26037,-0.78123 1.82211,-1.26206 0.56174,-0.48082 1.81669,-1.23485 2.78878,-1.67562 2.98858,-1.35509 4.53281,-2.88387 4.94404,-4.89461 l 0.16743,-0.81861 3.69591,-0.59911 c 11.94678,-1.93657 22.25881,-8.15636 29.53579,-17.81476 2.33404,-3.09787 5.19403,-8.52928 6.44741,-12.24431 0.77452,-2.29567 0.79576,-2.32537 1.84292,-2.57712 6.46726,-1.55479 9.68188,-3.2691 11.00934,-5.87113 1.08763,-2.13194 1.07227,-7.01734 -0.0385,-12.24399 -0.74871,-3.52297 -3.27151,-11.09674 -5.09563,-15.29773 -3.50415,-8.07012 -9.17894,-17.06931 -14.11237,-22.37967 -1.70962,-1.84024 -2.11737,-2.14646 -2.8581,-2.14646 -1.88393,0 -4.01055,2.32823 -4.29122,4.69805 -0.0904,0.76305 -0.29258,1.38736 -0.44934,1.38736 -0.15677,0 -0.79285,-0.19394 -1.41353,-0.43097 -1.29319,-0.49388 -2.23846,-0.25402 -3.25241,0.82529 l -0.57903,0.61635 -3.08513,-1.5434 c -3.12402,-1.56285 -7.17555,-3.08573 -9.832,-3.69562 -0.80036,-0.18376 -2.46724,-0.91178 -3.70417,-1.61783 -4.13416,-2.35982 -7.29878,-3.31687 -10.2596,-3.1027 -1.68858,0.12214 -3.87111,1.04796 -8.26123,3.50436 l -2.51354,1.4064 -4.10104,0.1676 c -7.68425,0.31404 -15.21316,1.46681 -19.87765,3.04352 -4.8978,1.65557 -5.72741,2.5839 -4.48517,5.01887 0.59356,1.16348 3.51587,3.99437 5.66079,5.48372 0.82381,0.57202 1.49925,1.17916 1.50098,1.34919 0.002,0.17004 -0.91061,1.65832 -2.0274,3.30729 -9.15919,13.5238 -10.36981,30.61913 -3.21827,45.44576 1.24817,2.58772 1.32291,2.85163 1.01618,3.58839 -1.47813,3.55041 -1.61251,4.66163 -0.77334,6.39513 2.32767,4.80833 10.70124,9.24691 20.59231,10.91536 2.95257,0.49805 3.04335,0.53425 4.14828,1.65426 l 1.12964,1.14507 -1.03943,1.70161 c -0.57244,0.93713 -1.03942,2.04257 -1.03942,2.46054 0,2.31588 2.94587,4.61913 5.1881,4.05637 0.58134,-0.14591 0.8806,0.0155 1.84808,0.99685 1.36312,1.38265 1.89295,1.56971 2.96943,1.04836 z m 7.98899,-13.62212 c -1.60099,-4.55793 -3.57736,-7.6892 -6.95276,-11.0156 -1.08193,-1.06622 -2.72224,-2.43544 -3.64516,-3.04271 l -1.67802,-1.10413 -0.82042,-2.77812 c -1.01584,-3.43992 -2.4035,-6.48691 -3.26169,-7.16196 -1.3379,-1.05239 -1.43501,-0.51548 -0.34365,1.89984 1.26702,2.80406 2.26151,6.84987 1.68366,6.84948 -0.10914,-7e-5 -0.84113,-0.2444 -1.62665,-0.54296 -1.44644,-0.54976 -2.69366,-0.60156 -2.84982,-0.11836 -0.047,0.14552 1.22371,0.88875 2.82386,1.65162 1.60016,0.76287 2.90938,1.50161 2.90938,1.64165 0,0.14005 -0.44648,0.32945 -0.99219,0.42091 -3.10031,0.51958 -5.28811,1.632 -7.64319,3.8863 -1.56816,1.50106 -2.97747,3.80331 -3.41817,5.58391 -0.10196,0.41193 -0.3523,0.81303 -0.55633,0.89132 -0.52522,0.20154 -4.05024,-1.08949 -6.71576,-2.45963 -4.0142,-2.0634 -7.13269,-5.12844 -7.13269,-7.01042 0,-2.86509 4.41733,-8.65381 11.1125,-14.56242 3.38032,-2.9832 10.1427,-8.36292 11.00775,-8.75706 0.41592,-0.1895 0.83195,-0.11362 1.64163,0.29946 2.57812,1.31525 10.26099,3.8341 14.11412,4.62735 2.54232,0.52339 7.78471,1.04024 8.56491,0.84442 0.33708,-0.0846 0.78905,-0.0862 1.00439,-0.004 0.38942,0.14943 2.29636,3.02768 2.29636,3.46603 0,0.12634 -1.07537,0.98869 -2.38971,1.91636 -3.91744,2.76493 -4.15191,3.25289 -3.13893,6.53251 0.51961,1.68231 1.03624,2.87089 3.52271,8.10453 l 0.97213,2.0462 -0.66704,1.65143 c -0.41345,1.0236 -0.57306,1.74541 -0.41983,1.89864 0.47485,0.47485 3.57685,-2.00834 4.33127,-3.46723 0.6981,-1.34998 0.79374,-3.87812 0.28305,-7.48252 -0.55735,-3.9338 -0.54646,-4.81003 0.0808,-6.49945 l 0.4753,-1.28012 1.6711,-0.30222 c 2.01096,-0.36367 1.83406,-0.55137 3.62705,3.84846 2.46102,6.03912 3.19093,7.13385 5.27689,7.91431 1.83969,0.68832 4.41213,1.11659 4.75217,0.79117 0.15793,-0.15114 -0.20412,-0.71376 -0.96348,-1.49724 l -1.21649,-1.25512 -0.30017,-4.14233 c -0.39633,-5.46928 -0.7479,-6.63882 -2.2896,-7.61653 -0.64896,-0.41156 -2.14012,-1.14473 -3.3137,-1.62926 -1.17358,-0.48454 -2.22961,-1.06371 -2.34673,-1.28705 -0.11712,-0.22334 -0.29998,-1.05014 -0.40634,-1.83732 l -0.19338,-1.43124 2.97495,0.17022 c 1.63623,0.0936 3.13797,0.3055 3.3372,0.47084 0.36276,0.30107 6.24835,17.81555 6.57895,19.5778 0.16998,0.90609 0.10331,1.00431 -2.09291,3.08322 -5.93514,5.6181 -13.83787,9.35181 -22.78273,10.76387 -3.9527,0.62398 -3.72986,0.74019 -4.8846,-2.54728 z m -3.39988,-19.45612 c 2.093,-0.0964 2.8158,-0.45918 2.50881,-1.2592 -0.12841,-0.33461 -0.88167,-0.40213 -4.59367,-0.41177 -2.44204,-0.006 -4.97585,-0.11642 -5.6307,-0.24462 -1.44197,-0.28232 -1.69174,-0.0882 -1.38951,1.08002 l 0.23179,0.89592 3.42313,0.0165 c 1.88273,0.009 4.33529,-0.0255 5.45015,-0.0769 z m -19.95254,17.49091 c -0.59566,-0.17498 -0.58316,-0.56971 0.0706,-2.22828 1.8056,-4.58085 5.20383,-6.98937 10.3307,-7.32199 2.16699,-0.14058 3.42319,0.11255 3.42319,0.68979 0,0.11939 -0.8632,0.2853 -1.91823,0.36867 -5.09487,0.40264 -8.18417,3.12887 -9.31495,8.22024 -0.15704,0.70707 -0.22966,0.74384 -1.14796,0.5812 -0.53917,-0.0955 -1.18867,-0.23482 -1.44334,-0.30963 z m 52.51016,-17.43056 c -2.63607,-7.81458 -4.43791,-12.59676 -4.83985,-12.84517 -0.16733,-0.10342 -1.60332,-0.33766 -3.1911,-0.52054 -1.58777,-0.18289 -2.93025,-0.40558 -2.98328,-0.49487 -0.053,-0.0893 0.89604,-1.21201 2.10905,-2.49494 l 2.20547,-2.33261 0.5151,1.00969 c 2.15764,4.22936 8.77393,22.34569 8.77393,24.02423 0,1.06732 -0.51176,-0.18687 -2.58932,-6.34579 z m -2.87361,-14.81667 c -3.00061,-7.1574 -3.28736,-7.90313 -3.16327,-8.22648 0.0628,-0.16368 0.63041,-0.37851 1.26134,-0.47742 2.25666,-0.35374 7.79721,-1.80935 9.75914,-2.56392 1.21031,-0.46549 2.32514,-1.10756 2.82909,-1.62936 1.0744,-1.11246 2.38121,-3.92331 2.74854,-5.9119 0.3744,-2.02687 0.48238,-2.22099 1.71115,-3.0764 1.37062,-0.95415 1.69403,-0.92804 1.69403,0.13673 0,1.0269 -0.39862,1.50813 -1.24922,1.50813 -0.69261,0 -0.79799,0.20932 -1.6289,3.23556 -0.66213,2.41157 -0.68715,2.81823 -0.18527,3.01082 0.74631,0.28639 1.4352,-0.44013 2.12229,-2.23824 0.5986,-1.56651 0.81037,-1.85332 1.51838,-2.05637 0.7449,-0.21364 0.98351,-0.47343 1.53101,-1.66692 0.17871,-0.38956 2.96926,-1.57002 3.76842,-1.59412 0.35175,-0.0106 0.7154,0.80201 1.63005,3.64252 1.80686,5.61137 2.40687,8.81635 2.41134,12.88029 0.003,3.1586 -0.0473,3.52168 -0.62106,4.44462 -1.35613,2.18132 -5.40849,3.96388 -10.88454,4.78791 -3.7115,0.5585 -4.48345,0.60714 -9.20765,0.58017 l -4.04828,-0.0231 -1.99659,-4.7625 z m -25.45542,-4.3366 c -0.4364,-0.27652 -0.19466,-0.438 1.02044,-0.68165 1.58471,-0.31776 4.55547,-1.21922 6.31537,-1.91636 1.38087,-0.54701 1.72651,-0.60227 1.91417,-0.30605 0.39515,0.62372 0.27441,0.77058 -1.18156,1.43714 -2.8496,1.30459 -7.1039,2.07806 -8.06842,1.46692 z m 44.4121,-19.21475 c 0,-0.83954 0.11523,-0.98547 1.19076,-1.508 1.29421,-0.62878 1.5695,-0.53243 1.86193,0.65162 0.16406,0.6643 0.0793,0.77328 -0.97346,1.25096 -1.72089,0.78088 -2.07923,0.71287 -2.07923,-0.39458 z m -62.33982,-7.91799 c -0.24501,-0.63851 0.29952,-1.27231 2.45923,-2.86236 6.29736,-4.63634 12.90798,-6.04963 15.06557,-3.22089 0.38687,0.50721 0.62508,1.00052 0.52936,1.09624 -0.0957,0.0957 -1.33272,0.20719 -2.74888,0.24771 -1.4843,0.0425 -3.47131,0.30273 -4.6915,0.61448 -2.90386,0.74194 -7.18278,2.49021 -8.75255,3.57608 -1.48193,1.02511 -1.65845,1.07716 -1.86123,0.54874 z m -11.96297,-1.903 c -2.29146,-0.90404 -6.07577,-3.12157 -8.69431,-5.0947 -2.3588,-1.7774 -4.66444,-4.12358 -4.5234,-4.60292 0.18114,-0.61564 3.53481,-2.05218 6.558,-2.80912 6.28005,-1.57237 13.53842,-2.13589 27.5672,-2.14026 4.83925,-0.002 8.18308,-0.10408 8.27564,-0.25384 0.41368,-0.66935 -2.79201,-1.36473 -7.26784,-1.57655 -1.95085,-0.0923 -3.29456,-0.26467 -3.27624,-0.42022 0.0458,-0.38911 3.47682,-2.16702 4.92757,-2.55341 2.56448,-0.68302 6.70204,0.56707 10.81132,3.26644 3.35025,2.20076 5.79019,4.81361 5.79261,6.20309 0.002,1.14713 -1.54293,1.16376 -9.42808,0.10149 -9.75596,-1.3143 -13.46164,-1.31298 -21.79176,0.008 -3.37014,0.53435 -4.53687,1.02108 -4.72326,1.97044 -0.0809,0.41224 0.0397,0.45146 0.92604,0.30112 5.57643,-0.94582 9.7267,-1.27046 14.77743,-1.1559 5.33512,0.12102 6.21771,0.2408 6.21771,0.84384 0,0.21634 -0.6158,0.38227 -1.78594,0.48122 -3.03519,0.25668 -8.09984,2.41687 -11.67448,4.97944 -1.12714,0.80802 -1.53867,0.9825 -1.69503,0.71867 -0.11357,-0.19164 -0.77608,-1.35334 -1.47225,-2.58156 -1.31947,-2.32787 -2.47443,-3.50912 -2.9581,-3.02545 -0.18332,0.18332 -0.092,0.67171 0.28496,1.52385 0.52587,1.18883 0.53157,1.28943 0.10957,1.93347 -0.80351,1.22632 -4.27229,4.57938 -4.73741,4.57938 -0.25027,0 -1.24924,-0.31333 -2.21995,-0.6963 z"
             style="fill: #f59e49;
  stroke-width: 0.26458332;" />
          <path
             sodipodi:nodetypes="ccsccsccsccscscscccscccccsscsccsccscccssccccccsscccccscccccsscsccccccccccccccsscccsssccsccsscscsccccccsccccscsccccccsscccccscccccccsscscccccscsccscccsscccsscccccccccsccccccccsccsccsscccccccccscccsccccccccccccsccsccccccsscccsccscccccccccscccsccsccccsccccccccccsscccccccccccccsccsccccccscccccccscccsssccccccsccccscscc"
             inkscape:connector-curvature="0"
             id="path3828"
             d="m 209.48165,242.10694 c 0.44042,-0.21331 1.26037,-0.78123 1.82211,-1.26206 0.56174,-0.48082 1.81669,-1.23485 2.78878,-1.67562 2.98858,-1.35509 4.53281,-2.88387 4.94404,-4.89461 l 0.16743,-0.81861 3.69591,-0.59911 c 11.94678,-1.93657 22.25881,-8.15636 29.53579,-17.81476 2.33404,-3.09787 5.19403,-8.52928 6.44741,-12.24431 0.77452,-2.29567 0.79576,-2.32537 1.84292,-2.57712 6.46726,-1.55479 9.68188,-3.2691 11.00934,-5.87113 1.08763,-2.13194 1.07227,-7.01734 -0.0385,-12.24399 -0.74871,-3.52297 -3.27151,-11.09674 -5.09563,-15.29773 -3.50415,-8.07012 -9.17894,-17.06931 -14.11237,-22.37967 -1.70962,-1.84024 -2.11737,-2.14646 -2.8581,-2.14646 -1.88393,0 -4.01055,2.32823 -4.29122,4.69805 -0.0904,0.76305 -0.29258,1.38736 -0.44934,1.38736 -0.15677,0 -0.79285,-0.19394 -1.41353,-0.43097 -1.29319,-0.49388 -2.23846,-0.25402 -3.25241,0.82529 l -0.57903,0.61635 -3.08513,-1.5434 c -3.12402,-1.56285 -7.17555,-3.08573 -9.832,-3.69562 -0.80036,-0.18376 -2.46724,-0.91178 -3.70417,-1.61783 -4.13416,-2.35982 -7.29878,-3.31687 -10.2596,-3.1027 -1.68858,0.12214 -3.87111,1.04796 -8.26123,3.50436 l -2.51354,1.4064 -4.10104,0.1676 c -7.68425,0.31404 -15.21316,1.46681 -19.87765,3.04352 -4.8978,1.65557 -5.72741,2.5839 -4.48517,5.01887 0.59356,1.16348 3.51587,3.99437 5.66079,5.48372 0.82381,0.57202 1.49925,1.17916 1.50098,1.34919 0.002,0.17004 -0.91061,1.65832 -2.0274,3.30729 -9.15919,13.5238 -10.36981,30.61913 -3.21827,45.44576 1.24817,2.58772 1.32291,2.85163 1.01618,3.58839 -1.47813,3.55041 -1.61251,4.66163 -0.77334,6.39513 2.32767,4.80833 10.70124,9.24691 20.59231,10.91536 2.95257,0.49805 3.04335,0.53425 4.14828,1.65426 l 1.12964,1.14507 -1.03943,1.70161 c -0.57244,0.93713 -1.03942,2.04257 -1.03942,2.46054 0,2.31588 2.94587,4.61913 5.1881,4.05637 0.58134,-0.14591 0.8806,0.0155 1.84808,0.99685 1.36312,1.38265 1.89295,1.56971 2.96943,1.04836 z m 1.72988,-7.00137 c -0.16668,-0.13117 -0.38134,-0.6558 -0.47703,-1.16584 -0.0957,-0.51004 -0.41281,-1.48454 -0.70472,-2.16554 -0.48983,-1.14273 -0.4971,-1.2628 -0.0943,-1.55734 1.04423,-0.76356 -0.33474,-1.94551 -2.26982,-1.94551 -1.32687,0 -1.33751,0.26342 -0.12307,3.04543 1.01834,2.33278 1.12579,2.98118 0.5318,3.20912 -0.94925,0.36426 -1.61008,-0.14386 -2.36004,-1.81463 -0.41027,-0.91399 -0.85138,-1.84039 -0.98026,-2.05867 -0.72138,-1.22183 -2.35963,-3.6651 -3.33705,-4.97688 -0.61694,-0.82798 -1.12295,-1.75725 -1.12448,-2.06504 -0.008,-1.57708 2.81481,-3.29941 5.71194,-3.48533 3.05331,-0.19595 4.3143,0.0945 5.3974,1.24314 1.42904,1.51555 3.17789,4.82595 4.26071,8.06511 1.24587,3.72688 1.40867,4.66782 0.92267,5.33248 -0.48819,0.66763 -0.69566,0.43061 -0.98452,-1.1247 -0.12963,-0.69794 -0.56177,-1.92383 -0.96031,-2.7242 -0.39855,-0.80036 -0.72463,-1.81239 -0.72463,-2.24896 0,-0.77377 -0.0359,-0.79579 -1.42684,-0.87503 -2.00027,-0.11395 -2.13946,0.16547 -0.96434,1.93586 0.9902,1.49181 1.9943,3.92503 1.9943,4.83277 0,0.26558 -0.12519,0.60806 -0.2782,0.76107 -0.30084,0.30084 -1.51814,0.16918 -2.00922,-0.21731 z m 6.25911,-6.62075 c -1.60099,-4.55793 -3.57736,-7.6892 -6.95276,-11.0156 -1.08193,-1.06622 -2.72224,-2.43544 -3.64516,-3.04271 l -1.67802,-1.10413 -0.82042,-2.77812 c -1.01584,-3.43992 -2.4035,-6.48691 -3.26169,-7.16196 -1.3379,-1.05239 -1.43501,-0.51548 -0.34365,1.89984 1.26702,2.80406 2.26151,6.84987 1.68366,6.84948 -0.10914,-7e-5 -0.84113,-0.2444 -1.62665,-0.54296 -1.44644,-0.54976 -2.69366,-0.60156 -2.84982,-0.11836 -0.047,0.14552 1.22371,0.88875 2.82386,1.65162 1.60016,0.76287 2.90938,1.50161 2.90938,1.64165 0,0.14005 -0.44648,0.32945 -0.99219,0.42091 -3.10031,0.51958 -5.28811,1.632 -7.64319,3.8863 -1.56816,1.50106 -2.97747,3.80331 -3.41817,5.58391 -0.10196,0.41193 -0.3523,0.81303 -0.55633,0.89132 -0.52522,0.20154 -4.05024,-1.08949 -6.71576,-2.45963 -4.0142,-2.0634 -7.13269,-5.12844 -7.13269,-7.01042 0,-2.86509 4.41733,-8.65381 11.1125,-14.56242 3.38032,-2.9832 10.1427,-8.36292 11.00775,-8.75706 0.41592,-0.1895 0.83195,-0.11362 1.64163,0.29946 2.57812,1.31525 10.26099,3.8341 14.11412,4.62735 2.54232,0.52339 7.78471,1.04024 8.56491,0.84442 0.33708,-0.0846 0.78905,-0.0862 1.00439,-0.004 0.38942,0.14943 2.29636,3.02768 2.29636,3.46603 0,0.12634 -1.07537,0.98869 -2.38971,1.91636 -3.91744,2.76493 -4.15191,3.25289 -3.13893,6.53251 0.51961,1.68231 1.03624,2.87089 3.52271,8.10453 l 0.97213,2.0462 -0.66704,1.65143 c -0.41345,1.0236 -0.57306,1.74541 -0.41983,1.89864 0.47485,0.47485 3.57685,-2.00834 4.33127,-3.46723 0.6981,-1.34998 0.79374,-3.87812 0.28305,-7.48252 -0.55735,-3.9338 -0.54646,-4.81003 0.0808,-6.49945 l 0.4753,-1.28012 1.6711,-0.30222 c 2.01096,-0.36367 1.83406,-0.55137 3.62705,3.84846 2.46102,6.03912 3.19093,7.13385 5.27689,7.91431 1.83969,0.68832 4.41213,1.11659 4.75217,0.79117 0.15793,-0.15114 -0.20412,-0.71376 -0.96348,-1.49724 l -1.21649,-1.25512 -0.30017,-4.14233 c -0.39633,-5.46928 -0.7479,-6.63882 -2.2896,-7.61653 -0.64896,-0.41156 -2.14012,-1.14473 -3.3137,-1.62926 -1.17358,-0.48454 -2.22961,-1.06371 -2.34673,-1.28705 -0.11712,-0.22334 -0.29998,-1.05014 -0.40634,-1.83732 l -0.19338,-1.43124 2.97495,0.17022 c 1.63623,0.0936 3.13797,0.3055 3.3372,0.47084 0.36276,0.30107 6.24835,17.81555 6.57895,19.5778 0.16998,0.90609 0.10331,1.00431 -2.09291,3.08322 -5.93514,5.6181 -13.83787,9.35181 -22.78273,10.76387 -3.9527,0.62398 -3.72986,0.74019 -4.8846,-2.54728 z m -3.39988,-19.45612 c 2.093,-0.0964 2.8158,-0.45918 2.50881,-1.2592 -0.12841,-0.33461 -0.88167,-0.40213 -4.59367,-0.41177 -2.44204,-0.006 -4.97585,-0.11642 -5.6307,-0.24462 -1.44197,-0.28232 -1.69174,-0.0882 -1.38951,1.08002 l 0.23179,0.89592 3.42313,0.0165 c 1.88273,0.009 4.33529,-0.0255 5.45015,-0.0769 z m -19.95254,17.49091 c -0.59566,-0.17498 -0.58316,-0.56971 0.0706,-2.22828 1.8056,-4.58085 5.20383,-6.98937 10.3307,-7.32199 2.16699,-0.14058 3.42319,0.11255 3.42319,0.68979 0,0.11939 -0.8632,0.2853 -1.91823,0.36867 -5.09487,0.40264 -8.18417,3.12887 -9.31495,8.22024 -0.15704,0.70707 -0.22966,0.74384 -1.14796,0.5812 -0.53917,-0.0955 -1.18867,-0.23482 -1.44334,-0.30963 z m 52.51016,-17.43056 c -2.63607,-7.81458 -4.43791,-12.59676 -4.83985,-12.84517 -0.16733,-0.10342 -1.60332,-0.33766 -3.1911,-0.52054 -1.58777,-0.18289 -2.93025,-0.40558 -2.98328,-0.49487 -0.053,-0.0893 0.89604,-1.21201 2.10905,-2.49494 l 2.20547,-2.33261 0.5151,1.00969 c 2.15764,4.22936 8.77393,22.34569 8.77393,24.02423 0,1.06732 -0.51176,-0.18687 -2.58932,-6.34579 z m -2.87361,-14.81667 c -3.00061,-7.1574 -3.28736,-7.90313 -3.16327,-8.22648 0.0628,-0.16368 0.63041,-0.37851 1.26134,-0.47742 2.25666,-0.35374 7.79721,-1.80935 9.75914,-2.56392 1.21031,-0.46549 2.32514,-1.10756 2.82909,-1.62936 1.0744,-1.11246 2.38121,-3.92331 2.74854,-5.9119 0.3744,-2.02687 0.48238,-2.22099 1.71115,-3.0764 1.37062,-0.95415 1.69403,-0.92804 1.69403,0.13673 0,1.0269 -0.39862,1.50813 -1.24922,1.50813 -0.69261,0 -0.79799,0.20932 -1.6289,3.23556 -0.66213,2.41157 -0.68715,2.81823 -0.18527,3.01082 0.74631,0.28639 1.4352,-0.44013 2.12229,-2.23824 0.5986,-1.56651 0.81037,-1.85332 1.51838,-2.05637 0.7449,-0.21364 0.98351,-0.47343 1.53101,-1.66692 0.17871,-0.38956 2.96926,-1.57002 3.76842,-1.59412 0.35175,-0.0106 0.7154,0.80201 1.63005,3.64252 1.80686,5.61137 2.40687,8.81635 2.41134,12.88029 0.003,3.1586 -0.0473,3.52168 -0.62106,4.44462 -1.35613,2.18132 -5.40849,3.96388 -10.88454,4.78791 -3.7115,0.5585 -4.48345,0.60714 -9.20765,0.58017 l -4.04828,-0.0231 -1.99659,-4.7625 z m -27.67495,1.43172 c -3.26939,-0.59936 -10.03184,-2.70278 -10.63792,-3.30887 -0.32072,-0.32072 -0.4099,-1.05145 -0.41094,-3.36727 -0.002,-4.22117 -0.90514,-14.15214 -1.62509,-17.86752 -0.37558,-1.9382 -0.14603,-2.85436 1.24541,-4.97067 0.76443,-1.16267 1.16638,-2.04874 1.118,-2.4646 -0.0559,-0.48084 0.1441,-0.79772 0.77099,-1.22139 1.1611,-0.7847 4.80094,-1.90059 7.35556,-2.25506 2.30275,-0.31952 5.85365,-0.12265 6.43106,0.35656 0.50497,0.41909 2.17818,3.803 1.97895,4.00223 -0.0901,0.0901 -0.37015,0.16383 -0.62231,0.16383 -0.25217,0 -1.08243,0.41989 -1.84504,0.93308 -0.76261,0.5132 -1.43357,0.88608 -1.49102,0.82863 -0.0575,-0.0575 -0.30716,-0.96817 -0.55491,-2.02382 -0.44426,-1.89302 -0.94883,-2.54873 -1.40584,-1.82697 -0.33751,0.53303 -0.29481,3.3064 0.0696,4.52281 0.26641,0.88923 0.24376,1.1547 -0.15632,1.83197 -0.25733,0.43563 -0.48683,1.28054 -0.51,1.87757 l -0.0421,1.08552 -2.62031,0.87837 c -2.84039,0.95213 -3.19653,0.94702 -5.24225,-0.0752 -0.68638,-0.34299 -1.38648,-0.62361 -1.55576,-0.62361 -0.61763,0 -0.0321,2.42652 1.16993,4.84845 0.66268,1.33517 1.52172,3.2015 1.90898,4.14738 1.1767,2.87407 2.95732,6.13276 4.24277,7.76468 2.90589,3.68909 7.71861,3.95884 14.33362,0.80338 1.28407,-0.61252 1.91711,-1.06481 1.91485,-1.36811 -0.002,-0.24919 -0.29832,-1.37659 -0.65881,-2.50533 -0.71186,-2.22897 -1.18429,-5.61551 -1.18772,-8.51402 -0.002,-1.54099 0.0932,-1.93638 0.59314,-2.46751 0.48646,-0.51683 0.6195,-1.02791 0.7276,-2.79518 l 0.1323,-2.1627 0.69268,1.19062 c 1.49835,2.57544 5.26957,9.83912 6.85164,13.19681 l 1.66775,3.53951 -0.505,0.94146 c -0.79087,1.47442 -2.99934,3.74834 -4.72734,4.86743 -1.89169,1.2251 -5.06033,2.27691 -5.50868,1.82856 -0.21918,-0.21919 -0.18304,-0.29668 0.13836,-0.29668 0.92318,0 1.79152,-1.16134 2.3464,-3.13814 0.33256,-1.18478 0.45137,-2.0428 0.30336,-2.19082 -0.14802,-0.14801 -1.11578,0.21713 -2.47103,0.93233 -2.4155,1.27473 -4.86042,2.1072 -7.07062,2.40747 -1.104,0.14999 -1.38545,0.28369 -1.31961,0.62688 0.0921,0.48012 2.45009,1.87544 3.18594,1.88526 0.66933,0.009 0.5695,0.47682 -0.13229,0.62001 -0.94301,0.1924 -3.79206,-0.0716 -6.87799,-0.63731 z m -2.0517,-26.85623 c 0,-1.08417 -2.94849,-2.04508 -5.85154,-1.90702 -1.56934,0.0746 -1.70753,0.13419 -2.27722,0.98144 -0.33357,0.4961 -0.53916,0.96933 -0.45686,1.05163 0.0823,0.0823 2.04773,0.16274 4.36763,0.17876 3.23509,0.0223 4.21799,-0.0487 4.21799,-0.30481 z m 4.27123,21.08791 c -0.4364,-0.27652 -0.19466,-0.438 1.02044,-0.68165 1.58471,-0.31776 4.55547,-1.21922 6.31537,-1.91636 1.38087,-0.54701 1.72651,-0.60227 1.91417,-0.30605 0.39515,0.62372 0.27441,0.77058 -1.18156,1.43714 -2.8496,1.30459 -7.1039,2.07806 -8.06842,1.46692 z m -1.54503,-18.38129 c -0.0909,-0.0909 0.0622,-0.42061 0.34018,-0.73263 1.15761,-1.29916 3.85929,-1.73073 4.7403,-0.75723 0.52085,0.57553 0.49379,0.63748 -0.59478,1.36174 -0.57446,0.38221 -1.11138,0.46502 -2.52499,0.38943 -0.98746,-0.0528 -1.86978,-0.17038 -1.96071,-0.26131 z m 45.95713,-0.83346 c 0,-0.83954 0.11523,-0.98547 1.19076,-1.508 1.29421,-0.62878 1.5695,-0.53243 1.86193,0.65162 0.16406,0.6643 0.0793,0.77328 -0.97346,1.25096 -1.72089,0.78088 -2.07923,0.71287 -2.07923,-0.39458 z m -38.30674,0.13934 c -1.19219,-0.004 -1.23533,-0.0497 -1.49633,-1.59111 -0.23677,-1.39839 -0.52496,-1.67678 -1.91652,-1.85138 l -1.2752,-0.16 1.05834,-0.46403 c 1.83729,-0.80557 2.04744,-0.7359 2.56341,0.84984 0.68031,2.09082 0.77382,2.15673 2.79232,1.96824 1.45131,-0.13552 1.70361,-0.1007 1.52485,0.21049 -0.53186,0.92586 -1.06292,1.32504 -1.57851,1.18652 -0.29677,-0.0797 -1.04933,-0.14658 -1.67236,-0.14857 z m 34.75045,-3.14405 c -0.51066,-1.13246 -0.64616,-4.07338 -0.28677,-6.22453 l 0.21637,-1.29518 -0.67922,0.17048 c -0.59277,0.14877 -0.70104,0.0711 -0.85065,-0.61004 -0.0943,-0.42928 -0.0957,-1.29238 -0.003,-1.91801 0.15932,-1.07685 0.0741,-1.27855 -1.59885,-3.78333 -1.74348,-2.61041 -3.57416,-4.95854 -5.66515,-7.26645 -1.07686,-1.18856 -1.38575,-2.12625 -0.70041,-2.12625 0.92502,0 6.65837,7.43456 9.78132,12.68366 2.13365,3.58627 4.66686,8.51049 4.66387,9.06595 -0.002,0.42299 -3.09732,2.2693 -3.86058,2.30297 -0.39959,0.0176 -0.68447,-0.26234 -1.01678,-0.99927 z m -12.91265,-1.62206 c -0.28015,-0.80037 -0.57458,-2.48437 -0.65427,-3.74222 -0.1365,-2.15446 -0.11144,-2.30492 0.43245,-2.596 0.31754,-0.16995 0.89587,-0.27188 1.28516,-0.22653 0.57791,0.0673 0.71703,0.22814 0.75799,0.8762 0.0276,0.43657 0.17287,2.0418 0.32282,3.5672 0.24043,2.44579 0.22139,2.83007 -0.16116,3.25279 -0.76294,0.84304 -1.42385,0.46593 -1.98299,-1.13144 z m -45.87088,-3.29122 c -0.24501,-0.63851 0.29952,-1.27231 2.45923,-2.86236 6.29736,-4.63634 12.90798,-6.04963 15.06557,-3.22089 0.38687,0.50721 0.62508,1.00052 0.52936,1.09624 -0.0957,0.0957 -1.33272,0.20719 -2.74888,0.24771 -1.4843,0.0425 -3.47131,0.30273 -4.6915,0.61448 -2.90386,0.74194 -7.18278,2.49021 -8.75255,3.57608 -1.48193,1.02511 -1.65845,1.07716 -1.86123,0.54874 z m -11.96297,-1.903 c -2.29146,-0.90404 -6.07577,-3.12157 -8.69431,-5.0947 -2.3588,-1.7774 -4.66444,-4.12358 -4.5234,-4.60292 0.18114,-0.61564 3.53481,-2.05218 6.558,-2.80912 6.28005,-1.57237 13.53842,-2.13589 27.5672,-2.14026 4.83925,-0.002 8.18308,-0.10408 8.27564,-0.25384 0.41368,-0.66935 -2.79201,-1.36473 -7.26784,-1.57655 -1.95085,-0.0923 -3.29456,-0.26467 -3.27624,-0.42022 0.0458,-0.38911 3.47682,-2.16702 4.92757,-2.55341 2.56448,-0.68302 6.70204,0.56707 10.81132,3.26644 3.35025,2.20076 5.79019,4.81361 5.79261,6.20309 0.002,1.14713 -1.54293,1.16376 -9.42808,0.10149 -9.75596,-1.3143 -13.46164,-1.31298 -21.79176,0.008 -3.37014,0.53435 -4.53687,1.02108 -4.72326,1.97044 -0.0809,0.41224 0.0397,0.45146 0.92604,0.30112 5.57643,-0.94582 9.7267,-1.27046 14.77743,-1.1559 5.33512,0.12102 6.21771,0.2408 6.21771,0.84384 0,0.21634 -0.6158,0.38227 -1.78594,0.48122 -3.03519,0.25668 -8.09984,2.41687 -11.67448,4.97944 -1.12714,0.80802 -1.53867,0.9825 -1.69503,0.71867 -0.11357,-0.19164 -0.77608,-1.35334 -1.47225,-2.58156 -1.31947,-2.32787 -2.47443,-3.50912 -2.9581,-3.02545 -0.18332,0.18332 -0.092,0.67171 0.28496,1.52385 0.52587,1.18883 0.53157,1.28943 0.10957,1.93347 -0.80351,1.22632 -4.27229,4.57938 -4.73741,4.57938 -0.25027,0 -1.24924,-0.31333 -2.21995,-0.6963 z m 62.50129,-4.41036 c -2.09643,-1.35105 -4.95255,-2.96011 -7.44693,-4.19541 -1.29626,-0.64195 -1.65365,-0.94767 -1.65365,-1.41458 0,-1.23475 0.60821,-1.28959 2.69018,-0.24258 5.08449,2.55696 9.74524,6.0345 9.74524,7.27125 0,0.7059 -0.32732,0.80972 -0.90642,0.28752 -0.30183,-0.27219 -1.39462,-1.03998 -2.42842,-1.7062 z"
             style="fill: #5d5e5f;
  stroke-width: 0.26458332;" />
          <path
             sodipodi:nodetypes="cccccssccccccscsccscssccccssccsscsssccccsccscscccccccssccccccsccscccsccccsccccscsccccscccccssccsccccccscccccccccsscccccccccccsscccccccccccccsccccccsccccscccccsscsccsccccccccccsccscccsccsccccccccsccccccsscsccccccccssssssccccscccsccccsccsscccscscscsccccsccccccccssccccccccccsccccccccccsccccccsscccccsccsccccscscsssccscssccscssscccccscccssccc"
             inkscape:connector-curvature="0"
             id="path3826"
             d="m 210.86441,240.80986 c 0.91135,-0.6709 2.4011,-1.55367 3.31055,-1.96171 1.6787,-0.75318 3.60463,-2.27465 4.14936,-3.27795 0.16483,-0.30359 0.36896,-0.96869 0.45362,-1.47799 l 0.15394,-0.92601 3.17051,-0.46254 c 7.65168,-1.11629 14.12506,-3.68976 20.36844,-8.09739 2.85325,-2.01431 8.06218,-7.27504 10.25585,-10.35785 2.00818,-2.82214 4.81736,-8.31551 5.88561,-11.50937 0.38937,-1.16417 0.81805,-2.2317 0.95261,-2.37229 0.13457,-0.14058 1.54998,-0.57655 3.14538,-0.96881 4.54683,-1.11794 7.3666,-2.73251 8.67732,-4.96853 0.62945,-1.07382 0.72381,-1.5474 0.81013,-4.06612 0.11364,-3.31558 -0.22488,-5.99526 -1.29872,-10.28071 -3.1481,-12.56332 -10.31626,-26.25441 -18.57907,-35.48573 -1.50158,-1.67759 -1.97703,-2.05052 -2.61424,-2.05052 -2.24902,0 -4.52469,3.0393 -4.07409,5.4412 0.19446,1.03656 -0.15526,1.17357 -1.38798,0.54379 -1.65774,-0.84691 -2.31527,-0.79944 -3.47808,0.25109 l -1.08249,0.97796 -3.10403,-1.59774 c -3.31523,-1.70644 -6.38088,-2.86801 -9.58633,-3.63225 -1.31664,-0.31392 -2.69661,-0.90442 -4.10104,-1.75487 -4.31325,-2.61191 -8.78243,-3.66745 -11.7871,-2.78391 -0.79314,0.23322 -3.16847,1.36337 -5.27852,2.51143 l -3.83646,2.08737 -3.83646,0.1717 c -7.87212,0.35231 -14.49433,1.32153 -19.44687,2.84623 -5.40227,1.66316 -6.31388,2.69156 -4.67568,5.27473 0.82107,1.2947 2.33562,2.70769 5.27099,4.91758 1.05502,0.79427 1.91823,1.50666 1.91823,1.58308 0,0.0764 -0.70143,1.11154 -1.55873,2.30026 -4.41532,6.12222 -7.30909,13.46178 -8.2403,20.9001 -0.46639,3.72547 -0.19335,11.17973 0.53474,14.59871 0.77183,3.62437 2.12298,7.56908 3.70455,10.81552 0.72952,1.49747 1.3264,2.87977 1.3264,3.07179 0,0.19202 -0.29944,0.98209 -0.66542,1.75572 -1.31911,2.78837 -1.16227,4.5526 0.60149,6.76596 3.46242,4.34502 11.05944,7.86502 20.1157,9.32042 2.34818,0.37737 2.50929,0.44716 3.63803,1.5759 0.64957,0.64957 1.18104,1.24595 1.18104,1.32529 0,0.0793 -0.47625,0.8811 -1.05834,1.7817 -1.22915,1.90174 -1.33822,2.9139 -0.45519,4.22423 0.92936,1.37909 2.4437,2.14491 3.9333,1.98912 1.16823,-0.12218 1.28818,-0.0703 2.42086,1.04634 0.7674,0.75656 1.42631,1.17488 1.8506,1.17488 0.36724,0 1.39233,-0.53993 2.31589,-1.21981 z m 0.18715,-5.8672 c -0.25466,-0.22183 -0.46419,-0.65277 -0.46561,-0.95764 -0.001,-0.30487 -0.30584,-1.2058 -0.67648,-2.00208 -0.59948,-1.28788 -0.62842,-1.48103 -0.262,-1.74896 0.68935,-0.50406 0.47648,-1.16891 -0.50564,-1.57927 -1.05232,-0.43968 -1.69784,-0.47824 -2.24204,-0.13392 -0.31801,0.20121 -0.2202,0.58556 0.58813,2.31105 1.12531,2.40215 1.28144,3.21018 0.69417,3.59259 -0.89046,0.57983 -1.68654,0.0272 -2.46773,-1.71317 -0.41027,-0.91399 -0.85138,-1.84039 -0.98026,-2.05867 -0.70755,-1.19839 -2.35421,-3.65857 -3.31783,-4.95698 -1.49998,-2.02112 -1.5511,-2.49058 -0.40023,-3.67559 1.54696,-1.59285 2.92576,-2.06293 6.04169,-2.05985 1.83681,0.002 2.8204,0.11346 3.10885,0.35286 0.23208,0.1926 0.42196,0.2615 0.42196,0.1531 0,-0.39537 0.87388,0.54391 1.86794,2.00773 0.5602,0.82493 0.94456,1.57387 0.85412,1.6643 -0.0904,0.0904 -0.0421,0.16443 0.10744,0.16443 0.28837,0 1.86492,3.28728 2.54345,5.30341 1.09929,3.26631 1.1836,5.16697 0.24312,5.48047 -0.26873,0.0896 -1.19592,-2.46017 -1.20343,-3.3094 -0.002,-0.1819 -0.0841,-0.33073 -0.18322,-0.33073 -0.31707,0 -1.18034,-2.18968 -1.10125,-2.79328 0.0622,-0.47489 -0.0846,-0.60843 -0.79836,-0.72622 -1.23528,-0.20385 -2.21105,-0.0466 -2.12092,0.34172 0.0421,0.18154 0.35595,0.70292 0.69738,1.15862 0.88855,1.18591 1.66558,2.81394 2.02577,4.24439 0.27632,1.09737 0.25868,1.27681 -0.15531,1.57953 -0.55345,0.40469 -1.66519,0.25649 -2.31371,-0.30844 z m 7.27751,-3.56247 c -0.14397,-0.1819 -0.52966,-1.16416 -0.85708,-2.18281 -1.86577,-5.80462 -5.66009,-11.01592 -10.23885,-14.06252 -2.4454,-1.62712 -2.4441,-1.62524 -3.27566,-4.7229 -0.87319,-3.25279 -2.71645,-7.01145 -3.43843,-7.01145 -0.10884,0 0.15889,0.84916 0.59495,1.88702 1.02404,2.43728 2.09841,6.63265 1.78245,6.96034 -0.14837,0.15388 -0.86996,0.027 -1.89611,-0.33341 -1.70141,-0.59755 -2.58585,-0.72722 -2.57841,-0.37802 0.002,0.10914 1.12794,0.71879 2.50137,1.35478 2.60624,1.20686 3.70221,2.02983 3.02052,2.26812 -0.20171,0.0705 -1.178,0.31116 -2.16955,0.53479 -4.75394,1.07216 -8.19945,4.19527 -9.60379,8.70515 -0.26579,0.85354 -0.62292,1.60549 -0.79362,1.67099 -1.05453,0.40466 -8.51383,-3.07438 -11.11268,-5.18298 -5.20727,-4.22498 -4.35344,-7.45342 4.24445,-16.04876 5.38241,-5.38082 14.10712,-12.55052 15.27255,-12.55052 0.28033,0 0.96585,0.23271 1.52338,0.51714 0.55753,0.28444 2.24943,0.98562 3.75977,1.55819 6.66228,2.52566 10.80663,3.48065 16.10491,3.71106 l 3.83383,0.16673 1.12593,1.71979 c 0.61925,0.94589 1.12491,1.89839 1.12369,2.11667 -0.001,0.21828 -0.89524,0.97788 -1.9867,1.688 -1.09145,0.71013 -2.47273,1.76499 -3.06952,2.34415 -1.05846,1.02721 -1.08077,1.08544 -0.90971,2.37496 0.23235,1.75152 1.11917,4.06613 3.24889,8.47964 l 1.75741,3.64197 -0.59972,1.44692 c -0.32984,0.79581 -0.55539,1.57987 -0.50123,1.74237 0.11304,0.33911 2.50698,-1.47566 3.3347,-2.52793 1.20479,-1.53165 1.34345,-4.78116 0.42237,-9.89862 -0.38051,-2.11411 -0.37355,-2.30233 0.14862,-4.02147 0.30129,-0.99195 0.69505,-1.89889 0.875,-2.01541 0.67729,-0.43857 3.37311,-0.79824 3.74079,-0.49909 0.19416,0.15797 1.03643,1.95409 1.87171,3.99138 1.81473,4.42624 2.61347,5.96353 3.54366,6.8203 0.90772,0.83607 2.57157,1.46557 4.46045,1.68757 l 1.51665,0.17825 -1.11918,-1.27145 c -0.61554,-0.6993 -1.12188,-1.52258 -1.12518,-1.82952 -0.0173,-1.60657 -0.55355,-7.35126 -0.79592,-8.52631 -0.15888,-0.77023 -0.53151,-1.59066 -0.86458,-1.90356 -0.32194,-0.30245 -1.85309,-1.1555 -3.40256,-1.89566 -1.54946,-0.74017 -2.93865,-1.49208 -3.08708,-1.67093 -0.14843,-0.17885 -0.35191,-1.05027 -0.45217,-1.9365 -0.14101,-1.24631 -0.10066,-1.64028 0.17811,-1.73915 0.52513,-0.18623 6.14189,0.30701 6.4007,0.56209 0.66349,0.65391 6.87894,19.79004 6.73881,20.74741 -0.0435,0.29719 -1.15066,1.48591 -2.46035,2.64159 -6.49532,5.73153 -14.06232,9.28605 -22.60294,10.61752 -2.95723,0.46103 -3.86567,0.47711 -4.18465,0.0741 z m -4.52024,-22.66359 c 2.2939,-0.15669 2.91482,-0.35805 2.45061,-0.7947 -0.13582,-0.12775 -2.66371,-0.28203 -5.61754,-0.34282 l -5.3706,-0.11054 0.0789,0.67796 0.0789,0.67796 3.04271,0.0244 c 1.67349,0.0134 4.07512,-0.0461 5.33696,-0.13229 z m -19.45801,18.20908 c -0.99255,-0.2756 -1.02009,-0.31481 -0.89197,-1.27003 0.30824,-2.29807 2.61838,-5.73115 4.77088,-7.08997 2.55901,-1.61542 7.86824,-2.51214 9.30397,-1.57141 1.21269,0.79458 0.85279,1.13405 -1.37693,1.29877 -3.07502,0.22716 -4.4241,0.80153 -6.31586,2.68896 -1.60055,1.5969 -1.94911,2.30458 -2.90608,5.90028 -0.10783,0.40516 -1.21419,0.42375 -2.58401,0.0434 z m 52.48956,-16.41796 c -2.0137,-6.02181 -4.72201,-13.43127 -5.07687,-13.88937 -0.12776,-0.16493 -1.6101,-0.45343 -3.2941,-0.64113 -2.07175,-0.23091 -3.10613,-0.45676 -3.19887,-0.69844 -0.0793,-0.20674 0.58248,-1.05105 1.5714,-2.0047 0.93965,-0.90614 1.94833,-1.99427 2.24149,-2.41807 0.3133,-0.4529 0.68634,-0.71171 0.90492,-0.62784 0.71113,0.27289 5.76499,13.01594 8.41149,21.20916 1.06813,3.30678 1.29057,4.28011 1.04561,4.57527 -0.19193,0.23127 -0.40548,0.28059 -0.55734,0.12873 -0.1354,-0.1354 -1.05688,-2.67052 -2.04773,-5.63361 z m -1.27092,-11.40669 c -0.1504,-0.1819 -0.74759,-1.52136 -1.32711,-2.97657 -0.5795,-1.4552 -1.78072,-4.30356 -2.66936,-6.32969 -0.88864,-2.02612 -1.6157,-3.7777 -1.6157,-3.8924 0,-0.11471 0.44648,-0.31776 0.99218,-0.45124 0.54571,-0.13348 2.82896,-0.68145 5.0739,-1.21771 4.79959,-1.1465 6.96792,-1.9712 8.12085,-3.08866 1.08377,-1.05043 2.35172,-3.83751 2.81471,-6.18696 0.35807,-1.81712 0.39286,-1.87141 1.84249,-2.87573 0.81264,-0.563 1.60812,-0.94293 1.76773,-0.84428 0.39904,0.24662 0.36696,2.40415 -0.0405,2.72509 -0.1819,0.14327 -0.64316,0.33495 -1.02501,0.42595 -0.61801,0.14727 -0.75512,0.40801 -1.24804,2.37333 -0.30456,1.21433 -0.63397,2.41693 -0.73202,2.67243 -0.14312,0.37296 -0.0567,0.44693 0.43803,0.37514 0.48952,-0.071 0.77511,-0.48266 1.38827,-2.00095 0.70744,-1.75172 0.84704,-1.92559 1.66997,-2.07998 0.72124,-0.1353 0.93956,-0.32886 1.10915,-0.98332 0.18051,-0.69658 0.47434,-0.92272 2.02452,-1.55804 2.46767,-1.01134 2.70898,-0.97906 3.31898,0.44403 0.77078,1.79817 2.59145,8.43248 3.04191,11.08442 0.5652,3.32742 0.52037,7.14732 -0.0999,8.51292 -1.34632,2.96406 -6.67045,5.20361 -14.06239,5.91523 -3.77865,0.36377 -10.46838,0.33709 -10.78265,-0.043 z m -28.15978,-2.95215 c -3.3936,-0.43635 -11.01686,-2.76493 -11.88109,-3.62916 -0.42634,-0.42634 -0.49649,-0.91588 -0.49763,-3.47286 -0.002,-4.23805 -0.90368,-14.1635 -1.62509,-17.88642 -0.37558,-1.9382 -0.14603,-2.85436 1.24541,-4.97067 0.65644,-0.99842 1.1716,-2.05343 1.1448,-2.34447 -0.12787,-1.38869 1.06661,-2.10972 5.32162,-3.21228 2.72494,-0.70609 7.41694,-0.91752 8.7763,-0.39548 0.46207,0.17745 1.03421,0.85731 1.65365,1.96497 1.17612,2.10311 1.23227,2.82997 0.21953,2.8422 -0.73861,0.009 -2.72055,1.20045 -2.90002,1.74346 -0.14881,0.45025 0.81764,0.5998 1.20391,0.18629 0.18632,-0.19946 0.4507,-0.29349 0.5875,-0.20894 0.13679,0.0845 0.24872,0.0537 0.24872,-0.0685 0,-0.12221 0.38321,-0.36684 0.85159,-0.54363 0.9857,-0.37206 1.4266,-0.0985 1.61017,0.99917 0.0608,0.36381 0.2621,1.06058 0.44724,1.5484 l 0.33662,0.88694 1.67697,-0.17959 c 2.10307,-0.22522 2.392,-0.0638 1.67876,0.93783 -0.49297,0.69232 -0.70375,0.77517 -1.97194,0.77517 -2.05954,0 -2.77733,-0.33699 -2.77733,-1.30392 0,-0.43331 -0.13817,-1.0911 -0.30705,-1.46175 -0.28186,-0.61862 -0.44417,-0.67391 -1.97828,-0.67391 -1.44224,0 -1.72478,-0.0817 -2.06214,-0.59662 -0.47103,-0.71889 -1.24461,-3.89385 -1.0324,-4.23722 0.083,-0.13426 -0.0716,-0.20164 -0.34348,-0.14972 -0.84224,0.16081 -1.07607,1.83721 -0.54087,3.87774 0.45261,1.72569 0.45118,1.75892 -0.12249,2.84029 -0.35361,0.66656 -0.5085,1.28166 -0.39635,1.57394 0.16891,0.44016 0.24354,0.42285 0.9039,-0.20965 1.48904,-1.42626 3.97782,-1.85215 5.06641,-0.867 0.30149,0.27285 0.54817,0.57555 0.54817,0.67267 0,0.0971 -0.48366,0.49323 -1.0748,0.88026 -0.99016,0.64828 -1.22456,0.69127 -2.97656,0.54596 -1.7251,-0.14309 -2.15607,-0.0689 -4.63935,0.79851 -1.50568,0.52594 -3.06549,0.95626 -3.46625,0.95626 -0.92025,0 -2.39513,-0.50472 -2.39513,-0.81964 0,-0.13128 -0.0893,-0.2134 -0.19843,-0.18249 -0.10914,0.0309 -0.45911,-0.0885 -0.7777,-0.26529 -0.39436,-0.21889 -0.63376,-0.23332 -0.75002,-0.0452 -0.251,0.40612 0.81463,3.67856 1.54749,4.75219 0.34766,0.50933 1.07843,2.05714 1.62393,3.43959 2.0571,5.21325 4.48166,8.94464 6.63009,10.20371 1.51071,0.88533 3.86992,1.11583 6.38729,0.62406 2.39033,-0.46696 2.13094,-0.38111 4.78579,-1.58403 0.90951,-0.4121 1.65365,-0.67778 1.65365,-0.5904 0,0.0874 0.23199,-0.10862 0.51554,-0.43555 0.51101,-0.5892 0.511,-0.60594 -5.3e-4,-1.90397 -0.66816,-1.69513 -1.24482,-5.03883 -1.46173,-8.47562 l -0.17248,-2.73299 0.83776,-1.04559 c 0.82881,-1.03442 0.83588,-1.06834 0.66222,-3.175 -0.15723,-1.90733 -0.13341,-2.08802 0.22833,-1.73254 1.21386,1.19293 9.18047,16.78663 9.18047,17.96988 0,0.97353 -1.30585,2.88628 -3.07332,4.50165 -1.47498,1.34805 -4.72498,3.13584 -5.92251,3.25792 -0.36381,0.0371 -0.74645,0.18649 -0.85033,0.33201 -0.1169,0.16377 -0.36534,0.0882 -0.65201,-0.19844 -0.40292,-0.40282 -0.40881,-0.46302 -0.0452,-0.46302 0.84176,0 1.77594,-1.06286 2.19194,-2.49387 0.46483,-1.59896 0.53697,-2.7978 0.16836,-2.7978 -0.13509,0 -0.96041,0.4258 -1.83404,0.94622 -1.86422,1.11051 -4.75314,2.13735 -6.71512,2.38682 -1.45339,0.1848 -2.15078,0.52825 -1.89921,0.93531 0.21198,0.34298 2.66183,1.55249 3.14457,1.55249 0.62558,0 0.47981,0.47648 -0.18964,0.61986 -0.68276,0.14622 -3.70887,0.0379 -5.54813,-0.19858 z m -3.38144,-27.16423 c -7e-5,-0.0838 -0.26801,-0.40055 -0.59543,-0.70395 -0.70575,-0.65396 -2.05673,-1.04019 -4.49832,-1.28601 l -1.78635,-0.17984 -0.93789,0.99446 c -0.51585,0.54695 -0.88507,1.04729 -0.8205,1.11186 0.17701,0.17701 8.63862,0.23919 8.63849,0.0635 z m 4.11815,21.19324 c -0.71799,-0.27298 -0.90211,-0.7543 -0.34796,-0.90959 0.1819,-0.051 1.58089,-0.38823 3.10886,-0.74946 1.52797,-0.36124 3.587,-0.98089 4.57564,-1.37702 1.43568,-0.57525 1.87507,-0.65586 2.18281,-0.40046 0.98784,0.81984 -0.0598,1.68902 -3.31887,2.75336 -2.91858,0.95317 -4.9125,1.17286 -6.20048,0.68317 z m 44.35305,-19.4208 c 0.0732,-1.00229 0.18124,-1.14458 1.32881,-1.75065 1.15077,-0.60778 1.28277,-0.62601 1.67717,-0.23161 0.23545,0.23544 0.44726,0.8197 0.47071,1.29835 0.0401,0.81813 -0.044,0.90547 -1.40364,1.45812 -1.84235,0.74887 -2.17526,0.62454 -2.07305,-0.77421 z m -3.35468,-3.06384 c -0.51173,-1.13481 -0.65324,-4.17807 -0.28841,-6.20211 l 0.23357,-1.29582 -0.6818,0.17112 c -0.5958,0.14953 -0.70343,0.0727 -0.85323,-0.60939 -0.0943,-0.42928 -0.0957,-1.29238 -0.003,-1.91801 0.15932,-1.07685 0.0741,-1.27855 -1.59885,-3.78333 -1.74348,-2.61041 -3.57416,-4.95854 -5.66515,-7.26645 -1.11954,-1.23567 -1.3413,-1.96555 -0.67488,-2.22128 0.26671,-0.10234 1.06227,0.62453 2.44739,2.23611 1.12874,1.31326 2.23083,2.69198 2.44912,3.06383 0.21828,0.37185 0.69453,1.00656 1.05833,1.41047 1.74078,1.9327 8.73125,14.03725 8.73125,15.11886 0,0.51692 -3.60362,2.58418 -4.22257,2.42232 -0.2642,-0.0691 -0.68344,-0.57594 -0.93163,-1.12632 z m -13.06911,-1.73129 c -0.67558,-1.99082 -0.9697,-5.19154 -0.54925,-5.97716 0.25598,-0.47829 1.97889,-0.98281 2.29087,-0.67084 0.0893,0.0893 0.19087,0.49056 0.22567,0.89166 0.0348,0.40109 0.15107,1.80082 0.25836,3.11051 0.10729,1.30969 0.30245,2.59041 0.4337,2.84604 0.17854,0.34774 0.0679,0.63552 -0.43926,1.14269 -1.04259,1.04259 -1.50561,0.76252 -2.22009,-1.3429 z m -46.01859,-3.36565 c -0.0771,-0.90434 0.0108,-1.01084 2.11667,-2.56584 2.65134,-1.95775 6.8608,-4.09969 9.20461,-4.68366 1.84653,-0.46008 4.40328,-0.39208 5.56504,0.14802 0.81739,0.37999 1.95945,1.98787 1.76742,2.4883 -0.10568,0.27541 -0.98368,0.40026 -3.53612,0.50282 -2.70733,0.10878 -3.84493,0.28148 -5.61289,0.85209 -2.86209,0.92374 -5.67571,2.21164 -7.46685,3.41787 -0.78295,0.52727 -1.54368,0.91935 -1.6905,0.87129 -0.14682,-0.0481 -0.30314,-0.51197 -0.34738,-1.03089 z m -13.56176,-2.15615 c -3.48074,-1.73991 -7.46778,-4.4829 -9.70681,-6.67804 -2.71239,-2.65924 -2.61009,-3.07315 1.10519,-4.47146 6.3883,-2.40435 14.44566,-3.2783 30.64434,-3.32388 4.62028,-0.013 8.40052,-0.11759 8.40052,-0.23241 0,-0.38128 -3.26013,-0.87414 -6.87917,-1.03998 -2.88942,-0.1324 -3.57187,-0.23787 -3.57187,-0.55203 0,-0.22072 1.08493,-0.96304 2.51354,-1.71979 2.4309,-1.28767 2.58312,-1.33085 4.63021,-1.31365 1.57426,0.0132 2.61203,0.19421 4.04978,0.70627 6.18206,2.20174 12.65337,8.13154 10.84626,9.93865 -0.51342,0.51342 -3.98377,0.37473 -9.24534,-0.36948 -5.93657,-0.83969 -12.78383,-1.09974 -16.9687,-0.64447 -4.62129,0.50276 -8.42826,1.25005 -8.90114,1.74725 -0.38774,0.40769 -0.33122,0.42953 0.77226,0.2983 0.65484,-0.0779 2.8575,-0.34253 4.89479,-0.58813 5.12862,-0.61825 14.23008,-0.4845 15.31296,0.22504 1.08088,0.70821 0.72753,1.08537 -1.17882,1.25825 -3.37054,0.30566 -7.55013,2.03549 -11.47675,4.74996 -1.04518,0.72254 -2.03062,1.3137 -2.18987,1.3137 -0.15926,0 -0.88386,-1.10243 -1.61023,-2.44984 -1.76213,-3.26875 -3.26162,-4.66046 -2.25196,-2.09009 0.55962,1.42465 0.37359,1.79025 -2.34594,4.61026 l -2.04223,2.11767 -1.17236,-0.13214 c -0.6448,-0.0727 -2.2777,-0.68466 -3.62866,-1.35996 z m 64.41465,-3.95048 c -2.10131,-1.35419 -4.95512,-2.9615 -7.46065,-4.20196 -1.4491,-0.71744 -1.65691,-0.91201 -1.5875,-1.48644 0.16052,-1.32848 0.8406,-1.34628 3.20222,-0.0838 5.47989,2.92938 9.44535,6.01363 9.44535,7.34639 0,0.52863 -0.63275,0.57962 -1.19062,0.096 -0.29105,-0.25233 -1.375,-1.00388 -2.4088,-1.67011 z"
             style="fill: #d31f0f;
  stroke-width: 0.26458332;" />
          <path
             sodipodi:nodetypes="cccccssccccccscsccscssccccssccsscsssccccsccscsccccccsccsscsccscccccccccssccscccscsccccscccccssccsccccccscccccccccsscccccccccccsscccccccccccccsccccsccscccscccsccsccccscccsscccccsssscssscscscscsccccccccccscccsccccccsscsccsccccccccccsccscccccscsscssccccccccccccssccccsssscccccccscssscccsscccccscsscscccscscccccscccccsscccsccsccccccscccccccscscccssccscsccccccccsccccscsccccccscscccsscssccsssscccsccccccccccccccsccsccccscscsssccscssccscssscccccs"
             inkscape:connector-curvature="0"
             id="path3824"
             d="m 210.86441,240.80986 c 0.91135,-0.6709 2.4011,-1.55367 3.31055,-1.96171 1.6787,-0.75318 3.60463,-2.27465 4.14936,-3.27795 0.16483,-0.30359 0.36896,-0.96869 0.45362,-1.47799 l 0.15394,-0.92601 3.17051,-0.46254 c 7.65168,-1.11629 14.12506,-3.68976 20.36844,-8.09739 2.85325,-2.01431 8.06218,-7.27504 10.25585,-10.35785 2.00818,-2.82214 4.81736,-8.31551 5.88561,-11.50937 0.38937,-1.16417 0.81805,-2.2317 0.95261,-2.37229 0.13457,-0.14058 1.54998,-0.57655 3.14538,-0.96881 4.54683,-1.11794 7.3666,-2.73251 8.67732,-4.96853 0.62945,-1.07382 0.72381,-1.5474 0.81013,-4.06612 0.11364,-3.31558 -0.22488,-5.99526 -1.29872,-10.28071 -3.1481,-12.56332 -10.31626,-26.25441 -18.57907,-35.48573 -1.50158,-1.67759 -1.97703,-2.05052 -2.61424,-2.05052 -2.24902,0 -4.52469,3.0393 -4.07409,5.4412 0.19446,1.03656 -0.15526,1.17357 -1.38798,0.54379 -1.65774,-0.84691 -2.31527,-0.79944 -3.47808,0.25109 l -1.08249,0.97796 -3.10403,-1.59774 c -3.31523,-1.70644 -6.38088,-2.86801 -9.58633,-3.63225 -1.31664,-0.31392 -2.69661,-0.90442 -4.10104,-1.75487 -4.31325,-2.61191 -8.78243,-3.66745 -11.7871,-2.78391 -0.79314,0.23322 -3.16847,1.36337 -5.27852,2.51143 l -3.83646,2.08737 -3.83646,0.1717 c -7.87212,0.35231 -14.49433,1.32153 -19.44687,2.84623 -5.40227,1.66316 -6.31388,2.69156 -4.67568,5.27473 0.82107,1.2947 2.33562,2.70769 5.27099,4.91758 1.05502,0.79427 1.91823,1.50666 1.91823,1.58308 0,0.0764 -0.70143,1.11154 -1.55873,2.30026 -4.41532,6.12222 -7.30909,13.46178 -8.2403,20.9001 -0.46639,3.72547 -0.19335,11.17973 0.53474,14.59871 0.77183,3.62437 2.12298,7.56908 3.70455,10.81552 0.72952,1.49747 1.3264,2.87977 1.3264,3.07179 0,0.19202 -0.29944,0.98209 -0.66542,1.75572 -1.31911,2.78837 -1.16227,4.5526 0.60149,6.76596 3.46242,4.34502 11.05944,7.86502 20.1157,9.32042 2.34818,0.37737 2.50929,0.44716 3.63803,1.5759 0.64957,0.64957 1.18104,1.24595 1.18104,1.32529 0,0.0793 -0.47625,0.8811 -1.05834,1.7817 -1.22915,1.90174 -1.33822,2.9139 -0.45519,4.22423 0.92936,1.37909 2.4437,2.14491 3.9333,1.98912 1.16823,-0.12218 1.28818,-0.0703 2.42086,1.04634 0.7674,0.75656 1.42631,1.17488 1.8506,1.17488 0.36724,0 1.39233,-0.53993 2.31589,-1.21981 z m -3.02626,-1.13079 c -0.4311,-0.47635 -0.39249,-0.55407 0.86806,-1.74756 2.27043,-2.14964 2.49137,-3.47088 1.05215,-6.29199 -0.50296,-0.98587 -0.5142,-1.11063 -0.12568,-1.39472 0.70324,-0.51423 0.49877,-1.1766 -0.49085,-1.59009 -1.05232,-0.43968 -1.69784,-0.47824 -2.24204,-0.13392 -0.31799,0.2012 -0.21997,0.58568 0.58921,2.31105 1.43833,3.06691 1.477,3.50919 0.41299,4.72375 -1.14269,1.30439 -3.04071,2.50533 -3.95954,2.50533 -0.88351,0 -2.34975,-1.17943 -2.34975,-1.89012 0,-0.46795 1.24765,-2.46749 2.60755,-4.17897 0.63891,-0.8041 0.49877,-1.19869 -0.57604,-1.62189 -1.45023,-0.57102 -2.60466,-1.60161 -3.13366,-2.79751 -0.54088,-1.22274 -0.71824,-1.34362 -1.22618,-0.83567 -0.47102,0.47102 -0.41077,-0.0223 0.24777,-2.02833 0.65979,-2.00986 1.85638,-3.38751 3.64958,-4.20184 0.97821,-0.44422 1.71436,-0.54551 3.85494,-0.5304 1.45521,0.0103 2.96871,0.14981 3.36333,0.31007 0.98663,0.40068 2.36285,2.33058 3.90178,5.47154 2.11242,4.31147 3.03976,7.78582 2.39812,8.98474 -0.55031,1.02826 -0.97736,0.81372 -1.16287,-0.58422 -0.0917,-0.69123 -0.54051,-2.03068 -0.9973,-2.97656 -0.45678,-0.94589 -0.81304,-2.03219 -0.79169,-2.414 0.0323,-0.57707 -0.0998,-0.72191 -0.78243,-0.85844 -0.94339,-0.18868 -2.09248,0.0356 -2.09248,0.40836 0,0.13945 0.28406,0.63256 0.63124,1.09579 0.88986,1.18732 1.67372,2.81847 2.02518,4.21426 0.24776,0.98393 0.229,1.33281 -0.10653,1.98166 -0.47359,0.91581 -4.29902,4.5682 -4.78465,4.5682 -0.18098,0 -0.53208,-0.22434 -0.78021,-0.49852 z m 10.49092,-8.29888 c -0.14397,-0.1819 -0.52966,-1.16416 -0.85708,-2.18281 -1.86577,-5.80462 -5.66009,-11.01592 -10.23885,-14.06252 -2.4454,-1.62712 -2.4441,-1.62524 -3.27566,-4.7229 -0.87319,-3.25279 -2.71645,-7.01145 -3.43843,-7.01145 -0.10884,0 0.15889,0.84916 0.59495,1.88702 1.02404,2.43728 2.09841,6.63265 1.78245,6.96034 -0.14837,0.15388 -0.86996,0.027 -1.89611,-0.33341 -1.70141,-0.59755 -2.58585,-0.72722 -2.57841,-0.37802 0.002,0.10914 1.12794,0.71879 2.50137,1.35478 2.60624,1.20686 3.70221,2.02983 3.02052,2.26812 -0.20171,0.0705 -1.178,0.31116 -2.16955,0.53479 -4.75394,1.07216 -8.19945,4.19527 -9.60379,8.70515 -0.26579,0.85354 -0.62292,1.60549 -0.79362,1.67099 -1.05453,0.40466 -8.51383,-3.07438 -11.11268,-5.18298 -5.20727,-4.22498 -4.35344,-7.45342 4.24445,-16.04876 5.38241,-5.38082 14.10712,-12.55052 15.27255,-12.55052 0.28033,0 0.96585,0.23271 1.52338,0.51714 0.55753,0.28444 2.24943,0.98562 3.75977,1.55819 6.66228,2.52566 10.80663,3.48065 16.10491,3.71106 l 3.83383,0.16673 1.12593,1.71979 c 0.61925,0.94589 1.12491,1.89839 1.12369,2.11667 -0.001,0.21828 -0.89524,0.97788 -1.9867,1.688 -1.09145,0.71013 -2.47273,1.76499 -3.06952,2.34415 -1.05846,1.02721 -1.08077,1.08544 -0.90971,2.37496 0.23235,1.75152 1.11917,4.06613 3.24889,8.47964 l 1.75741,3.64197 -0.59972,1.44692 c -0.32984,0.79581 -0.55539,1.57987 -0.50123,1.74237 0.11304,0.33911 2.50698,-1.47566 3.3347,-2.52793 1.20479,-1.53165 1.34345,-4.78116 0.42237,-9.89862 -0.38051,-2.11411 -0.37355,-2.30233 0.14862,-4.02147 0.30129,-0.99195 0.69505,-1.89889 0.875,-2.01541 0.67729,-0.43857 3.37311,-0.79824 3.74079,-0.49909 0.19416,0.15797 1.03643,1.95409 1.87171,3.99138 1.81473,4.42624 2.61347,5.96353 3.54366,6.8203 0.90772,0.83607 2.57157,1.46557 4.46045,1.68757 l 1.51665,0.17825 -1.11918,-1.27145 c -0.61554,-0.6993 -1.12188,-1.52258 -1.12518,-1.82952 -0.0173,-1.60657 -0.55355,-7.35126 -0.79592,-8.52631 -0.15888,-0.77023 -0.53151,-1.59066 -0.86458,-1.90356 -0.32194,-0.30245 -1.85309,-1.1555 -3.40256,-1.89566 -1.54946,-0.74017 -2.93865,-1.49208 -3.08708,-1.67093 -0.14843,-0.17885 -0.35191,-1.05027 -0.45217,-1.9365 -0.14101,-1.24631 -0.10066,-1.64028 0.17811,-1.73915 0.52513,-0.18623 6.14189,0.30701 6.4007,0.56209 0.66349,0.65391 6.87894,19.79004 6.73881,20.74741 -0.0435,0.29719 -1.15066,1.48591 -2.46035,2.64159 -6.49532,5.73153 -14.06232,9.28605 -22.60294,10.61752 -2.95723,0.46103 -3.86567,0.47711 -4.18465,0.0741 z m -4.52024,-22.66359 c 2.2939,-0.15669 2.91482,-0.35805 2.45061,-0.7947 -0.13582,-0.12775 -2.66371,-0.28203 -5.61754,-0.34282 l -5.3706,-0.11054 0.0789,0.67796 0.0789,0.67796 3.04271,0.0244 c 1.67349,0.0134 4.07512,-0.0461 5.33696,-0.13229 z m -19.45801,18.20908 c -0.99255,-0.2756 -1.02009,-0.31481 -0.89197,-1.27003 0.30824,-2.29807 2.61838,-5.73115 4.77088,-7.08997 2.55901,-1.61542 7.86824,-2.51214 9.30397,-1.57141 1.21269,0.79458 0.85279,1.13405 -1.37693,1.29877 -3.07502,0.22716 -4.4241,0.80153 -6.31586,2.68896 -1.60055,1.5969 -1.94911,2.30458 -2.90608,5.90028 -0.10783,0.40516 -1.21419,0.42375 -2.58401,0.0434 z m 32.90647,-7.20951 c 0,-0.17702 -0.81582,-1.9857 -1.81294,-4.01928 -2.12436,-4.33257 -3.11372,-7.10257 -2.78075,-7.7855 0.31805,-0.65236 3.5252,-3.45255 3.95431,-3.45255 0.22734,0 0.0175,0.56187 -0.59188,1.58483 -0.62058,1.04178 -0.88063,1.7444 -0.75892,2.05052 0.15514,0.39022 0.38841,0.24058 1.4394,-0.92337 0.68985,-0.76399 1.32162,-1.38906 1.40394,-1.38906 0.0823,0 -0.084,0.74414 -0.36953,1.65364 -0.44086,1.40411 -0.47689,1.87324 -0.23872,3.10886 0.8994,4.66623 1.07832,7.86037 0.51015,9.10738 -0.2985,0.65512 -0.75506,0.69414 -0.75506,0.0645 z m 19.58309,-9.20845 c -2.0137,-6.02181 -4.72201,-13.43127 -5.07687,-13.88937 -0.12776,-0.16493 -1.6101,-0.45343 -3.2941,-0.64113 -2.07175,-0.23091 -3.10613,-0.45676 -3.19887,-0.69844 -0.0793,-0.20674 0.58248,-1.05105 1.5714,-2.0047 0.93965,-0.90614 1.94833,-1.99427 2.24149,-2.41807 0.3133,-0.4529 0.68634,-0.71171 0.90492,-0.62784 0.71113,0.27289 5.76499,13.01594 8.41149,21.20916 1.06813,3.30678 1.29057,4.28011 1.04561,4.57527 -0.19193,0.23127 -0.40548,0.28059 -0.55734,0.12873 -0.1354,-0.1354 -1.05688,-2.67052 -2.04773,-5.63361 z m -6.80437,4.0319 c -0.95216,-0.68974 -1.22319,-1.17691 -2.68638,-4.82865 -0.89506,-2.23383 -1.62699,-4.19919 -1.62653,-4.36746 5.3e-4,-0.17559 0.22634,-0.247 0.53002,-0.16758 0.64118,0.16767 0.67346,-0.19976 0.11278,-1.28398 -0.22901,-0.44286 -0.35526,-0.86633 -0.28055,-0.94103 0.2032,-0.2032 3.78932,1.50725 4.2672,2.03531 0.73265,0.80956 1.62411,10.32053 0.96735,10.32053 -0.12369,0 -0.70144,-0.34522 -1.28389,-0.76714 z m 9.75648,-4.59068 c -0.57863,-1.78263 -1.47417,-4.39886 -1.99009,-5.81384 -0.51592,-1.41498 -0.85502,-2.62074 -0.75355,-2.67946 0.4228,-0.24467 10.10635,-0.47256 10.10635,-0.23783 0,1.70251 -5.19822,11.97228 -6.05998,11.97228 -0.13787,0 -0.7241,-1.45852 -1.30273,-3.24115 z m -72.19454,-2.11666 c -1.27378,-2.37892 -3.13865,-7.49406 -3.78713,-10.38771 -0.48121,-2.14726 -1.0534,-7.09731 -1.05482,-9.12531 -0.003,-4.60499 1.03865,-10.34259 2.72233,-14.99189 1.39663,-3.85665 5.47179,-11.04826 6.96081,-12.28404 0.32324,-0.26826 0.83376,-0.10907 2.82868,0.88204 5.30752,2.63687 6.63495,2.45614 9.99472,-1.36076 0.78144,-0.88776 1.49871,-1.6141 1.59394,-1.6141 0.0952,0 0.41284,0.56554 0.70579,1.25677 0.42245,0.99675 0.55236,1.99451 0.6279,4.82258 0.0907,3.39483 0.0699,3.57059 -0.43392,3.66534 -1.54177,0.28997 -2.35557,1.94074 -2.36996,4.80739 -0.01,1.98158 0.0741,2.39428 0.70729,3.4713 0.44753,0.76128 1.07127,1.38971 1.65364,1.66606 l 0.93507,0.44372 v 5.66074 5.66075 l -2.97657,2.23802 c -5.30289,3.98714 -9.56393,7.72656 -13.58771,11.92435 -2.16751,2.26124 -3.96764,4.11435 -4.00028,4.118 -0.0326,0.004 -0.26655,-0.38031 -0.51978,-0.85325 z m 52.90997,-4.56733 c -0.67136,-0.47023 -2.98605,-4.09333 -2.98605,-4.67394 0,-0.28758 0.62381,-0.53037 2.22708,-0.86683 1.22489,-0.25705 2.35275,-0.3897 2.50635,-0.29477 0.75788,0.4684 1.18294,5.08609 0.53953,5.86134 -0.40724,0.4907 -1.56821,0.4776 -2.28691,-0.0258 z m 15.06154,-4.16392 c -0.1504,-0.1819 -0.74759,-1.52136 -1.32711,-2.97657 -0.5795,-1.4552 -1.78072,-4.30356 -2.66936,-6.32969 -0.88864,-2.02612 -1.6157,-3.7777 -1.6157,-3.8924 0,-0.11471 0.44648,-0.31776 0.99218,-0.45124 0.54571,-0.13348 2.82896,-0.68145 5.0739,-1.21771 4.79959,-1.1465 6.96792,-1.9712 8.12085,-3.08866 1.08377,-1.05043 2.35172,-3.83751 2.81471,-6.18696 0.35807,-1.81712 0.39286,-1.87141 1.84249,-2.87573 0.81264,-0.563 1.60812,-0.94293 1.76773,-0.84428 0.39904,0.24662 0.36696,2.40415 -0.0405,2.72509 -0.1819,0.14327 -0.64316,0.33495 -1.02501,0.42595 -0.61801,0.14727 -0.75512,0.40801 -1.24804,2.37333 -0.30456,1.21433 -0.63397,2.41693 -0.73202,2.67243 -0.14312,0.37296 -0.0567,0.44693 0.43803,0.37514 0.48952,-0.071 0.77511,-0.48266 1.38827,-2.00095 0.70744,-1.75172 0.84704,-1.92559 1.66997,-2.07998 0.72124,-0.1353 0.93956,-0.32886 1.10915,-0.98332 0.18051,-0.69658 0.47434,-0.92272 2.02452,-1.55804 2.46767,-1.01134 2.70898,-0.97906 3.31898,0.44403 0.77078,1.79817 2.59145,8.43248 3.04191,11.08442 0.5652,3.32742 0.52037,7.14732 -0.0999,8.51292 -1.34632,2.96406 -6.67045,5.20361 -14.06239,5.91523 -3.77865,0.36377 -10.46838,0.33709 -10.78265,-0.043 z m -30.48301,-3.36208 c -3.52998,-0.76721 -7.82448,-2.2384 -11.31093,-3.87484 l -2.97657,-1.39711 v -6.09871 c 0,-5.81217 0.0249,-6.11424 0.52917,-6.42919 0.9556,-0.59678 0.63003,-0.99693 -0.81114,-0.99693 -1.64828,0 -2.19417,-0.27448 -2.62777,-1.32129 -0.45003,-1.08647 -0.15006,-1.32257 0.37943,-0.29864 0.64919,1.2554 2.00115,1.74046 2.00115,0.71797 0,-0.64631 -1.57881,-2.53762 -2.11833,-2.53762 -0.62647,0 -0.72478,-0.95199 -0.17583,-1.70272 0.59859,-0.81862 1.3962,-0.12582 1.88317,1.6357 0.23144,0.83722 0.51991,1.70082 0.64102,1.9191 0.25143,0.45313 1.37632,0.64821 2.34127,0.40602 0.54427,-0.1366 0.62709,-0.27679 0.48887,-0.8275 -0.5218,-2.07903 -0.96436,-5.41259 -0.84247,-6.34585 0.0775,-0.59334 0.45592,-1.92867 0.84094,-2.9674 0.62287,-1.6804 0.83558,-1.96931 1.92955,-2.62081 3.35556,-1.99834 7.09903,-3.01387 11.15139,-3.02517 1.52797,-0.004 3.09605,0.11436 3.48463,0.26358 0.46207,0.17745 1.03421,0.85731 1.65365,1.96497 1.17612,2.10311 1.23227,2.82997 0.21953,2.8422 -0.76096,0.009 -2.72252,1.20661 -2.91125,1.77715 -0.16713,0.50524 0.50923,0.39856 2.19235,-0.3458 1.80965,-0.80031 1.91798,-0.7354 2.61162,1.56484 l 0.46734,1.54977 1.68981,-0.18096 c 2.11615,-0.22662 2.40566,-0.0663 1.69159,0.93646 -0.49297,0.69231 -0.70375,0.77517 -1.97194,0.77517 -2.05954,0 -2.77733,-0.33699 -2.77733,-1.30392 0,-0.43332 -0.13817,-1.09111 -0.30705,-1.46176 -0.28161,-0.61806 -0.4448,-0.6739 -1.96937,-0.6739 -2.02256,0 -2.27438,-0.26904 -2.90499,-3.10351 -0.47482,-2.1342 -0.88035,-2.37017 -1.28854,-0.74976 -0.19018,0.75493 -0.13955,1.43101 0.20573,2.74745 0.45261,1.72569 0.45118,1.75891 -0.12249,2.84028 -0.35361,0.66657 -0.5085,1.28167 -0.39635,1.57395 0.16891,0.44016 0.24354,0.42285 0.9039,-0.20966 1.62941,-1.5607 4.03877,-1.96389 5.08443,-0.85084 0.34123,0.36323 0.56724,0.7136 0.50224,0.7786 -0.065,0.065 -0.56427,0.42091 -1.1095,0.79091 -0.9078,0.61605 -1.15241,0.65936 -2.90352,0.5141 -1.7376,-0.14413 -2.16215,-0.0713 -4.64978,0.79764 -1.50568,0.52594 -3.13069,0.95625 -3.61116,0.95625 -0.48046,0 -1.53816,-0.3496 -2.35045,-0.77688 -0.86052,-0.45266 -1.54362,-0.66891 -1.63679,-0.51815 -0.24228,0.39202 0.84127,3.68409 1.55836,4.73462 0.34766,0.50932 1.07843,2.05713 1.62393,3.43958 2.06341,5.22924 4.48141,8.9445 6.64753,10.21393 1.73232,1.01521 4.27291,1.15427 7.26884,0.39789 2.25731,-0.56991 6.03639,-2.19246 6.37228,-2.73593 0.10034,-0.16236 -0.0461,-0.87489 -0.32534,-1.5834 -0.66033,-1.67529 -1.2373,-5.03164 -1.45331,-8.45429 l -0.17249,-2.73299 0.83776,-1.04559 c 0.82881,-1.03442 0.83589,-1.06833 0.66223,-3.175 -0.15723,-1.90732 -0.13342,-2.08802 0.22833,-1.73254 1.21396,1.19294 9.18057,16.78663 9.18057,17.96988 0,0.39865 -0.35011,1.25125 -0.77802,1.89466 -2.37432,3.57006 -6.53643,5.97226 -11.3973,6.57807 -2.9879,0.37237 -8.46089,0.13075 -11.3726,-0.50208 z m 9.525,-1.23007 c 2.1328,-0.5718 4.98774,-1.9551 5.57446,-2.70099 0.52745,-0.67054 0.6992,-1.90113 0.26534,-1.90113 -0.13509,0 -0.94845,0.41867 -1.80746,0.93038 -1.93926,1.15521 -4.13503,1.94675 -6.54588,2.35968 -2.09776,0.35931 -2.44084,0.87478 -0.92604,1.39136 1.19143,0.40629 1.66942,0.39527 3.43958,-0.0793 z m -10.9293,-25.58702 c 0.24912,-0.40225 -0.74121,-1.18455 -1.85314,-1.46387 -0.6095,-0.15311 -1.90525,-0.35975 -2.87944,-0.45921 -1.73492,-0.17713 -1.78828,-0.16381 -2.60131,0.64922 -0.45653,0.45653 -0.78647,0.9608 -0.7332,1.12061 0.1146,0.3438 7.85798,0.49089 8.06709,0.15325 z m 4.46424,21.25603 c -0.71799,-0.27298 -0.90211,-0.7543 -0.34796,-0.90959 0.1819,-0.051 1.58089,-0.38823 3.10886,-0.74946 1.52797,-0.36124 3.587,-0.98089 4.57564,-1.37702 1.43568,-0.57525 1.87507,-0.65586 2.18281,-0.40046 0.98784,0.81984 -0.0598,1.68902 -3.31887,2.75336 -2.91858,0.95317 -4.9125,1.17286 -6.20048,0.68317 z m -2.79535,-2.6105 c 0,-0.12249 0.47152,-0.36398 1.04782,-0.53664 1.33006,-0.3985 5.51054,-0.72049 5.21928,-0.402 -0.59444,0.65001 -6.2671,1.49962 -6.2671,0.93864 z m 20.42743,-10.95595 c -1.90324,-3.81992 -3.85956,-7.54062 -4.34739,-8.26823 l -0.88694,-1.32291 -2.52747,0.0762 -2.52747,0.0762 -0.478,-1.79603 c -0.77218,-2.90139 -2.24313,-5.56345 -5.50378,-9.96047 -0.84795,-1.14347 -1.48851,-2.13224 -1.42348,-2.19727 0.065,-0.065 1.44536,0.0669 3.06739,0.29309 5.24349,0.73134 7.97768,0.48111 9.00434,-0.82408 0.77569,-0.98614 0.68694,-2.30002 -0.2699,-3.99545 -0.44611,-0.79046 -0.76444,-1.48387 -0.7074,-1.54091 0.22935,-0.22935 3.63248,1.11736 6.39361,2.53012 l 2.9301,1.49921 -0.0865,2.23112 c -0.0609,1.57082 0.0174,2.35899 0.26458,2.66318 0.2333,0.28711 1.27145,0.57135 3.0945,0.84725 1.50889,0.22835 2.80912,0.48088 2.88941,0.56117 0.0803,0.0803 -0.11188,0.42047 -0.42705,0.75595 -0.96151,1.02348 -1.24062,3.19949 -0.74979,5.84552 0.6962,3.75324 1.95587,5.97784 3.3849,5.97784 0.33097,0 0.49348,0.19032 0.49348,0.57792 0,1.60182 1.81069,3.87737 3.95628,4.97197 0.9562,0.48782 1.11191,0.49755 2.14257,0.13391 0.61129,-0.21567 1.15599,-0.39213 1.21046,-0.39213 0.23764,0 0.0649,1.07632 -0.32387,2.01821 -1.00548,2.4359 -2.30706,3.37382 -6.19169,4.46177 -2.87208,0.80437 -6.955,1.6754 -7.96596,1.69942 l -0.95451,0.0227 -3.46043,-6.94531 z m 15.16367,-3.98954 c -1.13826,-1.09064 -1.51525,-2.06532 -0.93704,-2.42267 0.14202,-0.0878 0.97047,-0.0125 1.84099,0.16732 1.28939,0.26632 1.70419,0.26193 2.23786,-0.0237 0.92528,-0.49519 1.3213,-1.62734 1.13108,-3.23349 l -0.15968,-1.34827 1.97657,-1.88395 c 1.5242,-1.45276 1.97644,-2.05047 1.97598,-2.61154 -8e-4,-0.79383 -0.5254,-0.97362 -1.03821,-0.35572 -0.16975,0.20454 -1.20407,0.9909 -2.29848,1.74747 l -1.98984,1.37557 -1.8071,-0.58106 c -2.6239,-0.84369 -3.2838,-0.36867 -3.14744,2.26565 0.0533,1.02911 -0.0423,1.32763 -0.55922,1.74618 -0.34291,0.27767 -0.81247,0.47009 -1.04346,0.4276 -0.53573,-0.0986 -1.61673,-3.26049 -1.80484,-5.27917 -0.28309,-3.03783 0.3761,-3.63732 3.43264,-3.12177 1.4403,0.24294 1.98983,0.47914 2.72264,1.17027 0.50496,0.47624 0.91811,1.12346 0.91811,1.43827 0,1.26521 1.24845,0.92057 2.01167,-0.55534 0.47504,-0.91863 0.33926,-1.17799 -1.34163,-2.56258 -2.37861,-1.95931 -7.4904,-4.01325 -11.07845,-4.45135 -0.70416,-0.086 -1.34144,-0.3157 -1.41619,-0.51048 -0.21495,-0.56015 0.44674,-2.9338 1.02154,-3.66454 0.2875,-0.36549 0.77181,-0.66452 1.07626,-0.66452 0.7092,0 3.7628,1.67166 7.52733,4.12077 3.30414,2.14959 4.42486,3.42601 4.17975,4.76044 -0.30449,1.65769 0.76641,1.79615 1.73764,0.22467 0.36951,-0.59789 0.49319,-1.09509 0.37192,-1.49511 -0.34861,-1.14989 -2.34217,-3.53382 -5.74085,-6.865 -3.73404,-3.65987 -3.73689,-3.66609 -2.40823,-5.24512 0.36669,-0.43578 0.88198,-0.79232 1.1451,-0.79232 0.93307,0 5.58949,5.79963 9.0587,11.28272 2.18417,3.45208 5.76169,10.10276 5.76169,10.7111 0,0.37547 -2.03167,1.66286 -4.55315,2.88514 -1.046,0.50705 -1.31308,0.54815 -1.66486,0.2562 -0.24478,-0.20315 -0.50555,-0.24789 -0.62717,-0.1076 -0.11449,0.13208 -0.67499,0.82575 -1.24556,1.54149 -1.18074,1.48117 -2.86956,2.79969 -3.58597,2.79969 -0.26666,0 -1.0227,-0.51537 -1.6801,-1.14527 z m 11.5573,-1.86481 c 0.0732,-1.00229 0.18124,-1.14458 1.32881,-1.75065 1.15077,-0.60778 1.28277,-0.62601 1.67717,-0.23161 0.23545,0.23544 0.44726,0.8197 0.47071,1.29835 0.0401,0.81813 -0.044,0.90547 -1.40364,1.45812 -1.84235,0.74887 -2.17526,0.62454 -2.07305,-0.77421 z m -11.11374,-2.77343 c -0.4244,-0.26917 -0.67918,-2.06177 -0.32422,-2.28114 0.14154,-0.0875 0.6029,0.0196 1.02524,0.23804 0.69626,0.36005 1.08641,1.05042 1.09612,1.93963 0.004,0.37133 -1.26007,0.4441 -1.79714,0.10347 z m -51.32864,-5.38735 c -0.0771,-0.90434 0.0108,-1.01084 2.11667,-2.56584 2.65134,-1.95775 6.8608,-4.09969 9.20461,-4.68366 1.84653,-0.46008 4.40328,-0.39208 5.56504,0.14802 0.81739,0.37999 1.95945,1.98787 1.76742,2.4883 -0.10568,0.27541 -0.98368,0.40026 -3.53612,0.50282 -2.70733,0.10878 -3.84493,0.28148 -5.61289,0.85209 -2.86209,0.92374 -5.67571,2.21164 -7.46685,3.41787 -0.78295,0.52727 -1.54368,0.91935 -1.6905,0.87129 -0.14682,-0.0481 -0.30314,-0.51197 -0.34738,-1.03089 z m -13.56176,-2.15615 c -3.48074,-1.73991 -7.46778,-4.4829 -9.70681,-6.67804 -2.71239,-2.65924 -2.61009,-3.07315 1.10519,-4.47146 6.3883,-2.40435 14.44566,-3.2783 30.64434,-3.32388 4.62028,-0.013 8.40052,-0.11759 8.40052,-0.23241 0,-0.38128 -3.26013,-0.87414 -6.87917,-1.03998 -2.88942,-0.1324 -3.57187,-0.23787 -3.57187,-0.55203 0,-0.22072 1.08493,-0.96304 2.51354,-1.71979 2.4309,-1.28767 2.58312,-1.33085 4.63021,-1.31365 1.57426,0.0132 2.61203,0.19421 4.04978,0.70627 6.18206,2.20174 12.65337,8.13154 10.84626,9.93865 -0.51342,0.51342 -3.98377,0.37473 -9.24534,-0.36948 -5.93657,-0.83969 -12.78383,-1.09974 -16.9687,-0.64447 -4.62129,0.50276 -8.42826,1.25005 -8.90114,1.74725 -0.38774,0.40769 -0.33122,0.42953 0.77226,0.2983 0.65484,-0.0779 2.8575,-0.34253 4.89479,-0.58813 5.12862,-0.61825 14.23008,-0.4845 15.31296,0.22504 1.08088,0.70821 0.72753,1.08537 -1.17882,1.25825 -3.37054,0.30566 -7.55013,2.03549 -11.47675,4.74996 -1.04518,0.72254 -2.03062,1.3137 -2.18987,1.3137 -0.15926,0 -0.88386,-1.10243 -1.61023,-2.44984 -1.76213,-3.26875 -3.26162,-4.66046 -2.25196,-2.09009 0.55962,1.42465 0.37359,1.79025 -2.34594,4.61026 l -2.04223,2.11767 -1.17236,-0.13214 c -0.6448,-0.0727 -2.2777,-0.68466 -3.62866,-1.35996 z"
             style="fill: #5d140a;
  stroke-width: 0.26458332;" />
          <path
             sodipodi:nodetypes="ccscsssccscssscccsccscscscssccsscscsscsscsccscccccsccccsccsccccccccscscccccccccscccsscsccsccccccssssscccccccccccccccccccccscccccsssccccsccccccccscscccccsccccsccccccsccccssscccsccsscccccccccccssccccccscsscccccccsccccsccccccscccscccccscssccscscccccccscsccccsssccccccccccsccsccccssccscsccsccccccsccsccccccccccssscccsssccsscccccccccsssccscsccscccsscsscscssscsccccsccscscccsscsccccsscscccccsscccccssssccccsscccscccscccccccccccscsccccccssscssssccsssscscccccc"
             inkscape:connector-curvature="0"
             id="path3822"
             d="m 210.91407,240.76076 c 0.92206,-0.69791 2.38688,-1.55582 3.25516,-1.90647 2.16572,-0.87462 4.22509,-2.92706 4.53803,-4.52276 l 0.22855,-1.1654 1.58105,-0.21818 c 8.10424,-1.11836 14.16643,-3.26319 19.96959,-7.06531 4.91422,-3.2197 8.91231,-7.04246 12.30621,-11.76651 1.97941,-2.75519 4.79694,-8.29551 5.80935,-11.42338 0.38505,-1.18963 0.84212,-2.27379 1.01571,-2.40925 0.17358,-0.13546 1.46546,-0.50761 2.87084,-0.82699 3.17416,-0.72136 6.45574,-2.27662 7.86274,-3.72645 1.65178,-1.70203 1.98629,-3.07063 1.80563,-7.38742 -0.45728,-10.92675 -7.24118,-27.33456 -16.23663,-39.27058 -3.47678,-4.61333 -5.32878,-6.52572 -6.31963,-6.52572 -1.24536,0 -2.62774,1.12353 -3.44984,2.80383 -0.64271,1.31365 -0.69718,1.6147 -0.45579,2.51906 0.33094,1.2399 0.12144,1.29283 -1.97028,0.49781 -0.76554,-0.29097 -1.50934,-0.52903 -1.65288,-0.52903 -0.14354,0 -0.74155,0.43415 -1.3289,0.96479 l -1.06791,0.96479 -2.57087,-1.34113 c -3.36582,-1.75584 -6.17026,-2.85338 -9.58453,-3.751 -1.8695,-0.49151 -3.28358,-1.05289 -4.31656,-1.71368 -2.9732,-1.90194 -7.10696,-3.31351 -9.72825,-3.32195 -1.85753,-0.006 -3.36503,0.56028 -7.46117,2.80259 l -3.75953,2.05806 -5.3192,0.32577 c -8.63019,0.52854 -15.16727,1.62418 -19.8929,3.33411 -3.80378,1.37637 -4.47228,2.42429 -3.01046,4.71908 0.86247,1.35391 1.94523,2.37031 5.00537,4.69863 1.20055,0.91344 2.18282,1.76538 2.18282,1.89319 0,0.12782 -0.2782,0.56895 -0.61822,0.9803 -2.38951,2.89075 -5.58461,8.7296 -6.99693,12.78645 -1.87052,5.37298 -2.55649,10.12089 -2.3758,16.44399 0.19566,6.84709 1.39854,11.84372 4.3136,17.91822 0.7942,1.65501 1.44401,3.22076 1.44401,3.47946 0,0.2587 -0.2947,1.10645 -0.65489,1.88389 -0.36019,0.77743 -0.72889,1.90693 -0.81932,2.50999 -0.4322,2.88214 2.99058,6.6594 8.58588,9.47506 3.58305,1.80306 11.61318,4.11647 14.28877,4.11647 0.60848,0 1.14535,0.31785 2.14125,1.26774 0.73103,0.69726 1.32915,1.34731 1.32915,1.44457 0,0.0973 -0.47512,0.92576 -1.05582,1.84112 -0.64257,1.01287 -1.05681,1.98553 -1.05834,2.48505 -0.006,1.98746 2.53885,3.97594 4.72836,3.69449 1.10742,-0.14235 1.20832,-0.096 2.26745,1.04132 1.44902,1.55601 2.02994,1.54507 4.17513,-0.0786 z m -3.28126,-0.75647 c -0.70634,-0.63923 -0.59398,-1.29975 0.33342,-1.96012 1.1808,-0.84081 2.35772,-2.57971 2.35772,-3.48355 0,-0.42629 -0.31368,-1.55916 -0.69708,-2.51749 -0.66179,-1.65422 -0.67319,-1.75989 -0.22532,-2.08738 0.37283,-0.27261 0.40606,-0.42411 0.15849,-0.72242 -0.34047,-0.41023 -2.00985,-0.81309 -2.39162,-0.57715 -0.12986,0.0803 0.22751,1.18736 0.79416,2.46023 0.56665,1.27287 1.03211,2.64683 1.03436,3.05324 0.009,1.64284 -4.07499,4.7408 -5.63231,4.27234 -0.79402,-0.23885 -2.30109,-1.70855 -2.30109,-2.24403 0,-0.41717 1.49535,-2.83505 2.60682,-4.21506 0.63405,-0.78723 0.5544,-0.95405 -0.70669,-1.48002 -1.02745,-0.42853 -2.69107,-1.87735 -2.69793,-2.34959 -0.002,-0.15335 -0.11222,-0.44976 -0.24442,-0.65869 -0.20206,-0.31931 -0.30863,-0.32321 -0.66862,-0.0244 -1.25024,1.0376 -1.03715,-1.56792 0.33393,-4.08319 1.47217,-2.7007 4.34934,-4.03314 8.13242,-3.76616 1.17918,0.0832 2.43353,0.28358 2.78745,0.44526 1.91431,0.87449 5.24797,7.30524 6.44124,12.42536 0.37974,1.6294 0.37332,1.74604 -0.1419,2.57969 -0.2968,0.48022 -0.57971,0.87313 -0.6287,0.87313 -0.049,0 -0.26277,0.0666 -0.47507,0.14812 -0.30338,0.11642 -0.42496,-0.21574 -0.56806,-1.552 -0.12142,-1.13378 -0.48515,-2.3025 -1.09187,-3.5084 -0.50039,-0.99455 -0.84617,-2.00874 -0.76841,-2.25374 0.0993,-0.31298 -0.0515,-0.49388 -0.50713,-0.60824 -0.66997,-0.16815 -1.56562,0.0401 -1.42935,0.33238 0.0425,0.0912 0.60448,1.21102 1.24879,2.48846 0.90322,1.79079 1.17585,2.6287 1.19062,3.6593 l 0.0192,1.33668 -2.30369,2.22768 c -2.39563,2.31658 -3.05025,2.6125 -3.95933,1.7898 z m 10.70471,-8.6241 c -0.13931,-0.1819 -0.58463,-1.28323 -0.98958,-2.44739 -2.10058,-6.03884 -5.57841,-10.77953 -10.12951,-13.80773 -2.42991,-1.61681 -2.42966,-1.61644 -3.26095,-4.71311 -0.87319,-3.25279 -2.71645,-7.01145 -3.43843,-7.01145 -0.10884,0 0.1461,0.81872 0.56653,1.81937 1.08369,2.57925 2.15225,6.6955 1.82347,7.02428 -0.17479,0.17479 -0.8684,0.0536 -2.06207,-0.36033 -2.8659,-0.99379 -2.81515,-0.48913 0.0983,0.97785 2.62275,1.32058 3.54013,1.99667 3.08825,2.27595 -0.12688,0.0784 -1.07041,0.31766 -2.09673,0.53166 -4.7476,0.9899 -8.36229,4.22102 -9.76634,8.72999 -0.26579,0.85354 -0.62292,1.60549 -0.79362,1.67099 -1.05453,0.40466 -8.51383,-3.07438 -11.11268,-5.18298 -5.20727,-4.22498 -4.35344,-7.45342 4.24445,-16.04876 5.38241,-5.38082 14.10712,-12.55052 15.27255,-12.55052 0.28033,0 0.96585,0.23271 1.52338,0.51714 1.54717,0.78931 6.29647,2.55144 9.19931,3.41321 4.12362,1.22419 6.82673,1.69061 10.79425,1.86253 l 3.69813,0.16024 1.11084,1.5875 c 1.41365,2.02024 1.43931,2.55703 0.15801,3.30525 -1.97455,1.15304 -4.53983,3.27353 -4.84164,4.00216 -0.23795,0.57445 -0.23203,1.0648 0.0259,2.14272 0.41042,1.71546 1.99257,5.55731 3.61479,8.77756 l 1.21395,2.40981 -0.56732,1.56685 c -0.31203,0.86176 -0.51214,1.62203 -0.44468,1.68948 0.42243,0.42244 3.46913,-2.40068 3.88996,-3.60451 0.46283,-1.32396 0.38941,-5.43148 -0.15235,-8.52387 -0.4295,-2.45158 -0.42678,-2.57083 0.0973,-4.26778 0.29656,-0.96015 0.68765,-1.86132 0.86909,-2.00261 0.18144,-0.14129 1.03251,-0.39331 1.89128,-0.56004 1.69657,-0.32941 2.11024,-0.18608 2.43458,0.84356 0.53985,1.71383 3.64803,8.5945 4.22271,9.34794 0.36972,0.48473 1.05302,1.07835 1.51844,1.31914 1.06656,0.55181 3.2566,1.14188 4.25335,1.14599 l 0.7613,0.003 -1.09203,-1.18471 c -0.60062,-0.65159 -1.0955,-1.39573 -1.09975,-1.65365 -0.0288,-1.74762 -0.55981,-7.58132 -0.79191,-8.69935 -0.16104,-0.77574 -0.53435,-1.59359 -0.87232,-1.9111 -0.32495,-0.30526 -1.89739,-1.16999 -3.49432,-1.92162 -1.59694,-0.75162 -2.98368,-1.4923 -3.08166,-1.64594 -0.30212,-0.47382 -0.55436,-3.39156 -0.31366,-3.62833 0.32315,-0.31788 6.25028,0.23399 6.61697,0.61611 0.59611,0.62115 6.70712,19.29181 6.70712,20.49188 0,0.62728 -2.49294,3.01195 -5.59824,5.35509 -4.9859,3.76216 -11.70364,6.67555 -17.94967,7.78454 -4.16697,0.73985 -5.39136,0.81526 -5.74477,0.35385 z m -4.65939,-22.66343 c 1.33547,-0.0893 2.51816,-0.25248 2.62819,-0.36251 0.51334,-0.51334 -0.68554,-0.67592 -5.66354,-0.76803 l -5.36971,-0.0994 0.0781,0.6688 c 0.078,0.66818 0.0808,0.66883 2.98846,0.69618 1.60073,0.0151 4.00308,-0.0457 5.33855,-0.13508 z m -19.32731,18.20892 c -0.99255,-0.2756 -1.02009,-0.31481 -0.89197,-1.27003 0.20507,-1.52886 1.36253,-3.71768 2.84606,-5.38201 2.13316,-2.39316 5.29916,-3.64397 9.22345,-3.64397 1.56532,0 1.871,0.0831 2.40786,0.65456 0.73344,0.78071 0.64684,0.82603 -1.98668,1.03963 -2.97862,0.24159 -4.26046,0.80591 -6.12113,2.69482 -1.60831,1.63271 -1.95399,2.3332 -2.89358,5.8636 -0.10783,0.40516 -1.21419,0.42375 -2.58401,0.0434 z m 32.50369,-6.88332 c -0.0991,-0.45135 -0.99348,-2.50518 -1.98744,-4.56406 -2.01716,-4.17835 -2.63687,-5.85933 -2.63687,-7.15257 0,-0.73884 0.24187,-1.08748 1.53416,-2.21149 3.46007,-3.00947 4.7411,-3.36105 3.21614,-0.88267 -0.46378,0.75374 -0.79145,1.42222 -0.72816,1.48552 0.0633,0.0633 0.51725,-0.29986 1.00879,-0.80701 0.86586,-0.89334 1.58366,-1.19387 1.58366,-0.66305 0,0.14247 -0.25313,1.03012 -0.56252,1.97256 -0.55814,1.70021 -0.55888,1.73676 -0.0957,4.70191 0.60464,3.87078 0.61432,7.37468 0.0229,8.27735 -0.58913,0.89914 -1.13696,0.83587 -1.35491,-0.15649 z m 21.90976,-4.008 c -0.1395,-0.1819 -0.99863,-2.59292 -1.90918,-5.35781 -1.75972,-5.34342 -4.34781,-12.50564 -4.93591,-13.65952 -0.33412,-0.65555 -0.52679,-0.71352 -3.40021,-1.02304 -1.77237,-0.19091 -3.16326,-0.46938 -3.32641,-0.66596 -0.21151,-0.25485 0.0631,-0.63149 1.11768,-1.53294 0.76895,-0.65729 1.80717,-1.74153 2.30716,-2.40941 0.49999,-0.66789 1.07051,-1.21434 1.26784,-1.21434 0.19732,0 0.72033,0.80367 1.16225,1.78594 3.04897,6.777 8.87263,23.11928 8.54394,23.97586 -0.19822,0.51654 -0.48201,0.55127 -0.82716,0.10122 z m -8.55725,-0.86927 c -1.38,-0.87116 -1.77902,-1.56329 -3.70723,-6.43063 -1.59961,-4.03786 -1.77133,-4.96712 -0.85272,-4.61462 0.45131,0.17318 0.45176,0.14986 0.01,-0.52432 -0.52215,-0.7969 -0.60493,-1.51793 -0.17427,-1.51793 0.15842,0 1.39159,0.52966 2.74039,1.17702 2.82734,1.35699 2.91039,1.48049 3.30057,4.9084 0.21586,1.8964 0.42511,6.81621 0.31791,7.47448 -0.0577,0.35428 -0.5509,0.21175 -1.63466,-0.4724 z m 8.2633,-7.72337 c -1.50219,-4.39551 -2.01496,-6.21248 -1.80087,-6.38135 0.41605,-0.3282 10.70722,-0.58952 10.90049,-0.2768 0.49019,0.79315 -3.14783,8.75934 -5.42419,11.87735 -0.80118,1.0974 -1.13801,1.36731 -1.38954,1.11347 -0.10215,-0.10309 -1.1308,-2.95279 -2.28589,-6.33267 z m -71.85025,-0.66778 c -3.0194,-6.32059 -4.31549,-12.82271 -4.04782,-20.30677 0.23128,-6.46657 1.40995,-11.3376 4.13557,-17.0909 1.34384,-2.83661 4.29066,-7.49697 5.39749,-8.53605 l 0.6645,-0.62383 2.73072,1.32862 c 1.50189,0.73074 3.3425,1.47705 4.09024,1.65847 1.29231,0.31353 1.41882,0.2951 2.55861,-0.37286 0.6595,-0.38649 1.94028,-1.53669 2.84618,-2.556 0.90591,-1.0193 1.7937,-1.85328 1.97288,-1.85328 0.17917,0 0.58886,0.61158 0.91042,1.35906 0.45889,1.06672 0.62589,2.13383 0.77639,4.96094 0.10546,1.98103 0.151,3.72712 0.1012,3.8802 -0.0498,0.15307 -0.47382,0.3912 -0.94226,0.52916 -1.27299,0.37493 -2.04359,2.06669 -2.03797,4.4741 0.005,2.19461 0.65453,3.6007 2.11635,4.58233 0.72458,0.48656 0.9603,0.8565 1.10084,1.72761 0.26849,1.66429 0.25289,9.58132 -0.0203,10.29985 -0.13108,0.34478 -1.17288,1.32619 -2.3151,2.18091 -6.51532,4.87539 -13.42029,11.07949 -16.66083,14.96975 -0.84119,1.00985 -1.68212,1.83609 -1.86871,1.83609 -0.1866,0 -0.86538,-1.10133 -1.50841,-2.4474 z m 53.0627,-3.85497 c -1.14199,-1.26097 -2.78175,-4.18958 -2.60446,-4.65159 0.077,-0.20077 1.2691,-0.62771 2.70581,-0.96909 2.45883,-0.58425 2.58287,-0.59001 2.91537,-0.13529 0.73882,1.0104 1.217,5.34047 0.68276,6.18258 -0.28083,0.44267 -1.60995,0.83321 -2.2885,0.67244 -0.29105,-0.069 -0.92598,-0.56353 -1.41098,-1.09905 z m 15.64226,-4.28096 c -0.18726,-0.36381 -1.48833,-3.38253 -2.89127,-6.70829 -2.75347,-6.52724 -2.72592,-6.32519 -0.90613,-6.64734 2.38376,-0.42198 8.76328,-2.09949 10.19185,-2.67997 0.87204,-0.35434 1.96317,-1.01028 2.42474,-1.45765 1.08377,-1.05043 2.35172,-3.83751 2.81471,-6.18696 0.35807,-1.81712 0.39286,-1.87141 1.84249,-2.87573 0.81264,-0.563 1.60812,-0.94293 1.76773,-0.84428 0.39904,0.24662 0.36696,2.40415 -0.0405,2.72509 -0.1819,0.14327 -0.64316,0.33495 -1.02501,0.42595 -0.61801,0.14727 -0.75512,0.40801 -1.24804,2.37333 -0.30456,1.21433 -0.63397,2.41693 -0.73202,2.67243 -0.14312,0.37296 -0.0567,0.44693 0.43803,0.37514 0.48891,-0.071 0.77448,-0.4811 1.38156,-1.98435 0.62195,-1.54008 0.89722,-1.92804 1.46998,-2.07179 0.94341,-0.23678 1.36915,-0.62224 1.36915,-1.23962 0,-0.55367 2.30299,-1.73789 3.87982,-1.99504 0.71942,-0.11732 0.89192,-0.0299 1.22702,0.62201 0.55289,1.0756 1.96214,5.74437 2.73379,9.05693 0.89714,3.85127 1.14837,9.07431 0.5161,10.72986 -1.27301,3.33335 -6.31838,5.43013 -15.2359,6.33182 -0.50932,0.0515 -2.88615,0.0816 -5.28183,0.0668 l -4.3558,-0.0269 z m -28.40601,-2.27738 c -4.79728,-0.81804 -14.19557,-3.99822 -15.90385,-5.3815 -0.53395,-0.43237 -0.5503,-0.64918 -0.50047,-6.63871 0.0325,-3.90504 0.1553,-6.31683 0.33257,-6.53042 0.22077,-0.26602 0.0427,-0.33866 -0.83002,-0.33866 -2.08152,0 -3.28564,-2.05439 -2.76093,-4.71053 0.49697,-2.51578 2.20451,-2.11004 3.12177,0.74178 0.54577,1.69684 0.56689,1.72092 1.58205,1.8041 l 1.02889,0.0843 -0.18414,-0.87806 c -0.82352,-3.92696 -0.93836,-5.43255 -0.5334,-6.99267 0.22247,-0.85707 0.67777,-2.15679 1.01179,-2.88828 0.51572,-1.12941 0.84502,-1.45668 2.18359,-2.17013 2.48061,-1.32215 6.03394,-2.39638 8.82583,-2.66818 3.19263,-0.31081 6.03979,-0.0291 6.55907,0.64903 0.55586,0.72587 2.17039,4.11681 2.18342,4.58576 0.006,0.22238 0.29871,1.23777 0.65007,2.25642 l 0.63885,1.85208 1.99575,-0.094 c 2.24995,-0.10601 2.37526,0.026 1.40045,1.47586 l -0.59531,0.8854 -2.51355,-0.0753 c -2.26494,-0.0678 -2.59773,-0.0152 -3.36473,0.53186 -0.76654,0.54674 -1.04285,0.59055 -2.77813,0.44047 -1.76551,-0.1527 -2.14857,-0.0874 -4.57276,0.77901 -3.12677,1.11756 -4.03126,1.1636 -5.88698,0.29964 l -1.38906,-0.6467 v 0.61602 c 0,0.83071 0.66819,2.67269 1.28573,3.5443 0.27672,0.39057 0.93639,1.75892 1.46593,3.04078 2.54424,6.15879 4.88099,9.77896 6.97914,10.81233 1.0542,0.51921 1.64211,0.61236 3.76295,0.59623 2.66061,-0.0202 5.14977,-0.6849 8.02916,-2.144 1.44066,-0.73003 1.40356,-0.40471 0.44724,-3.9223 -0.3165,-1.16417 -0.70837,-3.75421 -0.87082,-5.75564 -0.28284,-3.48478 -0.27268,-3.66976 0.23985,-4.36563 1.08087,-1.46751 1.15373,-1.77517 0.89966,-3.7986 -0.26144,-2.08212 -0.20423,-2.40845 0.38274,-2.18322 0.6563,0.25185 4.98267,8.1088 8.03606,14.59398 l 1.89448,4.02373 -0.63866,1.25623 c -1.71528,3.37396 -5.97046,6.31589 -10.61,7.33552 -2.27556,0.5001 -8.00893,0.48849 -11.00423,-0.0223 z m 8.61848,-2.58465 c 2.40281,-0.78493 3.96347,-1.59899 4.48043,-2.33705 0.83082,-1.18616 0.41612,-1.24662 -1.50387,-0.21925 -2.10623,1.12701 -4.54733,1.99253 -6.40568,2.27121 -1.23028,0.18449 -1.52511,0.46825 -0.78258,0.75318 0.80138,0.30752 2.37163,0.133 4.2117,-0.46809 z m -25.79787,-17.82599 c -5.3e-4,-0.10914 -0.25695,-0.61516 -0.56979,-1.12448 -0.671,-1.09243 -0.97405,-0.66744 -0.36454,0.51123 0.38162,0.73797 0.93677,1.10234 0.93433,0.61325 z m 17.23266,-5.53204 c 0.53544,-0.64703 2.3483,-1.40081 3.385,-1.40747 0.49786,-0.003 1.12367,0.1919 1.39068,0.43354 0.63201,0.57197 0.91155,0.26854 0.59232,-0.64295 -0.23564,-0.67282 -0.37009,-0.72795 -1.95735,-0.80266 -0.93737,-0.0441 -1.84575,-0.1976 -2.01861,-0.34107 -0.17286,-0.14346 -0.5175,-1.05986 -0.76588,-2.03644 -0.69349,-2.72678 -0.65436,-2.64265 -0.96876,-2.08252 -0.2849,0.50756 -0.12787,2.23633 0.35383,3.89543 0.22978,0.79143 0.18445,1.1092 -0.28252,1.98046 -0.30592,0.57078 -0.55621,1.12884 -0.55621,1.24013 0,0.34918 0.44905,0.22087 0.8275,-0.23645 z m -3.80239,-2.00859 c -0.13045,-0.39738 -2.10923,-0.92481 -4.33416,-1.15523 -1.42807,-0.1479 -1.68727,-0.10105 -2.18281,0.39448 -0.30927,0.30927 -0.56231,0.68138 -0.56231,0.8269 0,0.1634 1.37436,0.26458 3.59392,0.26458 2.75666,0 3.56863,-0.0771 3.48536,-0.33073 z m 8.06812,-2.24443 c 1.01334,-0.41574 1.31686,-0.86442 0.58477,-0.86442 -0.43878,0 -2.503,0.98634 -2.503,1.196 0,0.23659 0.92169,0.0773 1.91823,-0.33158 z m -3.11314,24.00478 c -1.18682,-0.45123 -0.60637,-0.8496 2.1346,-1.46501 1.4477,-0.32504 3.62662,-0.9748 4.84203,-1.44391 1.98643,-0.7667 2.2509,-0.81188 2.61587,-0.44692 0.65122,0.65122 0.19385,1.21741 -1.66384,2.05973 -3.01715,1.36804 -6.31955,1.90789 -7.92866,1.29611 z m -3.31232,-2.25854 c -0.24018,-0.28941 -0.25649,-0.49028 -0.0561,-0.69069 0.43855,-0.43855 3.0897,-0.9749 5.80361,-1.17411 2.14424,-0.1574 2.46386,-0.1267 2.46386,0.23665 0,0.60048 -0.32524,0.7387 -3.2911,1.39859 -3.22809,0.71824 -4.46675,0.77603 -4.92029,0.22956 z m -2.98564,-5.4744 c -0.84686,-1.7074 -1.47239,-3.21336 -1.39006,-3.34657 0.0823,-0.13321 1.37053,-0.25581 2.86267,-0.27243 4.1244,-0.046 4.56267,-0.15965 7.01677,-1.82035 l 1.39338,-0.94291 1.48256,0.46734 c 0.89071,0.28077 1.82344,0.40338 2.33646,0.30714 l 0.8539,-0.16019 0.18355,3.51012 c 0.10095,1.93057 0.20846,3.7476 0.23891,4.03784 0.0534,0.509 -0.11355,0.52852 -4.70715,0.5502 -3.59178,0.017 -5.0877,0.12671 -6.08541,0.44645 -2.38161,0.76325 -2.45346,0.71559 -4.18558,-2.77664 z m 23.50016,-5.77109 c -2.03729,-4.00838 -3.91376,-7.66602 -4.16993,-8.1281 -0.71781,-1.29479 -1.26746,-1.47516 -3.3994,-1.11556 -1.01162,0.17063 -2.00251,0.24761 -2.20197,0.17107 -0.19946,-0.0765 -0.72707,-1.30829 -1.17248,-2.73723 -0.87824,-2.81752 -2.40453,-5.52169 -5.23396,-9.27316 -1.46745,-1.94565 -2.00536,-2.98219 -1.5476,-2.98219 0.0737,0 1.35364,0.18491 2.84427,0.41093 3.43895,0.52141 7.28874,0.57803 8.38648,0.12333 1.80807,-0.74893 1.91803,-2.72465 0.27766,-4.98911 -1.35041,-1.8642 -1.02435,-2.02442 1.94217,-0.95433 2.11285,0.76214 6.96092,3.13066 7.61439,3.71999 0.35597,0.32104 0.40628,0.78921 0.29483,2.74388 -0.15465,2.71216 -0.45982,2.43034 3.14036,2.90011 3.17507,0.4143 4.11253,0.94314 2.86007,1.61343 -1.27147,0.68048 -1.61895,3.20215 -0.90737,6.58488 0.71921,3.41902 1.43669,4.61788 2.93144,4.8983 0.81036,0.15203 0.90889,0.26228 0.9101,1.01839 0.002,1.13032 0.97101,2.67306 2.37957,3.78769 1.56705,1.24005 2.20186,1.35401 3.64276,0.65397 0.67579,-0.32832 1.29578,-0.48117 1.42552,-0.35143 0.28376,0.28376 -0.6031,2.93071 -1.48762,4.44003 -0.99341,1.69512 -3.03234,2.53812 -9.93033,4.10571 -5.1649,1.17373 -4.27988,1.8572 -8.59896,-6.6406 z m 16.56958,-2.74909 c -0.89496,-0.4628 -2.67896,-2.39333 -2.67896,-2.89899 0,-0.20174 0.21848,-0.63661 0.48551,-0.96638 0.43696,-0.53962 0.57321,-0.56901 1.3624,-0.2939 1.37154,0.47812 2.76179,0.38391 3.31235,-0.22446 0.48146,-0.532 0.62971,-2.2854 0.28506,-3.37131 -0.12226,-0.38521 0.30325,-0.91776 1.82787,-2.28771 1.18822,-1.06767 1.98723,-1.99384 1.98723,-2.30349 0,-0.43139 -0.2908,-0.295 -1.74115,0.81664 -2.7648,2.1191 -2.96872,2.18946 -4.57578,1.57883 -2.37613,-0.90286 -3.03999,-0.56332 -3.00822,1.53859 0.0232,1.53455 -0.22156,2.01255 -1.24831,2.43784 -0.62161,0.25748 -0.88991,0.26185 -1.18219,0.0193 -0.62637,-0.51984 -1.4999,-3.45932 -1.65568,-5.57145 -0.12794,-1.7346 -0.0785,-2.06763 0.39311,-2.64583 0.49211,-0.60339 0.71075,-0.65874 2.4906,-0.6305 2.68326,0.0426 4.70679,1.17952 4.70679,2.64458 0,0.88641 0.76018,0.7588 1.30946,-0.21981 0.3867,-0.68894 0.36737,-0.75109 -0.52007,-1.67218 -1.83738,-1.9071 -6.5832,-4.02784 -10.55656,-4.71736 -1.14014,-0.19786 -2.20693,-0.44251 -2.37062,-0.54368 -0.42848,-0.26481 -0.36618,-2.12231 0.10934,-3.26039 0.55936,-1.33875 1.14244,-1.91941 1.92739,-1.91941 1.18412,0 8.67235,4.36983 10.58665,6.17794 1.06325,1.00427 1.63107,2.02673 1.63107,2.93704 0,0.38519 0.15109,0.6746 0.35217,0.6746 0.53342,0 1.0614,-1.19028 0.86865,-1.95828 -0.25633,-1.02129 -3.75144,-5.07377 -6.40608,-7.42764 -1.29545,-1.14868 -2.43362,-2.28525 -2.52926,-2.52572 -0.0957,-0.24047 0.0101,-0.81713 0.23499,-1.28148 0.39946,-0.82481 1.7463,-2.15271 2.18339,-2.15271 0.36893,0 3.66015,3.68906 5.63319,6.31412 3.67676,4.8918 9.62095,15.23906 9.4031,16.36831 -0.12283,0.63672 -6.06384,4.03407 -6.58064,3.76312 -0.30813,-0.16155 -0.78716,0.20282 -1.8951,1.44154 -0.81551,0.91176 -1.8801,1.85354 -2.36576,2.09284 -1.07447,0.52943 -0.8956,0.52265 -1.77594,0.0674 z m 10.60176,-3.00172 c -0.0755,-1.02075 -0.0117,-1.13499 0.98693,-1.76537 0.58722,-0.3707 1.29372,-0.67399 1.57,-0.67399 0.55298,0 1.20133,1.2404 1.05245,2.01349 -0.0888,0.4609 -2.71875,1.74279 -3.26405,1.59093 -0.14553,-0.0405 -0.30092,-0.5648 -0.34533,-1.16506 z m -11.58453,-2.72354 c -0.53537,-0.44432 -0.50382,-2.78411 0.0404,-2.99293 0.53123,-0.20386 1.87154,0.48655 2.22435,1.14578 0.31716,0.59262 0.36204,1.95298 0.074,2.24278 -0.26423,0.26585 -1.86873,-0.006 -2.33871,-0.39563 z m -50.85663,-5.59174 c -0.0774,-0.90722 0.005,-1.00301 2.35602,-2.72839 5.19587,-3.81366 10.31466,-5.55484 13.66018,-4.64655 1.29612,0.35188 2.76166,1.75075 2.65609,2.53523 -0.0655,0.48676 -0.33625,0.54254 -3.37851,0.69603 -4.75105,0.23969 -9.52768,1.78913 -13.2561,4.3 -0.78295,0.52727 -1.54368,0.91935 -1.6905,0.87129 -0.14682,-0.0481 -0.30305,-0.51049 -0.34718,-1.02761 z m -13.56196,-2.15943 c -5.35581,-2.6772 -11.78337,-7.78634 -11.57998,-9.20471 0.11012,-0.7679 1.47174,-1.54175 4.28834,-2.43718 6.52453,-2.07423 13.56693,-2.76478 28.93748,-2.83748 4.69305,-0.0222 8.53281,-0.13625 8.53281,-0.25344 0,-0.38555 -2.96522,-0.83842 -6.60622,-1.00895 -4.46348,-0.20905 -4.57861,-0.44454 -1.09827,-2.24643 2.9636,-1.53436 4.5631,-1.78394 7.17963,-1.12031 6.4328,1.63155 14.43291,8.36747 12.3782,10.42218 -0.51342,0.51342 -3.98377,0.37473 -9.24534,-0.36948 -5.93657,-0.83969 -12.78383,-1.09974 -16.9687,-0.64447 -4.62129,0.50276 -8.42826,1.25005 -8.90114,1.74725 -0.38774,0.40769 -0.33122,0.42953 0.77226,0.2983 0.65484,-0.0779 2.8575,-0.34244 4.89479,-0.58793 2.7342,-0.32946 5.17527,-0.42098 9.32212,-0.3495 5.31853,0.0917 5.6481,0.127 6.18367,0.66257 0.75846,0.75845 0.44377,1.14826 -0.92699,1.14826 -2.86431,0 -7.96473,2.04662 -11.95131,4.79563 -1.02873,0.70938 -2.00072,1.28979 -2.15997,1.28979 -0.15926,0 -0.88386,-1.10243 -1.61023,-2.44984 -1.76213,-3.26875 -3.26162,-4.66046 -2.25196,-2.09009 0.55962,1.42465 0.37359,1.79025 -2.34594,4.61026 l -2.04223,2.11767 -1.17236,-0.13214 c -0.6448,-0.0727 -2.2777,-0.68466 -3.62866,-1.35996 z"
             style="fill: #0f0b0a;
  stroke-width: 0.26458332;" />
        </g>
      </g>
    </g>
  </g>
</svg>
