<svg id="Filled" height="512" viewBox="0 0 512 512" width="512" xmlns="http://www.w3.org/2000/svg"><g><g><circle cx="256" cy="256" fill="#abbf71" r="232"/><g><g><path d="m381.786 183.2c-7.494 42.99-36.587 78.61-64.693 98.48-29.033 20.491-57.079 25.232-83.93 20.8-26.879-5.223-54.24-18.037-81.7-37.8-26.682-19.655-53.463-46.256-61.031-76.6-16.915-62.071 56.927-96.213 142.731-111.523 42.779-7.207 83.5-7.4 112.126 10.8 28.511 17.27 44.932 52.935 36.497 95.843z" fill="#aa3947"/><path d="m251.352 272a79.911 79.911 0 0 1 -12.54-1.024c-21.768-4.319-44.82-15.14-68.517-32.166-27.055-19.959-44.387-40.72-48.813-58.471l-.082-.339-.091-.335c-2.379-8.73-1.589-15.309 2.642-22 12.993-20.537 55.862-39.07 114.686-49.585 16.363-2.743 30.449-4.08 43.072-4.08 19.982 0 35.6 3.486 46.409 10.361l.3.188.3.18c18.7 11.325 27 35.2 21.676 62.293l-.068.339-.058.34c-6.06 34.76-30.65 63-51.642 77.846-15.687 11.066-31.155 16.453-47.274 16.453z" fill="#fbb8b0"/></g><path d="m232 152a23.888 23.888 0 0 0 -12 3.211 24 24 0 1 0 0 41.578 24 24 0 1 0 12-44.789z" fill="#f5f5f5"/></g><path d="m272 352v-56c0-26.51-29.49-48-56-48a48.168 48.168 0 0 0 -10.352 1.12 48.035 48.035 0 0 0 -67.182-28.029 52.006 52.006 0 0 0 -56.719 86.034 48.072 48.072 0 0 0 22.653 54.675 48.535 48.535 0 0 0 -.4 6.2 48 48 0 0 0 48 48 48.547 48.547 0 0 0 6.2-.4 48.005 48.005 0 0 0 89.777-22.01 47.982 47.982 0 0 0 24.023-41.59z" fill="#fdbf67"/><path d="m400 296c0 35.346-4.654 48-40 48s-104-36.654-104-72 36.654-72 72-72 72 60.654 72 96z" fill="#abbf71"/><path d="m372.021 381.869c16.216 6.958 36.3-3.637 42.77-24.256a460.359 460.359 0 0 0 18.3-190.109c-2.423-21.475-20.108-35.7-37.357-31.969-17.3 3.732-28.236 21.208-26.235 39.185a396.334 396.334 0 0 1 -15.756 163.68c-5.392 17.264 2.009 36.5 18.278 43.469z" fill="#f15a57"/><circle cx="288" cy="384" fill="#aa3947" r="72"/><path d="m288 352-11.314 20.686-20.686 11.314 20.686 11.314 11.314 20.686 11.314-20.686 20.686-11.314-20.686-11.314z" fill="#f5f5f5"/></g><g><path d="m256 480a224.023 224.023 0 0 1 -181.5-355.306l-12.955-9.388a240.021 240.021 0 0 0 335.15 335.15l-9.389-12.956a222.356 222.356 0 0 1 -131.306 42.5z"/><path d="m437.317 98.756-12.084 10.488a224.012 224.012 0 0 1 -23.286 316.69l10.43 12.132a240.012 240.012 0 0 0 24.94-339.31z"/><path d="m256 32a223.014 223.014 0 0 1 154.482 61.792l11.037-11.584a240.006 240.006 0 0 0 -346.836 16.548l12.084 10.488a224 224 0 0 1 169.233-77.244z"/><path d="m208 208a32.058 32.058 0 0 0 12-2.331 32 32 0 1 0 0-59.338 32 32 0 1 0 -12 61.669zm0-48a15.973 15.973 0 0 1 7.994 2.136 8 8 0 0 0 8.012 0 16 16 0 1 1 0 27.728 8 8 0 0 0 -8.012 0 16 16 0 1 1 -7.994-29.864z"/><path d="m112 264h16v16h-16z"/><path d="m216 296h16v16h-16z"/><path d="m176 264h16v16h-16z"/><path d="m144 304h16v16h-16z"/><path d="m176 384h16v16h-16z"/><path d="m128 344h16v16h-16z"/><path d="m422.421 360.015a465.352 465.352 0 0 0 18.62-193.408c-1.512-13.4-8.21-25.277-18.377-32.575a35.709 35.709 0 0 0 -28.616-6.317 38.427 38.427 0 0 0 -6.683 2.1c-6.548-21-19.728-38.246-37.858-49.25-26.579-16.865-65.069-20.756-117.749-11.884-50.829 9.07-116.658 28.161-141.612 67.6-10.246 16.196-12.746 34.302-7.455 53.819a95.956 95.956 0 0 0 9.215 22.952 60 60 0 0 0 -18.972 96.723 56.071 56.071 0 0 0 23.1 56.21q-.034 1.008-.034 2.015a56.063 56.063 0 0 0 56 56q1.006 0 2.015-.036a56.013 56.013 0 0 0 78.136 13.892c15.149 15.6 35.599 26.144 55.849 26.144 38.043 0 76.776-37.213 79.809-75.251q.523.243 1.056.471a34.385 34.385 0 0 0 13.6 2.792 37.566 37.566 0 0 0 15.7-3.532c11.377-5.224 20.218-15.602 24.256-28.465zm-134.421-56.015q-1.689 0-3.379.1c-13.321-11.13-20.621-22.45-20.621-32.1 0-31.1 32.9-64 64-64 10.989 0 23.908 8.113 35.914 22.423a383.5 383.5 0 0 1 -3.674 43.435l-16.75-44.667-14.98 5.618 18.111 48.3-56.091-18.7-5.06 15.18 69.53 23.177q-3.408 15.429-8.093 30.676c-15.39-17.393-37.26-29.442-58.907-29.442zm-189.8-117.854-.044-.169c-4.155-15.247-2.35-28.7 5.516-41.137 17.039-26.933 63.527-48.386 130.825-60.4 48.573-8.178 83.411-5.021 106.5 9.664.05.032.1.062.149.092 16.147 9.78 27.516 25.765 32.314 45.3a45.5 45.5 0 0 0 -11.908 36.122q1.815 15.994 2.317 31.937a78.463 78.463 0 0 0 -11.343-8.208 110.355 110.355 0 0 0 5.621-20.29l.091-.5c5.994-30.484-3.731-57.567-25.386-70.681l-.441-.274c-12.116-7.7-29.175-11.61-50.7-11.61-13.071 0-27.595 1.373-44.481 4.211a422.012 422.012 0 0 0 -47.544 11.197l4.628 15.317a405.156 405.156 0 0 1 45.646-10.739c15.92-2.678 29.576-3.978 41.749-3.978 18.437 0 32.607 3.065 42.117 9.112l.295.188.153.095.293.177c15.747 9.537 22.633 30.194 17.974 53.89l-.067.339c-.013.067-.026.134-.037.2l-.056.325a94.054 94.054 0 0 1 -4.634 16.871 41.308 41.308 0 0 0 -9.747-1.197c-32.458 0-65.419 27.09-76.28 58.668-10.914-6.797-23.61-10.668-35.72-10.668q-2.64 0-5.267.246a56.158 56.158 0 0 0 -62.26-31.067c-10.316-11-16.936-21.579-19.228-30.775l-.084-.337c-.015-.06-.031-.12-.047-.179l-.089-.325c-1.8-6.6-1.341-10.832 1.685-15.615 6.6-10.428 23.661-21.1 48.047-30.052l-5.514-15.02c-28.077 10.306-47.46 22.934-56.055 36.518-5.478 8.658-6.588 17.41-3.6 28.387l.129.493c2.145 8.6 6.741 17.576 13.716 26.808a60.778 60.778 0 0 0 -19.656-.521 82.635 82.635 0 0 1 -9.577-22.415zm101.8 245.854a40.106 40.106 0 0 1 -34.842-20.336 8.011 8.011 0 0 0 -7.986-4 40.479 40.479 0 0 1 -5.172.336 40.045 40.045 0 0 1 -40-40 40.479 40.479 0 0 1 .331-5.172 8 8 0 0 0 -4-7.986 40.073 40.073 0 0 1 -18.881-45.576 8 8 0 0 0 -2.436-8.159 44.009 44.009 0 0 1 47.988-72.8 8 8 0 0 0 7.055-.066 40.034 40.034 0 0 1 55.98 23.359 8 8 0 0 0 9.323 5.336 40.252 40.252 0 0 1 8.64-.936c10.867 0 22.869 4.412 32.158 11.682q-.158 2.158-.158 4.318c0 11.906 5.992 24.218 17.477 36.14-31.066 11.271-57.477 43.81-57.477 75.86 0 14.367 5.308 28.833 13.962 41.436a39.883 39.883 0 0 1 -21.962 6.564zm88 16c-31.1 0-64-32.9-64-64s32.9-64 64-64c26.921 0 55.187 24.646 62.3 51.442l-.641.36q.585 1.043 1.22 2.039a47.978 47.978 0 0 1 1.121 10.159c0 31.1-32.9 64-64 64zm103.489-74.059a19.924 19.924 0 0 1 -16.32.573 23.728 23.728 0 0 1 -9.532-7.46 77.836 77.836 0 0 0 -6.077-15.321l.5-.031a30.145 30.145 0 0 1 1.315-10.9 401.794 401.794 0 0 0 16.077-166.966c-1.6-14.331 7.178-27.719 19.978-30.481a19.917 19.917 0 0 1 15.905 3.676c6.5 4.664 10.8 12.454 11.809 21.376q1.671 14.731 2.387 29.428c-6.523-5.328-13.172-10.453-19.884-15.326l-9.4 12.949c10.167 7.379 20.184 15.363 29.819 23.764q.024 17.685-1.339 35.268-8.731-9.159-17.867-17.7l-10.925 11.69c9.175 8.575 18.122 17.733 26.632 27.259q-2.2 17.469-5.776 34.781c-5-6.784-10.182-13.4-15.489-19.781l-12.302 10.227c8.02 9.645 15.737 19.845 22.976 30.359q-3.075 12-6.818 23.891c-2.688 8.56-8.398 15.384-15.669 18.725z"/><path d="m323.839 376.981-18.631-10.189-10.189-18.631a8 8 0 0 0 -14.038 0l-10.189 18.631-18.631 10.189a8 8 0 0 0 0 14.038l18.631 10.189 10.189 18.631a8 8 0 0 0 14.038 0l10.189-18.631 18.631-10.189a8 8 0 0 0 0-14.038zm-28.364 11.319a7.989 7.989 0 0 0 -3.18 3.18l-4.3 7.852-4.3-7.852a7.989 7.989 0 0 0 -3.18-3.18l-7.852-4.3 7.852-4.3a7.989 7.989 0 0 0 3.18-3.18l4.3-7.852 4.3 7.852a7.989 7.989 0 0 0 3.18 3.18l7.852 4.3z"/></g></g></svg>