<svg id="Layer_1" enable-background="new 0 0 512 512" height="512" viewBox="0 0 512 512" width="512" xmlns="http://www.w3.org/2000/svg"><g><path d="m15.239 496.057c-2.899-2.984-4.971-6.428-6.223-10.098-3.663-10.564-.608-22.896 8.457-30.787l92.058-79.769 26.177 26.177-79.175 92.977c-10.584 12.608-29.775 13.344-41.294 1.5z" fill="#f79e60"/><path d="m15.239 496.057c-2.899-2.984-4.971-6.428-6.223-10.098 10.543 3.698 22.833.813 30.547-8.372l79.175-92.977 16.971 16.971-79.175 92.977c-10.585 12.607-29.776 13.343-41.295 1.499z" fill="#d77d41"/><path d="m443.817 361.098c-80.914 80.886-212.097 80.886-293.004-.007-3.783-3.783-7.389-7.672-10.819-11.653-69.919-81.388-66.313-204.169 10.819-281.272 77.166-77.152 200.061-80.716 281.464-10.713 3.946 3.394 7.799 6.965 11.54 10.705 80.907 80.894 80.907 212.048 0 292.94z" fill="#ed2061"/><path d="m443.817 361.098c-80.914 80.886-212.097 80.886-293.004-.007-3.783-3.783-7.389-7.672-10.819-11.653 81.395 70.01 204.29 66.447 281.464-10.698 77.131-77.117 80.737-199.899 10.819-281.286 3.946 3.394 7.799 6.965 11.54 10.705 80.907 80.893 80.907 212.047 0 292.939z" fill="#c71e54"/><path d="m421.458 338.74c-68.561 68.547-179.725 68.54-248.294 0-3.578-3.578-6.965-7.262-10.161-11.066-58.209-68.957-54.822-172.187 10.161-237.156 64.997-64.969 168.27-68.356 237.241-10.147 3.79 3.196 7.481 6.576 11.052 10.147 68.562 68.546 68.562 179.675.001 248.222z" fill="#eef0f5"/><path d="m421.458 338.74c-68.561 68.547-179.725 68.54-248.294 0-3.578-3.578-6.965-7.262-10.161-11.066 68.985 58.209 172.251 54.829 237.241-10.147 64.983-64.969 68.37-168.199 10.161-237.156 3.79 3.196 7.481 6.576 11.052 10.147 68.562 68.546 68.562 179.675.001 248.222z" fill="#dae1ea"/><path d="m181.713 385.798-16.483 16.468c-7.962 7.962-20.874 7.962-28.836 0l-27.74-27.74c-7.969-7.955-7.969-20.867-.007-28.829l16.702-16.702 35.235 35.504z" fill="#56788b"/><path d="m181.713 385.798-16.483 16.468c-7.962 7.962-20.874 7.962-28.836 0l-21.213-21.213c7.962 7.962 20.874 7.962 28.836 0l16.567-16.553z" fill="#415e6f"/><g><g fill="#fbdf63"><path d="m257.067 315.835c-8.284 0-15-6.716-15-15v-59.287c0-8.284 6.716-15 15-15 8.284 0 15 6.716 15 15v59.287c0 8.284-6.716 15-15 15z"/><path d="m347.579 315.835c-8.284 0-15-6.716-15-15v-39.287c0-8.284 6.716-15 15-15 8.284 0 15 6.716 15 15v39.287c0 8.284-6.716 15-15 15z"/></g><path d="m367.579 121.246c-22.091 0-40 17.909-40 40v58.037h40z" fill="#fff"/></g></g><g><path d="m449.119 62.861c-2.931-2.929-7.68-2.928-10.606.001-2.929 2.93-2.928 7.678.001 10.607 37.716 37.706 58.486 87.838 58.486 141.16 0 53.324-20.77 103.456-58.486 141.161-77.857 77.836-204.543 77.836-282.4 0-37.715-37.705-58.486-87.837-58.486-141.161 0-53.323 20.771-103.455 58.486-141.161 33.667-33.658 78.315-54.211 125.717-57.873 46.904-3.627 93.651 9.384 131.654 36.623 3.364 2.411 8.051 1.643 10.465-1.727 2.413-3.366 1.641-8.052-1.727-10.465-40.868-29.295-91.137-43.28-141.548-39.388-50.968 3.938-98.971 26.035-135.168 62.222-40.549 40.539-62.881 94.438-62.881 151.768 0 40.908 11.371 80.068 32.615 113.874l-11.896 11.893c-5.268 5.267-8.169 12.27-8.169 19.718 0 5.143 1.384 10.074 3.975 14.368l-86.604 75.036c-7.541 6.559-12.103 16.008-12.517 25.925-.406 9.735 3.084 18.914 9.827 25.847 6.663 6.849 15.843 10.711 25.358 10.711.425 0 .852-.008 1.278-.023 9.972-.362 19.372-4.951 25.758-12.552l31.845-37.404c2.686-3.154 2.306-7.888-.849-10.573-3.153-2.683-7.887-2.306-10.572.849l-31.876 37.441c-3.75 4.463-9.024 7.037-14.851 7.249-5.814.218-11.269-1.973-15.337-6.155-3.839-3.946-5.825-9.19-5.592-14.763.243-5.815 2.93-11.366 7.363-15.223l86.786-75.194 16.34 16.337-21.282 24.998c-2.686 3.154-2.305 7.888.849 10.573 1.412 1.201 3.139 1.789 4.858 1.789 2.122 0 4.23-.896 5.714-2.638l21.095-24.778c4.331 2.529 9.202 3.794 14.074 3.794 7.142 0 14.284-2.718 19.721-8.153l11.679-11.677c34.086 21.726 73.697 33.364 115.098 33.364 57.345 0 111.257-22.325 151.805-62.864s62.881-94.436 62.881-151.768c0-57.33-22.332-111.229-62.881-151.768zm-289.188 334.104c-5.026 5.025-13.205 5.025-18.231.001l-27.748-27.741c-2.434-2.434-3.775-5.669-3.775-9.11s1.341-6.677 3.775-9.11l9.872-9.87c6.51 8.883 13.748 17.329 21.684 25.263 7.6 7.598 15.67 14.557 24.144 20.849z"/><path d="m155.251 111.18c-3.446-2.297-8.102-1.367-10.4 2.08-23.128 34.691-33.711 76.786-29.802 118.529 3.962 42.299 22.72 82.165 52.818 112.255 30 29.993 69.742 48.734 111.904 52.769 5.806.556 11.619.83 17.421.83 35.759 0 71.021-10.458 100.856-30.152 3.457-2.282 4.409-6.935 2.128-10.392-2.282-3.457-6.934-4.408-10.392-2.128-31.825 21.008-70.389 30.566-108.585 26.908-38.702-3.703-75.185-20.908-102.727-48.444-56.459-56.445-65.35-145.544-21.141-211.857 2.298-3.443 1.367-8.1-2.08-10.398z"/><path d="m416.155 344.044c1.465 1.465 3.384 2.197 5.304 2.197 1.919 0 3.838-.732 5.303-2.196 34.577-34.568 53.619-80.529 53.619-129.416s-19.042-94.848-53.619-129.416c-71.377-71.36-187.517-71.36-258.894 0-2.929 2.929-2.93 7.677-.001 10.607 2.929 2.929 7.677 2.93 10.607.001 65.529-65.511 172.154-65.513 237.683 0 31.743 31.736 49.224 73.929 49.224 118.808s-17.481 87.073-49.224 118.808c-2.93 2.929-2.931 7.677-.002 10.607z"/><path d="m227.039 113.923c-4.143 0-7.5 3.357-7.5 7.5v47.994c0 18.097 12.908 33.239 30.008 36.72v14.276c-8.732 3.095-15.004 11.437-15.004 21.216v59.207c0 12.406 10.094 22.5 22.5 22.5h.009c12.406 0 22.5-10.094 22.5-22.5v-59.207c0-9.778-6.27-18.119-15.005-21.215v-14.277c17.101-3.481 30.009-18.623 30.009-36.72v-47.994c0-4.143-3.357-7.5-7.5-7.5s-7.5 3.357-7.5 7.5v47.994c0 9.767-6.274 18.099-15.009 21.19v-69.184c0-4.143-3.357-7.5-7.5-7.5s-7.5 3.357-7.5 7.5v69.184c-8.735-3.091-15.008-11.423-15.008-21.19v-47.994c0-4.143-3.358-7.5-7.5-7.5zm37.512 186.914c0 4.136-3.364 7.5-7.5 7.5h-.009c-4.136 0-7.5-3.364-7.5-7.5v-59.207c0-4.136 3.364-7.5 7.509-7.5 4.136 0 7.5 3.364 7.5 7.5z"/><path d="m367.589 226.871c4.143 0 7.5-3.357 7.5-7.5v-97.949c0-4.143-3.357-7.5-7.5-7.5-26.197 0-47.511 21.292-47.511 47.464v57.985c0 4.143 3.357 7.5 7.5 7.5h12.505v13.524c-8.732 3.095-15.004 11.437-15.004 21.216v39.225c0 12.406 10.094 22.5 22.5 22.5h.008c12.406 0 22.5-10.094 22.5-22.5v-39.225c0-9.778-6.27-18.119-15.004-21.215v-13.526h12.506zm-12.502 73.966c0 4.136-3.364 7.5-7.5 7.5h-.008c-4.136 0-7.5-3.364-7.5-7.5v-39.225c0-4.136 3.364-7.5 7.508-7.5 4.136 0 7.5 3.364 7.5 7.5zm-20.009-139.45c0-15.324 10.688-28.202 25.011-31.592v82.077h-25.011z"/></g></svg>