<svg id="Capa_1" enable-background="new 0 0 512 512" height="512" viewBox="0 0 512 512" width="512" xmlns="http://www.w3.org/2000/svg"><g><g><g><path d="m414.161 429.176c-2.254 0-4.543-.51-6.696-1.587l-316.346-158.172c-5.082-2.541-8.292-7.735-8.292-13.417s3.21-10.875 8.292-13.417l316.346-158.172c7.41-3.706 16.42-.701 20.124 6.708 3.705 7.41.702 16.419-6.708 20.125l-289.513 144.756 289.513 144.756c7.41 3.705 10.413 12.715 6.708 20.125-2.628 5.256-7.926 8.295-13.428 8.295z" fill="#b3dafe"/></g><g><circle cx="414.173" cy="97.827" fill="#eaf6ff" r="90.327"/><path d="m414.173 7.5c-5.111 0-10.121.431-15 1.247 42.746 7.146 75.327 44.305 75.327 89.08s-32.581 81.935-75.327 89.08c4.879.816 9.889 1.247 15 1.247 49.886 0 90.327-40.441 90.327-90.327s-40.441-90.327-90.327-90.327z" fill="#d8ecfe"/><path d="m414.173 112.704c-30.801 0-56.092 23.551-58.872 53.627 15.811 13.6 36.381 21.823 58.872 21.823s43.061-8.223 58.872-21.823c-2.78-30.076-28.071-53.627-58.872-53.627z" fill="#aee49e"/><path d="m399.216 186.899c4.867.812 9.86 1.255 14.957 1.255 22.492 0 43.061-8.223 58.872-21.823-.888-9.611-4.084-18.549-9.015-26.272-12.916 24.368-36.654 42.119-64.814 46.84z" fill="#8bd8a5"/><path d="m414.173 125.155c-17.229 0-31.197-13.967-31.197-31.197v-11.898c0-17.229 13.967-31.197 31.197-31.197 17.229 0 31.197 13.967 31.197 31.197v11.899c0 17.229-13.968 31.196-31.197 31.196z" fill="#ffcebf"/><path d="m414.173 50.863c-5.438 0-10.549 1.394-15 3.84 9.653 5.304 16.197 15.565 16.197 27.357v11.899c0 11.792-6.544 22.053-16.197 27.357 4.451 2.446 9.562 3.84 15 3.84 17.229 0 31.197-13.967 31.197-31.197v-11.899c0-17.229-13.968-31.197-31.197-31.197z" fill="#ffb09e"/></g><g><circle cx="414.173" cy="414.173" fill="#eaf6ff" r="90.327"/><path d="m414.173 323.846c-5.111 0-10.121.431-15 1.247 42.746 7.146 75.327 44.305 75.327 89.08s-32.581 81.935-75.327 89.08c4.879.816 9.889 1.247 15 1.247 49.886 0 90.327-40.441 90.327-90.327s-40.441-90.327-90.327-90.327z" fill="#d8ecfe"/><path d="m414.173 429.05c-30.801 0-56.092 23.551-58.872 53.626 15.811 13.6 36.381 21.823 58.872 21.823s43.061-8.223 58.872-21.823c-2.78-30.075-28.071-53.626-58.872-53.626z" fill="#fddf80"/><path d="m399.216 503.245c4.867.812 9.86 1.255 14.957 1.255 22.492 0 43.061-8.223 58.872-21.823-.888-9.611-4.084-18.549-9.015-26.272-12.916 24.368-36.654 42.119-64.814 46.84z" fill="#f9d070"/><path d="m414.173 441.501c-17.229 0-31.197-13.967-31.197-31.197v-11.899c0-17.229 13.967-31.197 31.197-31.197 17.229 0 31.197 13.967 31.197 31.197v11.899c0 17.23-13.968 31.197-31.197 31.197z" fill="#ffcebf"/><path d="m414.173 367.209c-5.438 0-10.549 1.394-15 3.84 9.653 5.304 16.197 15.565 16.197 27.357v11.899c0 11.792-6.544 22.053-16.197 27.357 4.451 2.446 9.562 3.84 15 3.84 17.229 0 31.197-13.967 31.197-31.197v-11.899c0-17.23-13.968-31.197-31.197-31.197z" fill="#ffb09e"/></g><g><circle cx="97.827" cy="256" fill="#eaf6ff" r="90.327"/><path d="m97.827 165.673c-5.111 0-10.121.431-15 1.247 42.746 7.146 75.327 44.305 75.327 89.08s-32.581 81.935-75.327 89.08c4.879.816 9.889 1.247 15 1.247 49.886 0 90.327-40.441 90.327-90.327s-40.441-90.327-90.327-90.327z" fill="#d8ecfe"/><path d="m97.827 270.877c-30.801 0-56.092 23.551-58.872 53.627 15.811 13.6 36.381 21.823 58.872 21.823s43.061-8.223 58.872-21.823c-2.78-30.076-28.071-53.627-58.872-53.627z" fill="#f58a97"/><path d="m82.87 345.072c4.867.812 9.86 1.255 14.957 1.255 22.492 0 43.061-8.223 58.872-21.823-.888-9.611-4.084-18.549-9.015-26.272-12.916 24.368-36.654 42.119-64.814 46.84z" fill="#f07281"/><path d="m97.827 283.328c-17.229 0-31.197-13.967-31.197-31.197v-11.899c0-17.229 13.967-31.197 31.197-31.197 17.229 0 31.197 13.967 31.197 31.197v11.899c0 17.23-13.967 31.197-31.197 31.197z" fill="#ffcebf"/><path d="m97.827 209.036c-5.438 0-10.549 1.394-15 3.84 9.653 5.304 16.197 15.565 16.197 27.357v11.899c0 11.792-6.544 22.053-16.197 27.357 4.451 2.446 9.562 3.84 15 3.84 17.229 0 31.197-13.967 31.197-31.197v-11.899c0-17.23-13.967-31.197-31.197-31.197z" fill="#ffb09e"/></g></g><path d="m492.024 367.73c-3.719 1.823-5.256 6.316-3.433 10.036 5.579 11.381 8.408 23.63 8.408 36.407 0 20.301-7.354 38.909-19.522 53.33-5.14-15.563-15.952-28.921-30.223-37.143 3.561-5.852 5.614-12.719 5.614-20.056v-11.898c0-21.337-17.359-38.697-38.696-38.697s-38.696 17.359-38.696 38.697v11.898c0 7.336 2.052 14.202 5.612 20.054-14.274 8.223-25.085 21.583-30.222 37.145-12.167-14.421-19.521-33.029-19.521-53.33 0-45.671 37.156-82.827 82.827-82.827 20.151 0 39.571 7.322 54.684 20.616 3.109 2.735 7.849 2.433 10.585-.678 2.736-3.11 2.433-7.849-.677-10.585-17.853-15.705-40.792-24.354-64.592-24.354-30.113 0-57.087 13.68-75.047 35.147l-146.08-73.045c1.7-7.211 2.608-14.725 2.608-22.448s-.904-15.239-2.604-22.45l146.074-73.042c18.086 21.679 46.378 35.146 75.048 35.146 53.338 0 97.827-43.839 97.827-97.827.002-53.941-43.883-97.826-97.825-97.826s-97.827 43.885-97.827 97.827c0 7.724.908 15.239 2.609 22.451l-58.708 29.355c-3.704 1.853-5.206 6.357-3.354 10.062 1.874 3.747 6.425 5.179 10.063 3.354l56.626-28.314c1.906 4.659 4.156 9.141 6.728 13.41l-141.89 70.949c-1.905-4.659-4.156-9.141-6.728-13.411l53.696-26.85c3.704-1.853 5.206-6.357 3.354-10.063-1.851-3.704-6.355-5.206-10.063-3.354l-55.803 27.903c-17.959-21.468-44.935-35.149-75.048-35.149-53.943.003-97.828 43.888-97.828 97.83 0 53.416 44.614 97.827 97.827 97.827 29.034 0 57.168-13.645 75.05-35.148l146.073 73.041c-1.7 7.212-2.604 14.729-2.604 22.453 0 53.401 44.636 97.827 97.827 97.827 53.324 0 97.827-43.842 97.827-97.827 0-15.085-3.344-29.556-9.939-43.009-1.824-3.719-6.315-5.257-10.037-3.434zm-77.851-187.076c-19.173 0-36.831-6.566-50.883-17.544 2.805-16.28 13.478-30.478 28.338-37.731 6.354 4.572 14.138 7.276 22.545 7.276s16.189-2.703 22.543-7.274c14.857 7.253 25.53 21.449 28.342 37.728-14.053 10.978-31.711 17.545-50.885 17.545zm-23.696-86.696v-11.898c0-13.066 10.63-23.697 23.696-23.697s23.696 10.63 23.696 23.697v11.898c0 13.066-10.63 23.697-23.696 23.697s-23.696-10.63-23.696-23.697zm23.696-78.958c45.671 0 82.827 37.156 82.827 82.827 0 20.301-7.354 38.909-19.521 53.329-5.14-15.559-15.951-28.919-30.221-37.146 3.56-5.851 5.611-12.717 5.611-20.052v-11.898c0-21.337-17.359-38.697-38.696-38.697s-38.696 17.359-38.696 38.697v11.898c0 7.334 2.051 14.199 5.61 20.05-14.273 8.227-25.084 21.588-30.22 37.148-12.167-14.421-19.521-33.028-19.521-53.329 0-45.671 37.156-82.827 82.827-82.827zm-316.346 323.827c-19.174 0-36.833-6.567-50.886-17.546 2.811-16.282 13.488-30.477 28.35-37.723 6.352 4.568 14.132 7.27 22.536 7.27s16.185-2.702 22.538-7.271c14.866 7.248 25.542 21.445 28.346 37.725-14.053 10.978-31.711 17.545-50.884 17.545zm-23.696-86.696v-11.898c0-13.066 10.63-23.697 23.696-23.697s23.696 10.63 23.696 23.697v11.898c0 13.066-10.63 23.697-23.696 23.697s-23.696-10.63-23.696-23.697zm87.003 57.197c-5.136-15.56-15.948-28.918-30.224-37.141 3.561-5.852 5.614-12.719 5.614-20.056v-11.898c0-21.337-17.359-38.697-38.696-38.697s-38.696 17.359-38.696 38.697v11.898c0 7.338 2.053 14.205 5.615 20.057-14.273 8.221-25.086 21.579-30.225 37.139-12.168-14.419-19.522-33.027-19.522-53.327 0-45.671 37.156-82.827 82.827-82.827s82.827 37.156 82.827 82.827c0 20.3-7.353 38.908-19.52 53.328zm162.447 67.937-141.89-70.949c2.572-4.269 4.822-8.752 6.728-13.411l141.89 70.949c-2.571 4.27-4.823 8.752-6.728 13.411zm66.896 21.141c0-13.066 10.63-23.697 23.696-23.697s23.696 10.63 23.696 23.697v11.898c0 13.066-10.63 23.697-23.696 23.697s-23.696-10.63-23.696-23.697zm23.696 98.594c-19.173 0-36.83-6.566-50.883-17.544 2.806-16.283 13.48-30.479 28.343-37.728 6.353 4.57 14.135 7.272 22.54 7.272s16.186-2.702 22.538-7.271c14.858 7.245 25.533 21.44 28.346 37.725-14.052 10.979-31.711 17.546-50.884 17.546z"/></g></svg>