<?xml version="1.0" encoding="iso-8859-1"?>
<!-- Generator: Adobe Illustrator 19.0.0, SVG Export Plug-In . SVG Version: 6.00 Build 0)  -->
<svg version="1.1" id="Capa_1" xmlns="http://www.w3.org/2000/svg" xmlns:xlink="http://www.w3.org/1999/xlink" x="0px" y="0px"
	 viewBox="0 0 398.145 398.145" style="enable-background:new 0 0 398.145 398.145;" xml:space="preserve">
<g>
	<g>
		<path d="M375.933,63.114c-20.619-27.851-52.809-44.785-87.44-46c-37.395-1.297-72.189,19.075-89.36,52.32
			c-17.141-33.273-51.955-53.656-89.36-52.32c-34.632,1.215-66.821,18.149-87.44,46c-20.049,26.063-27.091,59.858-19.12,91.76
			c13.04,50.08,51.92,85.84,92.32,123.68c12.8,11.84,26,24,38.32,36.8c33.28,34.32,59.04,62.8,59.28,63.12
			c2.972,3.27,8.031,3.511,11.301,0.539c0.188-0.171,0.368-0.351,0.539-0.539c0,0,26-28.8,59.28-63.12
			c12.32-12.72,25.52-24.96,38.32-36.8c40.8-37.84,79.28-73.6,92.32-123.68C402.909,122.997,395.927,89.204,375.933,63.114z
			 M379.533,151.114c-11.84,45.6-48.72,80-88,116c-12.4,12-26,24.16-38.64,37.12c-24,24.8-44.24,46.56-53.76,57.04
			c-9.52-10.4-29.68-32-53.76-57.04c-12.64-12.96-26.24-25.12-38.96-37.44c-39.04-36.16-75.84-70.4-88-116
			c-6.585-27.164-0.43-55.849,16.72-77.92c17.643-24.117,45.34-38.85,75.2-40h3.44c58.24,0,77.04,55.2,77.76,57.6
			c1.38,4.197,5.901,6.482,10.098,5.102c2.415-0.794,4.308-2.687,5.102-5.102c0-0.56,20.08-59.76,81.2-57.52
			c29.86,1.15,57.557,15.883,75.2,40C380.245,95.138,386.285,123.923,379.533,151.114z"/>
	</g>
</g>
<g>
	<g>
		<path d="M344.973,91.594c-20.72-27.68-60.24-29.04-61.92-29.12c-4.418,0-8,3.582-8,8c-0.021,4.124,3.097,7.588,7.2,8
			c0,0,33.36,1.2,49.6,22.72c9.52,12.64,11.36,30.4,5.6,52.64c-1.105,4.286,1.474,8.655,5.76,9.76s8.655-1.474,9.76-5.76
			C360.093,130.634,357.293,108.314,344.973,91.594z"/>
	</g>
</g>
<g>
</g>
<g>
</g>
<g>
</g>
<g>
</g>
<g>
</g>
<g>
</g>
<g>
</g>
<g>
</g>
<g>
</g>
<g>
</g>
<g>
</g>
<g>
</g>
<g>
</g>
<g>
</g>
<g>
</g>
</svg>
